<svg width="34" height="32" viewBox="0 0 34 32" fill="none" xmlns="http://www.w3.org/2000/svg">
<path fill-rule="evenodd" clip-rule="evenodd" d="M5.66668 4.83325C5.20644 4.83325 4.83334 5.20635 4.83334 5.66658C4.83334 6.12682 5.20644 6.49992 5.66668 6.49992C6.12691 6.49992 6.50001 6.12682 6.50001 5.66658C6.50001 5.20635 6.12691 4.83325 5.66668 4.83325ZM0.833344 5.66658C0.833344 2.99721 2.9973 0.833252 5.66668 0.833252C8.33605 0.833252 10.5 2.99721 10.5 5.66658C10.5 8.33596 8.33605 10.4999 5.66668 10.4999C2.9973 10.4999 0.833344 8.33596 0.833344 5.66658ZM22.6667 13.3333C20.9428 13.3333 19.2895 14.0181 18.0705 15.2371C16.8515 16.456 16.1667 18.1093 16.1667 19.8333V27.7499H17.8333V19.8333C17.8333 18.5514 18.3426 17.322 19.249 16.4156C20.1554 15.5091 21.3848 14.9999 22.6667 14.9999C23.9486 14.9999 25.1779 15.5091 26.0844 16.4156C26.9908 17.322 27.5 18.5514 27.5 19.8333V27.7499H29.1667V19.8333C29.1667 18.1093 28.4819 16.456 27.2629 15.2371C26.0439 14.0181 24.3906 13.3333 22.6667 13.3333ZM15.2421 12.4086C17.2112 10.4395 19.8819 9.33325 22.6667 9.33325C25.4514 9.33325 28.1222 10.4395 30.0913 12.4086C32.0604 14.3778 33.1667 17.0485 33.1667 19.8333V29.7499C33.1667 30.8545 32.2712 31.7499 31.1667 31.7499H25.5C24.3954 31.7499 23.5 30.8545 23.5 29.7499V19.8333C23.5 19.6122 23.4122 19.4003 23.2559 19.244C23.0997 19.0877 22.8877 18.9999 22.6667 18.9999C22.4457 18.9999 22.2337 19.0877 22.0774 19.244C21.9211 19.4003 21.8333 19.6122 21.8333 19.8333V29.7499C21.8333 30.8545 20.9379 31.7499 19.8333 31.7499H14.1667C13.0621 31.7499 12.1667 30.8545 12.1667 29.7499V19.8333C12.1667 17.0485 13.2729 14.3778 15.2421 12.4086ZM0.833344 12.7499C0.833344 11.6453 1.72877 10.7499 2.83334 10.7499H8.50001C9.60458 10.7499 10.5 11.6453 10.5 12.7499V29.7499C10.5 30.8545 9.60458 31.7499 8.50001 31.7499H2.83334C1.72877 31.7499 0.833344 30.8545 0.833344 29.7499V12.7499ZM4.83334 14.7499V27.7499H6.50001V14.7499H4.83334Z" fill="#E5F6FE"/>
</svg>
