<svg width="36" height="27" viewBox="0 0 36 27" fill="none" xmlns="http://www.w3.org/2000/svg">
<path fill-rule="evenodd" clip-rule="evenodd" d="M17.9998 0.666748L18.1141 0.666897C18.1875 0.667045 18.2949 0.667341 18.4321 0.667928C18.7066 0.669104 19.1005 0.671452 19.5805 0.67614C20.5399 0.685511 21.8465 0.704264 23.2322 0.741859C24.6149 0.779375 26.0909 0.83603 27.3846 0.922184C28.6266 1.00489 29.8572 1.12333 30.6578 1.31883C30.6812 1.32456 30.7046 1.33071 30.7278 1.33729C31.7334 1.62178 32.6461 2.1666 33.3737 2.91672C34.1013 3.66684 34.6181 4.5957 34.8718 5.60947C34.8826 5.65267 34.892 5.69622 34.8999 5.74005C35.3706 8.34959 35.5994 10.997 35.5834 13.6486C35.5921 16.2605 35.3634 18.8678 34.8999 21.4383C34.892 21.4822 34.8826 21.5258 34.8718 21.569C34.6181 22.5828 34.1013 23.5117 33.3737 24.2618C32.6461 25.0119 31.7334 25.5567 30.7278 25.8412L30.7001 25.8488C29.8836 26.0672 28.6385 26.1977 27.3972 26.2882C26.1 26.3828 24.6212 26.445 23.2373 26.4861C21.8503 26.5273 20.5424 26.5478 19.5824 26.5581C19.102 26.5633 18.7077 26.5658 18.4329 26.5671C18.2956 26.5678 18.188 26.5681 18.1145 26.5683L18.0007 26.5684L17.8855 26.5683C17.812 26.5681 17.7044 26.5678 17.5671 26.5671C17.2923 26.5658 16.898 26.5633 16.4176 26.5581C15.4576 26.5478 14.1498 26.5273 12.7627 26.4861C11.3788 26.445 9.89999 26.3828 8.6028 26.2882C7.36154 26.1977 6.11641 26.0672 5.29995 25.8488L5.28883 25.8459C4.30371 25.5763 3.40476 25.0572 2.67884 24.3388C1.95292 23.6203 1.42456 22.7268 1.14482 21.7445C1.12674 21.6811 1.11182 21.6167 1.1001 21.5518C0.629477 18.9427 0.400688 16.2957 0.416643 13.6446C0.404327 11.0133 0.633096 8.38638 1.10009 5.7968C1.108 5.75295 1.11737 5.70937 1.12819 5.66613C1.38193 4.65237 1.89871 3.72351 2.62633 2.97339C3.35395 2.22327 4.26664 1.67845 5.27221 1.39395L5.29995 1.38632C6.11641 1.16796 7.36154 1.0375 8.6028 0.946969C9.89999 0.852353 11.3788 0.790212 12.7627 0.749089C14.1498 0.707871 15.4576 0.687315 16.4176 0.677045C16.898 0.671905 17.2923 0.669332 17.5671 0.668043C17.7044 0.667398 17.812 0.667075 17.8855 0.666912L17.9998 0.666748ZM18.1056 22.5683C18.1761 22.5681 18.2803 22.5678 18.4142 22.5672C18.682 22.5659 19.0682 22.5634 19.5396 22.5583C20.4832 22.5483 21.7643 22.5281 23.1185 22.4878C24.4759 22.4475 25.8906 22.3875 27.1062 22.2988C28.363 22.2071 29.2441 22.0948 29.6524 21.9884C29.9753 21.8945 30.2683 21.7182 30.5025 21.4767C30.727 21.2453 30.89 20.9617 30.9771 20.6519C31.3889 18.342 31.5918 15.9996 31.5834 13.6531L31.5834 13.6334C31.5983 11.2509 31.3954 8.87205 30.9772 6.52663C30.89 6.21679 30.727 5.93321 30.5025 5.70176C30.2731 5.46527 29.9874 5.2913 29.6724 5.19602C29.24 5.09677 28.3538 4.99559 27.1188 4.91334C25.8997 4.83215 24.4822 4.77725 23.1237 4.74039C21.7681 4.70361 20.4858 4.68517 19.5415 4.67595C19.0697 4.67134 18.6831 4.66904 18.415 4.66789C18.281 4.66732 18.1766 4.66703 18.106 4.66689L17.8944 4.6669C17.8239 4.66706 17.7197 4.66737 17.5858 4.668C17.318 4.66926 16.9318 4.67177 16.4604 4.67682C15.5168 4.68691 14.2357 4.70708 12.8815 4.74732C11.5241 4.78766 10.1094 4.8477 8.89378 4.93637C7.63694 5.02804 6.75585 5.1404 6.34754 5.24678C6.02468 5.34067 5.73172 5.51696 5.4975 5.75842C5.273 5.98987 5.10999 6.27344 5.02286 6.58327C4.60788 8.91096 4.40497 11.2716 4.41665 13.636L4.41663 13.6585C4.40175 16.0284 4.60247 18.3948 5.01627 20.7282C5.11226 21.0176 5.27531 21.2807 5.49258 21.4957C5.72818 21.7289 6.01962 21.8978 6.33903 21.9862C6.74351 22.0932 7.62813 22.2065 8.89378 22.2988C10.1094 22.3875 11.5241 22.4475 12.8815 22.4878C14.2357 22.5281 15.5168 22.5483 16.4604 22.5583C16.9318 22.5634 17.318 22.5659 17.5858 22.5672C17.7197 22.5678 17.8239 22.5681 17.8944 22.5683H18.1056ZM13.8069 7.28463C14.4225 6.92652 15.1821 6.92281 15.8012 7.27489L23.947 11.9074C24.5722 12.2629 24.9583 12.9267 24.9583 13.6459C24.9583 14.3651 24.5722 15.0289 23.947 15.3844L15.8012 20.0169C15.1821 20.369 14.4225 20.3653 13.8069 20.0072C13.1912 19.6491 12.8125 18.9906 12.8125 18.2784V9.01341C12.8125 8.30121 13.1912 7.64274 13.8069 7.28463ZM16.8125 12.4516V14.8402L18.9126 13.6459L16.8125 12.4516Z" fill="#E5F6FE"/>
</svg>
