<svg width="132" height="52" viewBox="0 0 132 52" fill="none" xmlns="http://www.w3.org/2000/svg">
<path d="M84.7895 31.143H73.5309V11.2386H65.7189V38.184H83.9079L84.7895 31.143Z" fill="black"/>
<path d="M95.9298 29.3934H99.2226C105.504 29.3934 109.026 26.0441 109.026 20.4483C109.026 14.435 105.427 11.2372 98.1132 11.2372H87.9655V38.1855H95.9313L95.9298 29.3934ZM95.9298 17.4416H97.8809C100.218 17.4416 101.443 18.3547 101.443 20.4483C101.443 22.4273 100.257 23.38 97.8809 23.38H95.9298V17.4416Z" fill="black"/>
<path d="M121.201 32.4C119.324 32.4 117.718 31.5252 116.49 29.8109L115.764 29.6595L110.44 33.3513C112.889 37.0049 116.721 38.9088 121.24 38.9088C127.481 38.9088 131.923 35.1009 131.923 29.8874C131.923 26.4617 130.047 24.0269 124.993 21.895C120.166 19.8396 119.746 19.4206 119.746 18.5458C119.746 17.6695 120.472 17.0608 121.928 17.0608C123.576 17.0608 124.993 17.9371 125.988 19.3074L126.716 19.4588L131.999 15.5391C129.701 12.3031 126.139 10.5153 121.852 10.5153C116.03 10.5153 111.705 14.0159 111.705 18.5458C111.705 22.6184 113.582 24.9782 118.559 27.0336C123.116 28.9361 123.843 29.5448 123.843 30.6857C123.843 31.6767 122.809 32.4 121.201 32.4Z" fill="black"/>
<path d="M23.7565 35.3891L23.711 35.3788L23.7139 35.3964L23.7565 35.3891Z" fill="#36A9E1"/>
<path d="M41.9014 24.6121L31.7818 22.2494L26.2864 12.953L32.6235 0L35.9504 18.4076L54.1245 24.9282L34.1146 31.0694L23.3175 49.8549L21.4862 37.8664L30.091 27.9613L41.9014 24.6121Z" fill="#36A9E1"/>
<path d="M24.7909 27.0615L10.9879 24.5915L26.0571 22.4964L23.4137 18.2503L0 24.6871L21.0262 31.0283L24.7909 27.0615Z" fill="black"/>
<path d="M68.3254 52C69.2647 52 69.9969 51.6618 70.4777 50.9076L70.4984 50.9164C70.4348 51.1031 70.3904 51.309 70.3904 51.5383V51.8309H71.525V48.4567H68.8283V49.4241H70.3742V49.4594C70.2839 50.393 69.4881 50.862 68.534 50.862C67.3624 50.862 66.5414 49.9578 66.5414 48.7125C66.5414 47.4349 67.4082 46.5454 68.5872 46.5454C69.3993 46.5454 69.9363 46.857 70.3653 47.5143L70.5176 47.5481L71.4555 46.9629C70.8475 45.9058 69.8475 45.3736 68.5428 45.3736C66.6302 45.3736 65.1834 46.7409 65.1834 48.7125C65.1805 50.6415 66.5044 52 68.3254 52Z" fill="#009FE3"/>
<path d="M82.6742 49.1389V45.5441H81.4227V49.2462C81.4227 51.059 82.2615 52 84.0765 52C85.8354 52 86.7214 51.0046 86.7214 49.2462V45.5441H85.4685V49.1301C85.4685 50.346 85.0499 50.8356 84.0765 50.8356C83.1032 50.8356 82.6742 50.3474 82.6742 49.1389Z" fill="#009FE3"/>
<path d="M95.915 51.8294H97.3543L97.8366 50.4989H100.418L100.909 51.8294H102.348L99.8203 45.5441H98.4712L95.915 51.8294ZM99.1058 46.7865H99.1413C99.2389 47.2305 99.372 47.6569 99.5155 48.048L100.06 49.53H98.1931L98.7285 48.048C98.872 47.6569 99.0067 47.2305 99.1058 46.7865Z" fill="#009FE3"/>
<path d="M116.061 47.479C116.061 46.1822 115.267 45.5426 113.774 45.5426H111.657V51.8309H112.924V49.3344H113.631L115.336 51.8309H116.641L116.706 51.678L114.882 49.1389C115.641 48.8728 116.061 48.2964 116.061 47.479ZM113.642 48.3494H112.926V46.5733H113.642C114.446 46.5733 114.83 46.8218 114.83 47.479C114.829 48.0921 114.455 48.3494 113.642 48.3494Z" fill="#009FE3"/>
<path d="M126.025 45.5426V51.8294H127.966C130.232 51.8294 131.59 50.6488 131.59 48.6596C131.59 46.688 130.306 45.5426 127.973 45.5426H126.025ZM130.296 48.6508C130.296 50.071 129.51 50.7106 127.874 50.7106H127.277V46.6615H127.891C129.527 46.663 130.296 47.2849 130.296 48.6508Z" fill="#009FE3"/>
</svg>
