<svg width="132" height="46" viewBox="0 0 132 46" fill="none" xmlns="http://www.w3.org/2000/svg">
<path d="M6.79607 0.195131C7.69652 0.0192349 8.6167 -0.0198531 9.53687 -0.000309115C11.7059 0.0778668 13.8551 0.481776 15.9518 1.04855C16.3396 1.13976 16.6682 1.36777 17.0166 1.54366C18.8569 2.54692 20.6775 3.63487 22.2156 5.05507C22.978 5.78471 23.7075 6.61207 24.0099 7.64139C24.1676 8.20165 24.1348 8.79448 23.9179 9.3352C25.0615 9.39383 26.1986 9.46549 27.3357 9.53064C27.3882 10.3319 27.2174 11.1854 26.685 11.8108C25.9948 12.6446 24.9366 13.029 23.9179 13.2961C23.931 13.6479 23.8456 14.0192 23.6024 14.2929C23.4118 14.5339 23.1292 14.6837 22.8531 14.8075C22.8662 15.0746 22.9057 15.3613 22.7611 15.6023C22.5968 15.8889 22.2747 16.0323 21.9855 16.156C21.9461 16.8075 21.8541 17.459 21.8541 18.1104C22.6428 19.0095 23.4512 19.8824 24.2465 20.7749C24.378 20.9443 24.608 20.9508 24.7986 21.016C25.8108 21.3026 26.7507 21.9411 27.2568 22.8727C27.776 23.8238 27.822 24.9573 27.6577 26.0062C27.5591 26.6186 27.408 27.2179 27.1976 27.7977C27.546 28.156 27.9469 28.4687 28.3018 28.8205C27.9732 29.3938 27.6314 29.9541 27.2962 30.5209C27.8155 31.4003 28.3873 32.2538 28.8014 33.1919C29.4586 34.6381 29.7807 36.2147 29.945 37.7847C30.0239 38.5534 30.0502 39.3678 29.7084 40.0844C29.4455 40.6577 28.9263 41.0942 28.3413 41.3352C27.7235 41.5958 27.0465 41.674 26.3761 41.7C25.4887 41.7261 24.6014 41.7196 23.7207 41.7521C24.0625 42.9899 24.4634 44.2147 24.8118 45.4525C21.9461 45.4134 19.0738 45.3613 16.2081 45.3026C16.0438 44.9964 15.9715 44.6056 15.6626 44.3971C15.2682 44.0714 14.7819 43.7717 14.6438 43.2505C14.5255 42.7293 14.6504 42.1951 14.7621 41.6805C14.8082 41.5111 14.7424 41.3417 14.703 41.1788C14.5781 40.7228 14.4795 40.2538 14.3415 39.7977C14.1969 40.13 14.0786 40.4753 13.9471 40.814C13.8354 41.0681 14.0326 41.3352 13.9471 41.5958C13.8551 41.8694 13.7302 42.13 13.6514 42.4101C13.5199 42.7619 13.934 43.016 13.9734 43.3417C13.7697 43.5697 13.5462 43.7717 13.3424 43.9997C13.5396 44.2798 13.7434 44.56 13.9406 44.8466C13.7565 44.9899 13.5396 45.1072 13.3819 45.2766C13.2636 45.5046 13.1847 45.7586 13.073 45.9932C12.9744 45.7717 12.9152 45.5306 12.8035 45.3157C12.6129 45.1398 12.3697 45.042 12.1528 44.8922C12.3171 44.6577 12.488 44.4231 12.6523 44.1886C12.5274 44.0323 12.3894 43.8889 12.258 43.7326C12.4157 43.5502 12.5866 43.3678 12.7509 43.1919C12.6392 43.0029 12.5209 42.8205 12.4091 42.6316C12.6063 42.3059 12.7969 41.9801 12.9612 41.6414C12.8232 41.3678 12.626 41.1202 12.5537 40.8205C12.442 40.4101 12.3434 39.9932 12.2119 39.5828C11.4495 41.3873 10.72 43.2049 9.97067 45.0095C9.93123 45.0811 9.90494 45.2114 9.79978 45.1919C7.30216 45.1593 4.80455 45.1137 2.30693 45.0811C3.14166 43.1332 3.98954 41.1854 4.82427 39.2375C3.88437 38.6837 2.83275 38.2603 2.08346 37.4394C1.24873 36.6121 0.755783 35.4981 0.545457 34.358C0.321986 33.1658 0.433722 31.928 0.808364 30.7749C0.906954 30.4622 1.05155 30.1626 1.11728 29.8368C1.24873 29.257 1.41305 28.6772 1.53793 28.0974C1.34732 27.8368 1.0647 27.6479 0.874091 27.3808C0.190533 26.5665 -0.1381 25.4655 0.0590796 24.4166C0.25626 23.4394 0.630902 22.4622 1.32103 21.713C1.98487 20.9899 2.91819 20.5404 3.88437 20.3645C4.07498 20.3254 4.29188 20.3189 4.42991 20.1691C5.13975 19.5241 5.88247 18.9052 6.58574 18.2472C6.6186 17.4329 6.56602 16.6186 6.55945 15.8043C5.88247 15.7521 5.14633 15.6088 4.67967 15.0746C4.48906 14.8922 4.39704 14.6186 4.19329 14.4427C3.6609 14.2603 3.08251 14.0844 2.72101 13.6284C2.30693 13.1854 2.43181 12.5339 2.25435 11.9997C1.85342 11.6414 1.36704 11.3547 1.08442 10.8857C0.841227 10.5013 0.834655 10.0257 0.94639 9.6023C1.02526 9.08764 1.49192 8.78145 1.7614 8.37103C1.66281 7.88894 1.43934 7.41989 1.46563 6.92477C1.49192 6.54041 1.67596 6.1821 1.98487 5.94106C2.38581 5.61533 2.88533 5.43292 3.37171 5.27005C3.24025 4.45572 3.17453 3.6023 3.41771 2.79448C3.62804 2.07135 4.08155 1.43943 4.70596 1.00946C5.33036 0.572981 6.0665 0.325424 6.80921 0.175587M8.10403 0.651157C8.02516 1.19839 8.03173 1.75865 8.0383 2.31239C8.65613 2.32542 9.26739 2.34497 9.88522 2.31891C9.89837 1.76516 9.8918 1.2049 9.85893 0.651157C9.28054 0.553437 8.68242 0.527378 8.1106 0.651157M5.65899 1.21793C5.6327 1.58275 5.6327 1.94757 5.65899 2.30588C6.22424 2.31891 6.78949 2.31891 7.35474 2.30588C7.37446 1.79122 7.38761 1.27656 7.35474 0.755391C6.76978 0.827053 6.19795 0.983404 5.65242 1.21142M10.6477 0.827052C10.6148 1.34823 10.6148 1.8694 10.6477 2.39057C11.3049 2.41663 11.9622 2.42314 12.6195 2.39057C12.6195 1.93454 12.5932 1.472 12.5537 1.01598C11.9293 0.872655 11.2852 0.774935 10.6477 0.827052ZM13.303 1.15279C13.2833 1.57624 13.2833 1.99969 13.303 2.42966C13.8683 2.4492 14.4335 2.46223 15.0053 2.44269C15.0251 2.14301 15.0185 1.83682 14.9922 1.53715C14.4992 1.21793 13.888 1.14627 13.3096 1.15279M15.7415 1.79774C15.7283 2.05181 15.7283 2.30588 15.7415 2.55995C16.241 2.55995 16.7405 2.53389 17.24 2.50132L17.194 2.34497C16.7142 2.15604 16.241 1.94757 15.7415 1.79774ZM4.54164 2.25376H4.936C4.936 2.12347 4.936 1.99318 4.936 1.86288C4.79798 1.98666 4.67309 2.11695 4.54821 2.25376M4.04212 3.05507C3.7332 3.57624 3.76607 4.2277 3.96982 4.77494C4.33132 4.81402 4.68624 4.83357 5.04774 4.83357C5.02145 4.16907 5.01487 3.49806 4.99516 2.83357C4.67967 2.8466 4.21958 2.70327 4.04212 3.05507ZM5.71815 2.90523C5.69186 3.53064 5.69186 4.15604 5.71815 4.78145C6.2834 4.81402 6.84865 4.86614 7.42047 4.8466C7.43362 4.19513 7.44676 3.55018 7.43362 2.89871C6.86179 2.87917 6.28997 2.87917 5.72472 2.89871M8.09088 2.97037C8.0383 3.62184 8.01858 4.27331 8.03173 4.92477C8.65613 5.00946 9.30025 5.10718 9.93123 4.98992C9.95095 4.31891 9.95095 3.64138 9.93123 2.97037C9.31997 2.95083 8.70214 2.95083 8.09088 2.97037ZM10.6674 2.9834C10.6345 3.66744 10.6411 4.358 10.6674 5.04204C11.2983 5.05507 11.9293 5.05507 12.5603 5.04204C12.5932 4.59253 12.5734 4.1365 12.5997 3.68699C12.6129 3.47852 12.5997 3.27005 12.5734 3.06158C11.9425 3.03552 11.3115 3.02249 10.6739 2.98992M13.2899 3.06158C13.2439 3.71956 13.1978 4.38406 13.2241 5.04855C13.7697 5.10718 14.3152 5.13324 14.8607 5.1137C14.8805 4.46223 14.8739 3.80425 14.8673 3.15279C14.3481 3.06809 13.8157 3.10067 13.2964 3.06158M15.6626 3.18536C15.6363 3.84334 15.6232 4.50783 15.6429 5.16581C16.2344 5.2049 16.8194 5.27005 17.4109 5.24399C17.4241 4.57298 17.4438 3.90197 17.4175 3.23096C16.8325 3.19839 16.241 3.19187 15.656 3.18536M18.1734 3.29611C18.1536 3.94106 18.1339 4.59252 18.1536 5.24399C18.7649 5.25702 19.3762 5.27656 19.9874 5.24399C20.0334 4.85963 20.086 4.46875 20.0531 4.07787C20.0531 3.9606 19.9414 3.88894 19.856 3.81728C19.6259 3.6479 19.3762 3.49806 19.1133 3.37428C18.8175 3.23748 18.4823 3.26353 18.1668 3.29611M20.7236 4.60555C20.717 4.85311 20.7236 5.10067 20.7433 5.34171C21.039 5.36125 21.3348 5.36777 21.6306 5.36125C21.3414 5.08764 21.039 4.83357 20.7236 4.59904M4.22615 5.3352C4.31817 5.53064 4.39047 5.74562 4.55479 5.89546C4.70596 5.98666 4.90314 5.9606 5.07403 5.98015C5.07403 5.78471 5.07403 5.58927 5.06088 5.39383C4.78483 5.35474 4.50878 5.3352 4.23273 5.3352M5.73787 5.3808C5.71815 5.65441 5.71815 5.92803 5.74444 6.20164C6.30312 6.27331 6.86179 6.358 7.42047 6.41011C7.43362 6.07135 7.42047 5.73259 7.37446 5.39383C6.82893 5.37428 6.2834 5.36777 5.73787 5.3808ZM8.10403 5.51109C8.08431 5.85637 8.08431 6.19513 8.10403 6.54041C8.70871 6.6707 9.3134 6.78796 9.92466 6.87917C9.95095 6.4492 9.95095 6.01272 9.92466 5.58275C9.31997 5.52412 8.70871 5.49806 8.09746 5.51109M10.6739 5.58927C10.6542 6.07787 10.6411 6.56647 10.6608 7.06158C11.2852 7.19187 11.9162 7.31565 12.5537 7.40034C12.5866 6.80099 12.58 6.19513 12.5997 5.59578C11.9556 5.56972 11.3115 5.57624 10.6739 5.59578M13.165 5.66093C13.1453 6.29937 13.165 6.9378 13.2307 7.56972C13.7105 7.65441 14.1903 7.75213 14.6767 7.79774C14.749 7.12673 14.7424 6.4492 14.7293 5.77819C14.21 5.71305 13.6908 5.70002 13.165 5.66744M15.6034 5.79122C15.5574 6.38406 15.5311 6.9834 15.5443 7.57624C16.1358 7.59578 16.7274 7.61533 17.3123 7.6023C17.3452 7.00295 17.3386 6.39709 17.2992 5.79774C16.7339 5.79774 16.1687 5.79774 15.6034 5.79774M18.0551 5.92803C18.0288 6.52086 18.0025 7.1137 18.0288 7.70653C18.6532 7.72608 19.2776 7.74562 19.902 7.77168C19.9217 7.16581 19.9414 6.56647 19.9283 5.9606C19.3039 5.915 18.6795 5.90197 18.0551 5.92803ZM20.6644 5.97363C20.6447 6.57298 20.6315 7.17884 20.6052 7.77819C21.1639 7.81728 21.7292 7.84334 22.2879 7.84985C22.3076 7.23096 22.3141 6.61207 22.2879 5.99318C21.7489 5.97363 21.2034 5.96712 20.6644 5.98015M2.675 6.06484C2.22149 6.21467 1.95201 6.68373 1.89943 7.13324C1.85999 7.49155 2.0506 7.81077 2.2675 8.07787C2.44496 8.25376 2.35294 8.51435 2.35294 8.73585C1.97173 8.95735 1.57737 9.21793 1.41305 9.64139C1.2816 9.96712 1.34732 10.3385 1.53136 10.6251C1.79426 11.0355 2.22806 11.3873 2.74073 11.3938C2.87218 11.5567 2.95763 11.7456 2.98392 11.9476C2.95105 12.3906 2.91819 12.8857 3.22053 13.2505C3.54917 13.6609 4.12099 13.7261 4.61394 13.7586C4.75854 14.1235 4.94915 14.5013 5.28435 14.7293C5.68529 15.0225 6.2111 15.0811 6.69748 15.016C6.69748 14.7815 6.69748 14.5469 6.69748 14.3059C5.7773 13.915 5.12004 13.0942 4.75197 12.1886C4.60737 11.5046 4.58108 10.6968 5.04774 10.1235C5.31064 9.83031 5.67871 9.55018 6.09936 9.58927C6.48715 9.58927 6.88151 9.58927 7.2693 9.59578C7.28902 10.0779 7.29559 10.56 7.31531 11.042C7.32845 11.1202 7.31531 11.2179 7.37446 11.2831C7.55192 11.4655 7.74253 11.6349 7.93971 11.7977C8.24863 11.5437 8.5444 11.2049 8.56412 10.7815C8.59041 10.2994 8.28149 9.89546 8.01201 9.52412C8.10403 9.30262 8.20262 9.08112 8.30121 8.85963C8.64956 8.83357 9.01763 8.77493 9.27396 8.51435C9.55002 8.27331 9.64203 7.89546 9.64203 7.54366C8.08431 7.23748 6.52001 6.95083 4.96229 6.65116C4.68624 6.58601 4.37075 6.59252 4.14728 6.39708C3.7332 6.0909 3.1811 5.85637 2.66186 6.05181M22.9583 7.06158C22.9385 7.32868 22.932 7.58927 22.9517 7.85637C23.1094 7.85637 23.2672 7.85637 23.4315 7.85637C23.3132 7.56972 23.1554 7.30262 22.9648 7.05507M10.4702 7.74562C10.3453 8.11044 10.2204 8.48829 9.93123 8.75539C9.59603 9.08764 9.12937 9.23096 8.68242 9.34171C8.88618 9.72608 9.03735 10.143 9.03078 10.586C9.04392 11.0681 8.85989 11.5632 8.49182 11.8824C8.02516 12.2994 7.38103 12.4297 6.77635 12.4687C6.74349 11.6674 6.72377 10.8661 6.69748 10.0583C6.40171 10.0453 6.08622 10.0583 5.82331 10.2082C5.47496 10.3906 5.25806 10.7554 5.19234 11.1267C5.06745 11.6544 5.27121 12.1951 5.59984 12.6056C6.04678 13.1658 6.63832 13.5828 7.21672 13.9997C7.22329 15.2896 7.21014 16.5795 7.22329 17.8629C9.64861 19.3547 12.5274 20.1886 15.3865 19.9932C17.4964 19.8629 19.547 19.1072 21.2888 17.9215C21.394 16.358 21.5123 14.801 21.6174 13.2375C20.717 12.8466 19.8165 12.4036 19.1133 11.7065C18.41 11.0095 17.9696 10.117 17.5227 9.24399C17.4569 9.04855 17.2203 9.05507 17.0494 8.99643C16.5368 8.88568 16.0307 8.69676 15.4983 8.74236C15.5509 8.85963 15.6363 8.96386 15.7415 9.04855C16.0767 9.27656 16.4447 9.45897 16.8325 9.59578C17.4964 9.8238 17.9828 10.5209 17.917 11.2244C17.8907 11.6088 17.7133 11.9606 17.5227 12.2863C17.9302 12.599 18.3771 12.9183 18.5611 13.4199C18.7649 13.9932 18.8306 14.6837 18.5086 15.2244C18.3048 15.5958 17.9236 15.8303 17.4964 15.8499C16.8983 15.8694 16.3724 15.5632 15.8795 15.2635C15.4983 15.6544 14.8673 15.7717 14.3612 15.5697C14.0786 15.459 13.9143 15.1854 13.796 14.9313C13.211 15.0746 12.534 15.1332 12.0082 14.7814C11.4824 14.4166 11.3312 13.7196 11.3706 13.1202C11.4692 12.586 11.7913 12.0714 12.2777 11.7977C12.6918 11.5632 13.1913 11.5567 13.6579 11.6088C13.6842 11.485 13.7105 11.3613 13.7434 11.231C13.8485 11.2049 13.9537 11.1723 14.0589 11.1463C14.2429 11.3808 14.2758 11.7065 14.5124 11.902C14.9922 12.3189 15.7152 12.4557 16.3067 12.2082C16.6419 12.0714 16.9048 11.8043 17.1217 11.5176C17.3386 11.1984 17.2532 10.7554 17.0034 10.4818C16.5959 10.0127 16.0044 9.75865 15.4326 9.56321C15.0053 9.40034 14.7227 8.98341 14.6767 8.54041C13.2767 8.27331 11.8702 7.99969 10.4702 7.74562ZM17.9499 8.31239C17.9499 8.54692 17.9236 8.79448 18.0485 9.00295C18.2654 9.37428 18.4823 9.74562 18.7057 10.1104C19.0738 10.1495 19.4353 10.156 19.8034 10.13C19.8362 9.54366 19.8231 8.95083 19.81 8.36451C19.1921 8.28633 18.5677 8.30588 17.9499 8.30588M20.4738 8.4492C20.4738 9.02901 20.4738 9.6023 20.4738 10.1821C21.0325 10.2082 21.5911 10.2212 22.1498 10.2016C22.163 9.62184 22.163 9.04204 22.1498 8.46223C21.5911 8.44269 21.039 8.42314 20.4804 8.4492M22.8137 8.55995C22.8005 8.78796 22.8005 9.01598 22.8137 9.24399C22.978 9.22445 23.1817 9.25702 23.2935 9.10718C23.4249 8.9378 23.3921 8.70979 23.3986 8.51435C23.2015 8.51435 23.0043 8.53389 22.8071 8.55995M22.8202 9.86288V10.3124C23.3921 10.3385 23.9705 10.3906 24.5423 10.3841C24.5423 10.2342 24.5357 10.0844 24.5357 9.93454C23.9639 9.87591 23.3921 9.84985 22.8202 9.86288ZM25.3376 9.95409C25.3376 10.1104 25.331 10.2668 25.3244 10.4231C25.7911 10.4492 26.2577 10.4753 26.7244 10.4818L26.7638 9.99969C26.2906 9.96712 25.8108 9.92151 25.3376 9.94757M19.1921 10.7749C19.3367 10.9573 19.5076 11.1202 19.7048 11.244C19.7048 11.0942 19.7048 10.9378 19.7114 10.788C19.5405 10.788 19.363 10.7749 19.1921 10.7749ZM20.4015 10.8401C20.4015 11.2179 20.3555 11.6088 20.4278 11.9801C20.8156 12.4362 21.4268 12.6642 22.0184 12.6707C22.0578 12.0844 22.117 11.5046 22.1038 10.9183C21.5386 10.8792 20.9733 10.814 20.4015 10.8401ZM22.7545 10.9117C22.7348 11.5306 22.7019 12.156 22.6954 12.7749C23.2672 12.8401 23.8521 12.7749 24.3977 12.599C24.4634 12.0648 24.4568 11.5306 24.4831 10.9899C23.9047 10.9508 23.3263 10.9248 22.7545 10.9052M25.285 11.0746C25.2587 11.459 25.2587 11.8433 25.285 12.2342C25.423 12.1886 25.5413 12.1104 25.6399 12.0127C25.9225 11.713 26.2512 11.4394 26.4418 11.0746C26.054 11.0551 25.6728 11.0551 25.285 11.0746ZM11.9096 13.3287C11.8702 13.8108 12.1134 14.358 12.5997 14.5274C13.0861 14.6968 13.5791 14.4948 13.9997 14.2733C14.1509 14.6186 14.3546 15.016 14.7621 15.1137C15.1368 15.2114 15.4983 15.0095 15.7415 14.7358C16.1753 15.0486 16.6814 15.3287 17.2335 15.2896C17.7198 15.2635 18.1274 14.9117 18.2194 14.4362C18.1536 13.713 17.7593 12.9378 17.0231 12.6902C16.5499 12.6056 16.103 12.8466 15.6363 12.9052C15.1696 12.9769 14.7293 12.7489 14.3021 12.586C13.8748 12.4231 13.5002 12.0909 13.027 12.13C12.4157 12.1626 11.9228 12.7293 11.9162 13.3287M22.2287 13.3352C22.1695 14.1039 22.0907 14.8727 22.0447 15.6479C22.1695 15.6349 22.3602 15.687 22.4062 15.5306C22.5639 15.1463 22.4982 14.7228 22.4982 14.3189C22.7216 14.2929 22.9714 14.2798 23.1489 14.117C23.3723 13.9345 23.4446 13.6479 23.4775 13.3743C23.0634 13.3613 22.6493 13.3482 22.2287 13.3417M6.90123 18.5404C6.88808 19.902 6.88151 21.2701 6.90123 22.6316C8.02516 22.6381 9.15566 22.6642 10.2796 22.6577C10.3124 22.0974 10.2796 21.5372 10.2862 20.9704C11.2392 20.9639 12.1922 21.016 13.1518 21.016C14.4598 21.0616 15.7612 21.0551 17.0692 21.1007C17.0757 21.7847 17.0494 22.4687 17.0823 23.1593C18.4034 23.1723 19.7245 23.2114 21.039 23.1788C21.2428 21.6544 21.4203 20.13 21.6109 18.6056C20.7236 19.1267 19.81 19.6088 18.8306 19.9345C16.4908 20.7489 13.934 20.8466 11.5152 20.358C9.88522 20.0258 8.30121 19.4459 6.90123 18.5469M5.5144 20.2212C5.38294 20.345 5.35665 20.5209 5.33693 20.6837C5.23177 21.902 5.10032 23.1137 4.99516 24.3319C4.96886 24.6512 4.88999 24.9899 4.63366 25.2049C4.30502 25.5046 3.83179 25.5241 3.41114 25.6023C3.62147 26.1365 4.11442 26.5078 4.61394 26.7554C5.00173 26.4622 5.2975 26.0648 5.67214 25.7586C5.9942 25.9541 6.26368 26.2147 6.55288 26.4427C7.31531 27.042 8.05802 27.6609 8.82702 28.2538C8.99134 28.0909 9.11622 27.8955 9.30025 27.7586C9.5303 27.7196 9.76691 27.7326 10.0035 27.7261C10.0824 27.231 10.043 26.7228 10.0627 26.2212C10.0627 25.2831 10.135 24.3515 10.1284 23.4134C9.72748 23.3417 9.31997 23.3547 8.91904 23.3222C8.02516 23.257 7.13127 23.231 6.24396 23.1528C6.23082 21.9411 6.25711 20.7293 6.29654 19.5176C6.02049 19.7326 5.75759 19.9671 5.50782 20.2212M21.9329 20.9183C21.7752 21.8955 21.6437 22.8792 21.4794 23.8564C19.9808 23.8108 18.4823 23.7521 16.9837 23.6935C16.964 24.5339 16.964 25.3743 16.9837 26.2212C17.6738 26.3189 18.3705 26.2603 19.0607 26.358C19.0804 26.7684 19.0541 27.1788 19.087 27.5893C19.2053 27.5893 19.3236 27.5828 19.4419 27.5762C19.5273 27.1528 19.6259 26.7228 19.8757 26.3645C20.1715 25.9085 20.7236 25.6674 21.2559 25.6609C21.9264 25.6414 22.5508 25.902 23.1489 26.156C23.2606 26.0518 23.4118 25.9671 23.4512 25.8173C23.4841 25.6544 23.5038 25.485 23.5104 25.3157C23.563 24.1626 23.6221 23.0095 23.6813 21.8564C23.6813 21.6218 23.7207 21.3873 23.6813 21.1528C23.5564 20.9313 23.3461 20.7749 23.1686 20.6056C22.8202 20.3059 22.5047 19.9801 22.1498 19.687C22.0315 20.0909 22.0118 20.5078 21.9395 20.9183M2.22806 21.5176C1.50507 21.9801 0.992399 22.7033 0.65062 23.472C0.506021 23.8043 0.486303 24.1756 0.460013 24.5404C0.407431 25.257 0.506021 26.0062 0.854373 26.6446C1.32761 27.5241 2.18205 28.1495 3.08908 28.5404C3.49659 28.0714 3.91066 27.6088 4.28531 27.1137C3.60832 26.6577 2.99706 26.0909 2.56327 25.3938C2.32008 24.9964 2.13604 24.5144 2.27407 24.0453C2.39238 23.6544 2.73416 23.3938 3.09565 23.231C3.01021 23.674 2.81303 24.0909 2.73416 24.5339C3.04964 25.0225 3.78578 24.9964 4.23273 24.6968C4.29188 24.5534 4.29188 24.3971 4.3116 24.2407C4.39704 23.1267 4.52192 22.0127 4.60079 20.8987C3.77264 20.8857 2.92476 21.0616 2.22149 21.5241M24.3254 21.3808C24.2728 21.7521 24.2531 22.13 24.2268 22.5013C24.1676 23.5567 24.069 24.6121 24.023 25.674C24.2531 25.8303 24.4897 25.9671 24.7329 26.0974C25.0089 25.8433 25.1798 25.4915 25.2061 25.1202C25.2587 24.5925 25.0352 24.0974 24.9169 23.5958C25.3376 23.8564 25.6005 24.3059 25.6136 24.801C25.6465 25.3873 25.377 25.9215 25.2456 26.4818C25.7516 26.8336 26.2512 27.1854 26.777 27.4981C27.0202 26.9183 27.1911 26.3189 27.2897 25.7C27.4277 24.8596 27.362 23.9541 26.9282 23.2114C26.3761 22.2668 25.3639 21.6805 24.332 21.3938M10.6345 28.2994C10.2073 28.3385 9.78663 28.371 9.35941 28.4036C9.35941 28.5925 9.35284 28.7815 9.34626 28.9704C9.14908 28.9834 8.9519 28.9964 8.75472 29.003C8.74158 29.3417 8.74158 29.674 8.75472 30.0127C8.94533 30.0258 9.14251 30.0388 9.33312 30.0453C9.34626 30.2016 9.35284 30.358 9.36598 30.5143C9.76691 30.5143 10.1678 30.5078 10.5622 30.5274C10.5622 30.7033 10.5622 30.8727 10.5688 31.0486C10.9631 31.0616 11.3575 31.0225 11.7453 31.0681C12.0345 31.2701 12.2185 31.6088 12.534 31.7782C13.2307 31.8043 13.934 31.8238 14.6373 31.8043C14.8542 31.6544 15.0053 31.4264 15.2222 31.2701C15.6889 31.244 16.1621 31.3157 16.6354 31.3157C16.6354 31.1398 16.6419 30.9639 16.6419 30.7945C18.0419 30.8271 19.4419 30.8792 20.8419 30.9248C20.8419 30.4492 20.8419 29.9671 20.8419 29.4916C20.5132 29.4134 20.1452 29.3743 19.8823 29.1398C19.6193 28.9052 19.5208 28.5404 19.4287 28.2082C19.1921 28.1821 18.9095 28.1821 18.7386 27.9932C18.4691 27.7 18.4691 27.2766 18.4428 26.9117C17.7593 26.8336 17.0757 26.7619 16.3987 26.6772C16.379 24.9964 16.379 23.3157 16.3659 21.6349C14.5255 21.6153 12.6852 21.5893 10.8448 21.5697C10.7594 23.8173 10.7068 26.0583 10.6345 28.3059M20.3358 26.5013C20.0137 26.8922 19.7968 27.4069 19.8625 27.9215C19.9217 28.345 20.2569 28.6707 20.6381 28.8336C20.9667 28.5013 21.2494 28.13 21.5517 27.7717C21.8475 27.4003 22.1695 27.0551 22.4456 26.6772C21.9264 26.0909 20.9273 25.9541 20.3358 26.5078M23.6944 26.3124C22.9583 27.1007 22.2221 27.8955 21.4794 28.6837C21.4071 28.7749 21.2757 28.8727 21.3217 29.0095C21.4466 29.5046 21.3677 30.0192 21.3677 30.5274C21.3677 31.1788 21.3677 31.8303 21.394 32.4818C21.394 32.788 21.5846 33.0746 21.8212 33.2635C22.2353 33.5762 22.9057 33.1788 22.8925 32.6837C22.8991 32.2929 22.8794 31.9085 22.8991 31.5176C22.9977 31.5046 23.1029 31.4981 23.2015 31.4915C23.254 32.0974 23.1423 32.7033 23.2212 33.3091C23.3789 33.4785 23.5892 33.5958 23.8193 33.6284C24.2071 33.6935 24.5686 33.3808 24.6606 33.029C24.746 32.6642 24.7197 32.2863 24.8118 31.9215C24.8906 31.8694 24.9826 31.902 25.0681 31.915C25.0878 32.4101 25.0615 32.9052 25.0812 33.4003C25.4559 33.7196 26.0671 33.5632 26.284 33.1398C26.5404 32.586 26.4615 31.9671 26.4812 31.3743C26.4812 31.0811 26.6718 30.8401 26.8033 30.5925C27.1122 30.0323 27.4408 29.485 27.73 28.9117C27.0399 28.4557 26.3498 28.0192 25.6531 27.5697C24.9958 27.1528 24.3517 26.7098 23.6813 26.3124M2.47782 30.143C2.93134 30.5339 3.43743 30.8596 3.90409 31.2179C3.95667 31.2701 4.03555 31.3091 4.04212 31.3873C4.07498 31.7717 4.04212 32.156 4.04212 32.5404C4.04212 32.7098 4.04212 32.8987 4.15385 33.042C4.37075 33.3352 4.96886 33.1919 4.94915 32.801C4.96886 32.3124 4.92943 31.8173 4.96229 31.3287H5.21205C5.25806 31.7977 5.21205 32.2668 5.25149 32.7358C5.25149 32.8727 5.32379 32.9964 5.43552 33.0811C5.82331 33.4069 6.58574 33.1398 6.58574 32.6056C6.60546 32.2342 6.59889 31.8629 6.63832 31.4981L6.84865 31.4655C6.92095 31.9215 6.85522 32.3841 6.92095 32.8401C7.17071 33.3026 8.06459 33.1593 8.07117 32.6056C8.1106 31.2766 8.15004 29.9541 8.1829 28.6251C8.21576 28.4101 8.01201 28.2994 7.88056 28.1821C7.17071 27.6284 6.48058 27.0486 5.77073 26.4948C4.65995 27.7 3.56231 28.9117 2.47125 30.1365M1.95201 29.003C1.137 30.814 0.722919 32.8987 1.31446 34.8336C1.69567 36.1104 2.55012 37.1919 3.70691 37.8694C4.33132 38.2538 5.04116 38.4362 5.75101 38.6056C5.62613 38.9964 5.44867 39.3613 5.29093 39.7391C4.92943 40.5795 4.5745 41.4199 4.21958 42.2603C3.91066 43.016 3.55574 43.7521 3.27969 44.5209C5.33036 44.5795 7.38761 44.599 9.43828 44.6251C9.56973 44.358 9.68804 44.0844 9.78663 43.8043C10.3585 42.3515 10.9369 40.8987 11.5087 39.4525C11.627 39.1398 11.8373 38.814 11.7059 38.4753C11.5087 37.8368 11.3772 37.1854 11.1537 36.5534C10.8843 36.5013 10.6148 36.4427 10.3387 36.3841C10.1481 34.6577 10.0364 32.9248 9.84579 31.1984C9.42514 31.0876 8.99134 31.016 8.55097 30.9834C8.43924 31.674 8.43266 32.371 8.3275 33.0616C8.26834 33.4134 7.88056 33.5893 7.5585 33.6153C7.23644 33.6674 6.94067 33.5046 6.66461 33.3678C6.43457 33.5046 6.19795 33.674 5.91533 33.6674C5.65899 33.6544 5.42895 33.5111 5.20548 33.4069C4.98858 33.5241 4.77168 33.6674 4.52192 33.7C4.17357 33.7261 3.87123 33.4525 3.7332 33.1593C3.56889 32.6837 3.68062 32.1495 3.50973 31.6805C2.97735 31.1072 2.28064 30.6902 1.76797 30.0909C2.0506 29.7065 2.39238 29.3613 2.675 28.9834C2.51069 28.8596 2.33322 28.7424 2.14919 28.6381C2.07032 28.7619 2.00459 28.8857 1.93886 29.016M26.9084 31.2896C26.8296 31.8889 26.8361 32.5078 26.639 33.0876C26.5207 33.4459 26.2775 33.8108 25.8831 33.9085C25.5216 34.0323 25.1601 33.8694 24.7986 33.8694C24.5357 33.9867 24.3057 34.2277 23.9902 34.2147C23.5827 34.2277 23.2606 33.9476 22.9385 33.7391C22.531 33.8694 22.0644 34.0257 21.6634 33.8043C21.3348 33.6088 21.0128 33.2831 20.9996 32.8792C20.9667 32.4231 21.0128 31.9671 20.9667 31.5111C19.7902 31.4916 18.6072 31.4003 17.4306 31.4329C17.0297 33.1788 16.7011 34.9378 16.2739 36.6772C15.9189 36.6902 15.564 36.6772 15.2091 36.7098C15.0776 37.2049 14.9856 37.713 14.8607 38.2082C14.7819 38.5209 14.6767 38.8596 14.8016 39.1788C15.0513 39.8694 15.2551 40.573 15.5311 41.257C15.9847 41.27 16.4382 41.231 16.8983 41.2244C17.6738 41.2049 18.4428 41.2114 19.2184 41.1723C20.3358 41.1267 21.4531 41.1593 22.5705 41.0746C22.4653 40.4166 22.2353 39.7912 22.1104 39.1332C22.6165 39.0551 23.1357 39.0095 23.6353 38.8792C24.7723 38.6056 25.8897 38.0844 26.6784 37.2114C27.4343 36.3906 27.8155 35.2766 27.7892 34.1756C27.7629 33.1593 27.4803 32.1365 26.915 31.2831M10.6345 31.7065C10.7068 33.1658 10.7923 34.6251 10.8711 36.0844C12.5209 36.0974 14.1772 36.1365 15.8335 36.143C16.057 34.7163 16.3199 33.2961 16.5236 31.8694C16.1687 31.8564 15.8138 31.8499 15.4588 31.8368C15.3865 31.9997 15.3208 32.1691 15.2485 32.3385C14.1509 32.3254 13.0532 32.3189 11.9556 32.3059C11.811 32.0844 11.6664 31.8629 11.5152 31.6414C11.226 31.6609 10.9303 31.687 10.6411 31.7065M28.2756 33.2896C28.2427 33.5828 28.269 33.8824 28.2558 34.1756C28.2098 35.3026 27.9272 36.4622 27.2239 37.3678C26.5667 38.2407 25.5742 38.801 24.5423 39.1267C24.0296 39.2961 23.4841 39.3873 22.978 39.5828C23.07 40.0974 23.2409 40.5925 23.3855 41.1007C24.6869 41.0876 25.9883 41.0811 27.2897 41.042C27.9403 41.0029 28.6173 40.7098 28.9854 40.1495C29.3732 39.5828 29.4521 38.8792 29.4521 38.2082C29.4126 36.7684 28.992 35.3808 28.5516 34.0257C28.4662 33.7717 28.407 33.5111 28.2756 33.2831M11.8242 36.6186C11.949 37.1267 12.1068 37.6218 12.258 38.1235H14.2758C14.3809 37.6088 14.4795 37.1007 14.5781 36.586C13.6579 36.5925 12.7378 36.6056 11.8242 36.6186ZM12.4354 38.6707C12.6063 39.3287 12.7641 39.9867 12.9481 40.6446H13.75C13.9274 39.9867 14.0917 39.3287 14.2626 38.6707H12.4354ZM20.4541 41.8433C18.9029 41.8629 17.3518 41.8955 15.8072 41.928C16.1556 42.8792 16.4908 43.8368 16.8523 44.7815C17.8973 44.8075 18.9424 44.8336 19.994 44.8336C21.3085 44.8401 22.6296 44.8727 23.9442 44.8531C23.8719 44.573 23.7798 44.2929 23.6747 44.0192C23.4184 43.2896 23.1817 42.5469 22.9254 41.8173C22.1038 41.7782 21.2757 41.8303 20.4541 41.8499M15.1434 42.5209C15.0711 42.7293 14.979 42.9704 15.1039 43.1723C15.1762 43.3157 15.3471 43.3482 15.4851 43.3938C15.3997 43.0942 15.3011 42.788 15.1368 42.5143L15.1434 42.5209Z" fill="#162E86"/>
<path d="M24.4896 0.345229C25.436 0.175848 26.4351 0.762167 26.7637 1.65467C26.9938 2.26705 26.928 2.95109 26.5797 3.50484C25.9684 4.47552 24.6736 4.76868 23.6943 4.16282C23.5497 4.07161 23.4182 3.96738 23.3065 3.85011C22.4981 3.02275 22.5244 1.70028 23.3591 0.905489C23.668 0.605815 24.0624 0.41689 24.4896 0.345229ZM24.4239 0.5993C23.4182 0.820799 22.7873 1.80451 23.0107 2.80125C23.0567 3.00972 23.1422 3.20516 23.2539 3.38106C23.6811 4.07813 24.6079 4.41689 25.39 4.14979C26.2511 3.88269 26.8294 2.93806 26.6388 2.05858C26.4811 1.07487 25.4032 0.351743 24.4239 0.5993Z" fill="#162E86"/>
<path d="M24.0032 1.36152C24.4436 1.38106 24.8839 1.32243 25.3177 1.40712C25.7318 1.49181 25.8501 2.09116 25.5543 2.35826C25.4492 2.44946 25.3112 2.48855 25.1863 2.54067C25.4886 2.81428 25.6924 3.17259 25.8961 3.51787C25.7712 3.51787 25.6529 3.51787 25.5281 3.49832C25.3243 3.23122 25.1929 2.91852 24.9497 2.67748C24.7788 2.50809 24.5093 2.57976 24.2924 2.57324C24.2924 2.88595 24.2924 3.19865 24.2924 3.51787H23.9966C23.9966 2.80125 23.9966 2.08464 23.9966 1.36803M24.2924 2.30614C24.5947 2.30614 24.9037 2.34523 25.1994 2.26054C25.4821 2.18236 25.4821 1.72634 25.1994 1.64816C24.9037 1.5765 24.5947 1.6221 24.2924 1.60907V2.30614Z" fill="#162E86"/>
<path d="M12.3959 8.60582C12.7048 8.51461 13.0268 8.84686 12.9085 9.15305C12.8297 9.44621 12.4024 9.55044 12.1987 9.32243C11.9555 9.10744 12.0804 8.66445 12.3959 8.60582Z" fill="#162E86"/>
<path d="M10.4241 12.3127C10.5489 12.2214 10.7133 12.3517 10.7396 12.482C10.6673 12.8078 10.5358 13.1205 10.5358 13.4592C10.4964 14.2866 10.9565 15.0358 11.502 15.6221C11.6466 15.7263 11.64 16 11.4363 16.026C11.1273 16.0651 10.9236 15.7915 10.7461 15.5895C10.1414 14.8729 9.83252 13.8697 10.0757 12.9511C10.148 12.7231 10.2335 12.4755 10.4175 12.3192L10.4241 12.3127Z" fill="#162E86"/>
<path d="M53.1793 29.7263C53.2779 29.4853 53.383 29.2508 53.4948 29.0228C53.83 29.1726 54.1389 29.3941 54.4938 29.4983C54.8224 29.355 55.1379 29.1726 55.46 29.0228C55.5652 29.2573 55.6703 29.4918 55.7755 29.7263C55.3417 29.9934 54.9079 30.2605 54.4807 30.5276C54.0403 30.2671 53.6065 29.9934 53.1793 29.7263Z" fill="#162E86"/>
<path d="M48.6113 30.7687C49.4 30.6254 50.261 30.8013 50.8986 31.2964C51.8976 32.0586 52.1342 33.5374 51.6084 34.6384C51.2929 35.3094 50.6488 35.798 49.9324 35.9739C48.9399 36.2215 47.7766 35.9869 47.0864 35.2052C46.1597 34.1628 46.232 32.3843 47.2639 31.4332C47.6385 31.0879 48.1052 30.8599 48.6113 30.7687ZM48.9925 32.4234C48.2235 32.5602 48.0066 33.6482 48.5127 34.1693C48.861 34.5407 49.5315 34.5146 49.8469 34.1172C50.1361 33.7524 50.1361 33.1987 49.8929 32.8078C49.7023 32.5081 49.3474 32.3517 48.9991 32.4234H48.9925Z" fill="#162E86"/>
<path d="M68.8551 30.7687C69.6438 30.6254 70.5048 30.8013 71.1424 31.2964C72.1414 32.0586 72.3781 33.5374 71.8522 34.6384C71.5368 35.3094 70.8926 35.798 70.1762 35.9739C69.1837 36.2215 68.0204 35.9869 67.3302 35.2052C66.4035 34.1628 66.4758 32.3843 67.5077 31.4332C67.8823 31.0879 68.3556 30.8599 68.8551 30.7687ZM69.2363 32.4234C68.4673 32.5602 68.2439 33.6482 68.7565 34.1693C69.1049 34.5407 69.7687 34.5146 70.0908 34.1172C70.38 33.7524 70.38 33.1987 70.1368 32.8078C69.9462 32.5081 69.5912 32.3517 69.2429 32.4234H69.2363Z" fill="#162E86"/>
<path d="M80.4887 31.342C80.962 30.8859 81.6521 30.6905 82.3028 30.7231C82.9798 30.7491 83.6896 30.9771 84.13 31.5114C84.807 32.3517 84.7084 33.6482 84.0314 34.456C83.5976 34.9837 83.1244 35.4788 82.6709 35.9934C81.8821 36 81.0868 35.9934 80.2915 35.9934C80.7714 35.5244 81.2775 35.0879 81.7573 34.6188C81.2775 34.6775 80.7516 34.5732 80.423 34.2084C79.7132 33.4267 79.7132 32.0781 80.4887 31.342ZM82.0662 32.2605C81.5338 32.443 81.5469 33.2899 82.0662 33.4853C82.454 33.6547 82.8746 33.2638 82.8418 32.8729C82.8746 32.482 82.4605 32.0781 82.0662 32.2605Z" fill="#162E86"/>
<path d="M85.6811 31.342C86.1544 30.8859 86.8445 30.6905 87.4952 30.7231C88.1722 30.7491 88.882 30.9771 89.3224 31.5114C89.9994 32.3517 89.9008 33.6482 89.2238 34.456C88.79 34.9837 88.3168 35.4788 87.8633 35.9934C87.0745 36.0065 86.2793 35.9934 85.484 35.9934C85.9638 35.5244 86.4699 35.0879 86.9497 34.6188C86.4699 34.6775 85.944 34.5732 85.6154 34.2084C84.9056 33.4267 84.9056 32.0781 85.6811 31.342ZM87.2586 32.2605C86.7262 32.443 86.7393 33.2899 87.2586 33.4853C87.6464 33.6547 88.067 33.2638 88.0342 32.8729C88.067 32.482 87.6529 32.0781 87.2586 32.2605Z" fill="#162E86"/>
<path d="M32.6463 30.7882H37.2208C36.511 32.0065 35.788 33.2117 35.0847 34.4299C35.7223 34.3648 36.3664 34.4169 37.0039 34.3973C37.0039 34.9315 37.0039 35.4657 37.0039 36H32.219C32.8106 34.9837 33.4021 33.9609 33.9871 32.9446C34.112 32.7231 34.2697 32.5211 34.4143 32.3192C33.8228 32.3908 33.2312 32.3452 32.6397 32.3583C32.6397 31.8371 32.6397 31.3159 32.6397 30.7947L32.6463 30.7882Z" fill="#162E86"/>
<path d="M38.9363 30.7882C39.6002 30.7882 40.264 30.7752 40.9278 30.7882C41.4996 32.5276 42.0912 34.254 42.6696 35.9934C42.0386 35.9934 41.4076 35.9934 40.7767 35.9934C40.7241 35.7785 40.6715 35.5635 40.6189 35.3485C40.172 35.3485 39.7185 35.342 39.2715 35.3485C39.2255 35.5635 39.1795 35.7785 39.1269 35.9934H37.234C37.8058 34.2605 38.3711 32.5211 38.9429 30.7882M39.5936 34.1107H40.2968C40.172 33.5765 40.0602 33.0423 39.9551 32.5081C39.771 33.0228 39.7185 33.5765 39.6001 34.1042L39.5936 34.1107Z" fill="#162E86"/>
<path d="M42.9325 30.7882C43.5306 30.7882 44.1221 30.7882 44.7203 30.7882C44.7203 31.9609 44.7203 33.1335 44.7203 34.2996C45.2132 34.3061 45.7127 34.2996 46.2122 34.2996V35.9934H42.9325V30.7817V30.7882Z" fill="#162E86"/>
<path d="M56.8731 30.7882C56.1633 32.0065 55.4403 33.2117 54.737 34.4299C55.3746 34.3648 56.0187 34.4169 56.6562 34.3973C56.6562 34.9315 56.6562 35.4657 56.6562 36H51.8713C52.4563 34.9967 53.0347 33.9869 53.6131 32.9837C53.7511 32.7557 53.9023 32.5276 54.0666 32.3127C53.4751 32.3843 52.8835 32.3387 52.292 32.3517C52.292 31.8306 52.292 31.3094 52.292 30.7882H56.8731Z" fill="#162E86"/>
<path d="M57.1689 30.7882C58.2731 30.7882 59.3707 30.7882 60.4749 30.7882V32.1563H58.9632V32.6775H60.3435V34.0456H58.9632V34.6319H60.5275V35.9934C59.4102 35.9934 58.2862 35.9934 57.1689 35.9934C57.1689 34.2605 57.1689 32.5211 57.1689 30.7882Z" fill="#162E86"/>
<path d="M61.2439 30.7882C61.8158 30.7882 62.3876 30.7882 62.966 30.7882C63.3801 31.5309 63.7941 32.2801 64.2017 33.0228C64.3134 33.2443 64.4383 33.4592 64.5829 33.6612C64.5697 33.2443 64.4514 32.8338 64.458 32.4169V30.7882C65.0298 30.7882 65.6016 30.7882 66.18 30.7882C66.18 32.5211 66.18 34.2605 66.18 35.9934C65.6016 35.9934 65.0232 36.0065 64.4514 35.9934C63.9256 35.0749 63.4195 34.1433 62.8608 33.2377C63.0186 34.1498 62.9594 35.0749 62.966 36C62.3942 36 61.8223 36 61.2505 36C61.2505 34.2671 61.2505 32.5342 61.2505 30.7947L61.2439 30.7882Z" fill="#162E86"/>
<path d="M76.2099 30.8664C77.0512 30.8403 77.8991 30.8078 78.7404 30.7817V35.9934H76.9592C76.9592 34.8273 76.9592 33.6612 76.9592 32.4951C76.7029 32.5146 76.4531 32.5276 76.1968 32.5472C76.1968 31.9869 76.1968 31.4267 76.1968 30.8729L76.2099 30.8664Z" fill="#162E86"/>
<path d="M90.6041 30.8664C91.4454 30.8403 92.2932 30.8078 93.1345 30.7817V35.9934H91.3534C91.3534 34.8273 91.3534 33.6612 91.3534 32.4951C91.097 32.5146 90.8473 32.5276 90.5909 32.5472C90.5909 31.9869 90.5909 31.4267 90.5909 30.8729L90.6041 30.8664Z" fill="#162E86"/>
<path d="M51.2075 38.2801C52.4957 37.0293 54.5727 36.7817 56.1896 37.5179C56.1896 38.5146 56.2027 39.5179 56.1896 40.5146C55.8346 40.2084 55.4469 39.9153 54.9736 39.8241C54.461 39.6938 53.8694 39.7719 53.4619 40.1172C53.0873 40.4299 52.9164 40.9381 52.9427 41.4201C52.9295 41.9478 53.2056 42.4951 53.6854 42.7361C54.0074 42.912 54.3952 42.925 54.7567 42.8859C55.3154 42.7947 55.8084 42.482 56.2553 42.1563C56.2422 43.1726 56.183 44.1889 56.1698 45.2117C55.6309 45.4071 55.0788 45.583 54.5004 45.5765C54.0732 45.5765 53.6328 45.596 53.2187 45.4853C52.1277 45.2638 51.1681 44.5602 50.5699 43.6351C49.5512 41.9804 49.7878 39.6351 51.2141 38.2931L51.2075 38.2801Z" fill="#162E86"/>
<path d="M89.0398 37.2833C89.9862 37.2833 90.9327 37.2833 91.8792 37.2833C91.912 38.4104 91.866 39.5374 91.8989 40.671C92.5101 39.6026 93.0688 38.5016 93.6604 37.4267C93.7261 37.2638 93.9233 37.2964 94.0613 37.2899C95.0406 37.2964 96.0265 37.2899 97.0058 37.2964C96.8152 37.7394 96.5195 38.1172 96.2829 38.5342C95.7242 39.4527 95.1458 40.3583 94.5937 41.2833C95.5073 42.6514 96.4537 43.9934 97.3608 45.368C96.1843 45.3811 95.0077 45.3745 93.8312 45.368C93.1871 44.2736 92.5693 43.1596 91.8989 42.0781C91.8726 43.1791 91.8989 44.2801 91.8857 45.3745H89.0332C89.0332 42.671 89.0266 39.9739 89.0398 37.2833Z" fill="#162E86"/>
<path d="M33.1852 37.3289C33.3167 37.2964 33.4547 37.2833 33.5927 37.2833C34.342 37.2833 35.0847 37.2833 35.834 37.2833C35.972 37.2833 36.1035 37.3029 36.2349 37.3289C36.5701 38.6449 37.0434 39.9283 37.2734 41.2703C37.2866 41.342 37.3194 41.4071 37.372 41.4592C37.6152 40.039 38.0884 38.6644 38.5222 37.2899C39.3307 37.2768 40.1457 37.2899 40.9541 37.2899C41.1447 37.2899 41.3288 37.2899 41.5128 37.3224C41.8743 39.5179 42.2161 41.7068 42.5644 43.9022C42.6236 44.3908 42.7485 44.8794 42.7813 45.3745C41.8283 45.3745 40.8818 45.3745 39.9288 45.3745C39.7645 43.9087 39.587 42.4429 39.4621 40.9706C39.0743 42.4495 38.6208 43.9087 38.1739 45.3745C37.5955 45.3745 37.0171 45.3745 36.4321 45.3745C36.0049 43.9348 35.5382 42.5081 35.1702 41.0553C35.0519 41.4136 35.0913 41.798 35.0387 42.1628C34.9007 43.2312 34.8152 44.2996 34.6772 45.368C33.8096 45.3811 32.942 45.368 32.0744 45.368C32.0744 44.8078 32.0481 44.2475 32.0942 43.6872C32.3505 42.2019 32.6068 40.7166 32.8566 39.2312C32.9683 38.5993 33.0866 37.9674 33.1721 37.3289H33.1852Z" fill="#162E86"/>
<path d="M43.6029 37.2833C45.2198 37.2768 46.8367 37.2833 48.4535 37.2833C48.6441 37.2833 48.8282 37.2833 49.0122 37.3094C49.0122 38.039 49.0122 38.7687 49.0122 39.4983C48.1578 39.5048 47.3033 39.4983 46.4489 39.4983C46.4489 39.7459 46.4489 40 46.4489 40.2475C47.2179 40.2475 47.9869 40.2475 48.7625 40.2475C48.7625 40.9446 48.7625 41.6351 48.7625 42.3257C47.9935 42.3387 47.2179 42.3257 46.4489 42.3257V43.1335C47.323 43.1465 48.1972 43.127 49.0648 43.1465C49.0845 43.8827 49.0779 44.6189 49.0648 45.355H43.5963C43.5963 42.6645 43.5963 39.9739 43.6095 37.2768L43.6029 37.2833Z" fill="#162E86"/>
<path d="M57.4647 37.2964C58.0299 37.2703 58.5952 37.2964 59.1604 37.2833C59.5679 37.2899 59.9754 37.2638 60.3764 37.3029C60.3764 38.1954 60.3764 39.0879 60.3764 39.9869C60.9613 39.9869 61.5463 39.9869 62.1247 39.9869C62.1378 39.0944 62.1247 38.1954 62.1313 37.3029C62.6045 37.2638 63.0843 37.2899 63.5575 37.2833C64.0505 37.2899 64.5434 37.2638 65.0364 37.3029C65.0364 39.9869 65.0364 42.6775 65.0364 45.3615C64.0636 45.3615 63.0974 45.3615 62.1247 45.3615C62.1181 44.4234 62.1378 43.4788 62.1181 42.5407C61.5331 42.5407 60.9482 42.5407 60.3698 42.5407C60.3698 43.4853 60.3764 44.4234 60.3698 45.3615C59.397 45.3615 58.4177 45.3615 57.4384 45.3615C57.4187 43.0879 57.4384 40.8143 57.4318 38.5407C57.4449 38.1237 57.4121 37.7068 57.4581 37.2964H57.4647Z" fill="#162E86"/>
<path d="M68.2767 37.583C68.3359 37.4788 68.3359 37.2833 68.4936 37.2899C69.4335 37.2703 70.38 37.2899 71.3264 37.2768C71.4447 37.2833 71.6222 37.2508 71.6682 37.3941C72.6081 40.0456 73.5414 42.697 74.4682 45.355C73.4165 45.355 72.3583 45.368 71.3067 45.355C71.2344 45.0228 71.149 44.697 71.0701 44.3713C70.3405 44.3583 69.6044 44.3648 68.8748 44.3713C68.8025 44.7035 68.7039 45.0293 68.6382 45.3615C67.5932 45.3745 66.5481 45.3615 65.503 45.3615C66.4035 42.7622 67.3631 40.1824 68.2767 37.583ZM69.8804 40.3778C69.7753 41.0684 69.5452 41.7329 69.3941 42.4104C69.7819 42.4104 70.1631 42.4169 70.5509 42.4104C70.3471 41.6091 70.0908 40.8078 69.9922 39.9804C69.9396 40.1042 69.9002 40.2345 69.8804 40.3713V40.3778Z" fill="#162E86"/>
<path d="M74.8954 37.3029C75.7893 37.2638 76.6766 37.2964 77.5705 37.2833C77.7808 37.2573 77.8597 37.4853 77.9583 37.6286C78.7075 38.8794 79.4371 40.1498 80.2127 41.3811C80.1469 40.4364 80.1732 39.4853 80.1667 38.5342C80.1667 38.1172 80.1535 37.7003 80.1798 37.2833C81.1131 37.2703 82.0464 37.2768 82.9798 37.2833C82.9929 39.9739 82.9929 42.671 82.9798 45.3615C82.0202 45.3615 81.054 45.3615 80.0944 45.3615C79.4305 44.241 78.7667 43.1205 78.0963 42.0065C77.9714 41.7719 77.8334 41.557 77.6691 41.3485C77.7545 42.684 77.7019 44.0325 77.7151 45.368H74.8954C74.8954 42.6775 74.8954 39.9934 74.8954 37.3029Z" fill="#162E86"/>
<path d="M84.5112 37.2833C85.4971 37.2768 86.483 37.2703 87.4689 37.2833C87.482 39.9739 87.4689 42.6644 87.4689 45.355H84.5046C84.4915 42.6644 84.4915 39.9739 84.5046 37.2833H84.5112Z" fill="#162E86"/>
<path d="M99.2141 37.3029C99.5099 37.2443 99.8188 37.342 100.088 37.4592C100.627 37.7133 100.969 38.2866 100.982 38.8664C100.962 39.4332 100.64 39.9869 100.128 40.2475C99.8122 40.4299 99.4376 40.4495 99.0827 40.3974C98.4846 40.2671 98.0113 39.8045 97.8667 39.2182C97.7681 38.8078 97.847 38.3778 98.0705 38.0195C98.3137 37.6221 98.7475 37.3745 99.2076 37.3029M99.0235 37.5374C98.4451 37.7003 97.9982 38.2605 98.031 38.8664C98.0048 39.4853 98.4846 40.0586 99.0827 40.1954C99.5625 40.3257 100.101 40.1368 100.43 39.7719C100.93 39.2443 100.884 38.3387 100.338 37.8501C99.9963 37.5374 99.477 37.3876 99.0235 37.5374Z" fill="#162E86"/>
<path d="M98.787 38.1042C99.1222 38.0846 99.4509 38.0912 99.7861 38.1042C100.121 38.1628 100.207 38.697 99.911 38.8599C99.8452 38.899 99.7729 38.9315 99.7006 38.9641C99.911 39.1726 100.075 39.4136 100.2 39.6742H99.9373C99.7729 39.4462 99.6612 39.1726 99.4312 39.0032C99.2931 38.9902 99.1617 38.9902 99.0237 38.9902V39.6677H98.787V38.0846M99.0171 38.2736V38.7687C99.2537 38.7687 99.4903 38.7947 99.7269 38.7361C99.8452 38.6579 99.8387 38.5016 99.8124 38.3843C99.6021 38.1954 99.2866 38.2801 99.0237 38.2801L99.0171 38.2736Z" fill="#162E86"/>
<path d="M104.505 40.2215C104.992 39.8306 105.616 39.6547 106.234 39.6221C106.944 39.583 107.654 39.6807 108.324 39.9153C108.449 39.9674 108.593 39.9934 108.685 40.0977C108.475 40.6644 108.245 41.2312 108.015 41.7915C107.575 41.5504 107.115 41.2052 106.589 41.3159C106.385 41.3355 106.293 41.6416 106.497 41.7263C106.845 41.9022 107.246 41.9348 107.614 42.0586C108.048 42.1954 108.495 42.4234 108.718 42.8403C108.981 43.3159 108.929 43.9153 108.705 44.3973C108.436 44.9706 107.87 45.355 107.279 45.5504C106.687 45.7459 106.05 45.7198 105.439 45.6938C104.735 45.6156 104.052 45.4136 103.421 45.1009C103.651 44.5146 103.901 43.9283 104.157 43.3485C104.65 43.596 105.123 43.9609 105.701 43.9478C105.886 43.9543 106.129 43.8501 106.083 43.6286C106.083 43.4267 105.833 43.4202 105.688 43.355C105.117 43.2247 104.492 43.0814 104.104 42.6058C103.789 42.228 103.769 41.7003 103.848 41.2377C103.947 40.8338 104.177 40.4755 104.512 40.2215H104.505Z" fill="#162E86"/>
<path d="M117.204 39.7263C117.486 39.6221 117.789 39.6091 118.084 39.6156C118.098 40.5407 118.084 41.4658 118.084 42.3973C117.782 42.2866 117.473 42.1237 117.138 42.1693C116.868 42.2084 116.586 42.3061 116.422 42.5276C116.237 42.7622 116.205 43.0749 116.198 43.3615V45.4918C115.271 45.4918 114.345 45.4918 113.411 45.4918V39.811C114.312 39.811 115.212 39.811 116.119 39.811C116.119 40.0456 116.119 40.2801 116.132 40.5146C116.448 40.2019 116.77 39.8697 117.21 39.7329L117.204 39.7263Z" fill="#162E86"/>
<path d="M124 39.6872C125.137 39.4723 126.405 39.7524 127.227 40.5928C128.055 41.4071 128.338 42.7231 127.865 43.785C127.372 44.9902 126.057 45.7719 124.756 45.7068C123.553 45.7654 122.324 45.127 121.752 44.0651C121.272 43.1986 121.272 42.1563 121.745 41.2899C122.192 40.4495 123.053 39.8566 124 39.6872ZM124.519 41.9413C123.928 42.1563 123.927 43.153 124.499 43.3876C124.716 43.4201 124.973 43.4462 125.15 43.2899C125.433 43.0553 125.466 42.6254 125.347 42.2996C125.216 41.9739 124.848 41.8175 124.519 41.9413Z" fill="#162E86"/>
<path d="M110.329 43.0879C111.012 42.8729 111.84 43.0944 112.254 43.6938C112.557 44.1368 112.504 44.7882 112.116 45.1596C111.479 45.8631 110.237 45.8501 109.612 45.1465C109.303 44.8143 109.211 44.3387 109.369 43.9218C109.533 43.5113 109.915 43.2247 110.329 43.0879Z" fill="#162E86"/>
<path d="M118.604 43.0814C119.09 42.9381 119.616 43.0032 120.05 43.2638C120.424 43.4853 120.72 43.8892 120.707 44.3322C120.72 44.7491 120.47 45.127 120.135 45.3615C119.452 45.8566 118.393 45.7654 117.841 45.1205C117.559 44.8338 117.493 44.4039 117.578 44.026C117.723 43.557 118.144 43.2182 118.604 43.0814Z" fill="#162E86"/>
<path d="M129.843 43.0749C130.356 42.9315 130.934 43.0097 131.368 43.3224C131.69 43.5504 131.953 43.9218 131.926 44.3322C131.959 44.7622 131.683 45.153 131.335 45.3811C130.645 45.8566 129.6 45.7459 129.048 45.1074C128.745 44.7426 128.686 44.2345 128.896 43.8045C129.107 43.4462 129.442 43.1856 129.843 43.0749Z" fill="#162E86"/>
<path d="M8.10403 0.651157C8.68242 0.520864 9.28042 0.553698 9.85224 0.651418C9.8851 1.20516 9.89168 1.76542 9.87853 2.31917C9.2607 2.33871 8.64944 2.31917 8.03161 2.31266C8.03161 1.75891 8.01858 1.19839 8.10403 0.651157Z" fill="#006AB3"/>
<path d="M5.65899 1.21793C6.20453 0.989919 6.77623 0.833828 7.3612 0.762167C7.39406 1.27682 7.37434 1.79148 7.3612 2.30614C6.79595 2.31917 6.2307 2.31917 5.66545 2.30614C5.63916 1.94132 5.63916 1.5765 5.66545 1.21819L5.65899 1.21793Z" fill="#006AB3"/>
<path d="M10.6477 0.827052C11.2918 0.774935 11.9293 0.872655 12.5537 1.01598C12.5932 1.472 12.6195 1.92803 12.6195 2.39057C11.9622 2.42314 11.3049 2.41663 10.6477 2.39057C10.6148 1.8694 10.6148 1.34823 10.6477 0.827052Z" fill="#006AB3"/>
<path d="M13.3029 1.15956C13.8813 1.15305 14.4925 1.22471 14.9855 1.54393C15.0118 1.8436 15.0184 2.14979 14.9986 2.44946C14.4334 2.46901 13.8681 2.45598 13.2963 2.43643C13.2832 2.01298 13.2832 1.58301 13.2963 1.15956H13.3029Z" fill="#006AB3"/>
<path d="M15.7479 1.798C16.2409 1.94783 16.7207 2.1563 17.2005 2.34523L17.2465 2.50158C16.747 2.53415 16.2474 2.56021 15.7479 2.56021C15.7414 2.30614 15.7479 2.05207 15.7479 1.798Z" fill="#006AB3"/>
<path d="M4.54164 2.25376C4.66652 2.11695 4.79128 1.98692 4.92931 1.86314C4.92931 1.99344 4.92931 2.12373 4.92931 2.25402H4.53495L4.54164 2.25376Z" fill="#006AB3"/>
<path d="M4.04212 3.05507C4.21958 2.70327 4.67967 2.8466 4.99516 2.83357C5.01487 3.49806 5.02145 4.16907 5.04774 4.83357C4.68624 4.83357 4.32474 4.81402 3.96982 4.77494C3.76607 4.2277 3.7332 3.57624 4.04212 3.05507Z" fill="#006AB3"/>
<path d="M5.71815 2.90523C6.28997 2.88568 6.86168 2.88595 7.42692 2.90549C7.44007 3.55696 7.42693 4.20191 7.41378 4.85337C6.84196 4.87292 6.27671 4.8208 5.71146 4.78823C5.68517 4.16282 5.68517 3.5309 5.71146 2.90549L5.71815 2.90523Z" fill="#006AB3"/>
<path d="M8.09088 2.97037C8.70214 2.95083 9.3134 2.95083 9.93123 2.97037C9.95095 3.64138 9.95095 4.31891 9.93123 4.98992C9.30683 5.10718 8.65613 5.00946 8.03173 4.92477C8.01858 4.27331 8.03173 3.62184 8.09088 2.97037Z" fill="#006AB3"/>
<path d="M10.6674 2.9834C11.2983 3.01598 11.9292 3.02927 12.5668 3.05533C12.593 3.2638 12.6062 3.47226 12.593 3.68073C12.5668 4.13025 12.593 4.58627 12.5536 5.03578C11.9226 5.04881 11.2917 5.04881 10.6607 5.03578C10.641 4.35174 10.6344 3.66119 10.6607 2.97715L10.6674 2.9834Z" fill="#006AB3"/>
<path d="M13.2899 3.06158C13.8157 3.10067 14.3414 3.06836 14.8606 3.15305C14.8606 3.80451 14.8738 4.46249 14.854 5.11396C14.3085 5.12699 13.763 5.11396 13.2174 5.04881C13.1912 4.38432 13.2372 3.71982 13.2832 3.06184L13.2899 3.06158Z" fill="#006AB3"/>
<path d="M15.6626 3.18536C16.2476 3.18536 16.839 3.19865 17.424 3.23122C17.4437 3.90223 17.4305 4.57324 17.4174 5.24425C16.8258 5.27031 16.2343 5.20516 15.6493 5.16608C15.6296 4.5081 15.6362 3.8436 15.6691 3.18562L15.6626 3.18536Z" fill="#006AB3"/>
<path d="M18.1734 3.29611C18.4888 3.27005 18.8239 3.23774 19.1197 3.37454C19.3826 3.49832 19.6324 3.64165 19.8624 3.81754C19.9413 3.8892 20.053 3.96086 20.0596 4.07813C20.0925 4.46901 20.0399 4.85989 19.9939 5.24425C19.3826 5.27682 18.7714 5.25077 18.1601 5.24425C18.1404 4.5993 18.1601 3.94783 18.1798 3.30288L18.1734 3.29611Z" fill="#006AB3"/>
<path d="M20.7236 4.60555C21.0456 4.84008 21.3478 5.09441 21.637 5.36803C21.3413 5.37454 21.0455 5.36803 20.7497 5.34849C20.7234 5.10093 20.7169 4.85337 20.7234 4.61233L20.7236 4.60555Z" fill="#006AB3"/>
<path d="M4.22615 5.3352C4.5022 5.3352 4.77814 5.355 5.05419 5.39409C5.06076 5.58953 5.06734 5.78497 5.06734 5.98041C4.89645 5.96086 4.70584 5.98692 4.54809 5.89572C4.38378 5.74588 4.31148 5.5309 4.21946 5.33546L4.22615 5.3352Z" fill="#006AB3"/>
<path d="M5.73118 5.38106C6.27671 5.36803 6.82224 5.36803 7.36777 5.39409C7.41378 5.73285 7.42692 6.07161 7.41378 6.41038C6.8551 6.35174 6.29642 6.26705 5.73775 6.20191C5.71146 5.92829 5.71146 5.65468 5.73118 5.38106Z" fill="#006AB3"/>
<path d="M8.10403 5.51109C8.71529 5.49806 9.31985 5.52438 9.93111 5.58301C9.9574 6.01298 9.9574 6.44946 9.93111 6.87943C9.31985 6.78823 8.71517 6.67096 8.11048 6.54067C8.08419 6.19539 8.08431 5.85637 8.10403 5.51109Z" fill="#006AB3"/>
<path d="M10.6739 5.58927C11.3181 5.57624 11.9621 5.56998 12.5996 5.58953C12.5799 6.18888 12.5865 6.79474 12.5536 7.39409C11.9226 7.3094 11.2917 7.18562 10.6607 7.05533C10.641 6.56673 10.6541 6.07813 10.6738 5.58301L10.6739 5.58927Z" fill="#006AB3"/>
<path d="M13.165 5.66744C13.6842 5.70002 14.21 5.71305 14.7293 5.77819C14.7359 6.4492 14.7489 7.1335 14.6766 7.80451C14.1902 7.75891 13.7104 7.66119 13.2306 7.5765C13.1714 6.94458 13.1451 6.30614 13.1714 5.6677L13.165 5.66744Z" fill="#006AB3"/>
<path d="M15.5968 5.78497C16.162 5.78497 16.7273 5.78497 17.2925 5.78497C17.3319 6.38432 17.3385 6.99018 17.3056 7.58953C16.7141 7.60256 16.1226 7.58301 15.5376 7.56347C15.5245 6.96412 15.5573 6.37129 15.5968 5.77845V5.78497Z" fill="#006AB3"/>
<path d="M18.0551 5.92803C18.6795 5.90197 19.3039 5.915 19.9283 5.9606C19.948 6.56647 19.9283 7.16581 19.902 7.77168C19.2776 7.74562 18.6532 7.72608 18.0288 7.70653C17.9959 7.1137 18.0288 6.52086 18.0551 5.92803Z" fill="#006AB3"/>
<path d="M20.6577 5.97389C21.1967 5.96086 21.7422 5.97389 22.2812 5.98692C22.314 6.60582 22.3075 7.22471 22.2812 7.8436C21.7225 7.8436 21.1572 7.81754 20.5986 7.77194C20.6183 7.17259 20.638 6.56673 20.6577 5.96738V5.97389Z" fill="#006AB3"/>
<path d="M22.9581 7.05533C23.1488 7.30288 23.3065 7.56998 23.4248 7.85663C23.2671 7.85663 23.1027 7.85663 22.945 7.85663C22.9253 7.58953 22.932 7.32217 22.9583 7.06158L22.9581 7.05533Z" fill="#006AB3"/>
<path d="M17.9499 8.31239C18.5677 8.31239 19.192 8.2866 19.8098 8.37129C19.823 8.95761 19.8361 9.55044 19.8033 10.1368C19.4352 10.1628 19.0671 10.1563 18.7056 10.1172C18.4822 9.7524 18.2718 9.37454 18.0484 9.00972C17.9169 8.80125 17.9432 8.54718 17.9498 8.31917L17.9499 8.31239Z" fill="#006AB3"/>
<path d="M20.4737 8.45598C21.0324 8.42992 21.5845 8.44946 22.1431 8.46901C22.1629 9.04881 22.1563 9.62862 22.1431 10.2084C21.5845 10.228 21.0258 10.2215 20.4671 10.1889C20.4671 9.60907 20.4671 9.03578 20.4671 8.45598H20.4737Z" fill="#006AB3"/>
<path d="M22.8137 8.55995C23.0108 8.53389 23.2079 8.52112 23.4051 8.51461C23.3985 8.71005 23.4248 8.93806 23.2999 9.10744C23.1882 9.25728 22.9779 9.22471 22.8201 9.24425C22.807 9.01624 22.807 8.78823 22.8201 8.56021L22.8137 8.55995Z" fill="#006AB3"/>
<path d="M22.8201 9.86966C23.3919 9.85663 23.9638 9.87617 24.5356 9.94132C24.5356 10.0912 24.5356 10.241 24.5422 10.3908C23.9638 10.3908 23.3919 10.3452 22.8201 10.3192C22.8201 10.1693 22.8201 10.0195 22.8201 9.86966Z" fill="#006AB3"/>
<path d="M25.344 9.96086C25.8173 9.9348 26.2971 9.97389 26.7703 10.013L26.7309 10.4951C26.2642 10.4886 25.7975 10.4625 25.3309 10.4364C25.3309 10.2801 25.3375 10.1237 25.344 9.96738V9.96086Z" fill="#006AB3"/>
<path d="M19.192 10.7817C19.3629 10.7817 19.5404 10.7817 19.7112 10.7947C19.7112 10.9446 19.7112 11.1009 19.7047 11.2508C19.5075 11.127 19.3366 10.9641 19.192 10.7817Z" fill="#006AB3"/>
<path d="M20.4014 10.8534C20.9666 10.8338 21.5384 10.8925 22.1037 10.9315C22.1168 11.5179 22.0577 12.1042 22.0183 12.684C21.4267 12.684 20.8155 12.4495 20.4277 11.9934C20.3554 11.6156 20.4014 11.2312 20.4014 10.8534Z" fill="#006AB3"/>
<path d="M22.761 10.925C23.3394 10.9446 23.9178 10.9706 24.4896 11.0097C24.4633 11.5439 24.4764 12.0846 24.4041 12.6188C23.852 12.7947 23.2736 12.8534 22.7018 12.7947C22.7018 12.1758 22.7412 11.5504 22.761 10.9315V10.925Z" fill="#006AB3"/>
<path d="M25.2849 11.0814C25.6727 11.0553 26.0539 11.0553 26.4417 11.0814C26.2511 11.4527 25.9224 11.7198 25.6398 12.0195C25.5412 12.1237 25.4163 12.1954 25.2849 12.241C25.2652 11.8566 25.2652 11.4657 25.2849 11.0814Z" fill="#006AB3"/>
<path d="M5.5144 20.2212C5.76416 19.9736 6.02695 19.7394 6.303 19.5179C6.26356 20.7296 6.23727 21.9413 6.25042 23.153C7.13773 23.2377 8.03161 23.2638 8.9255 23.3224C9.32643 23.355 9.73393 23.342 10.1349 23.4136C10.1349 24.3517 10.0757 25.2833 10.0691 26.2215C10.0494 26.7231 10.0889 27.2247 10.01 27.7263C9.77337 27.7263 9.53675 27.7133 9.30671 27.7589C9.12267 27.8957 8.99122 28.0977 8.83348 28.254C8.07105 27.6547 7.32176 27.0423 6.55933 26.443C6.26356 26.2149 5.99408 25.9544 5.6786 25.7589C5.30395 26.0651 5.00818 26.4625 4.6204 26.7557C4.12087 26.5081 3.62792 26.1368 3.4176 25.6026C3.83825 25.5244 4.31148 25.5048 4.64011 25.2052C4.89645 24.9902 4.98189 24.6514 5.00161 24.3322C5.10677 23.114 5.23823 21.9022 5.34339 20.684C5.35653 20.5146 5.3894 20.3387 5.51428 20.2149L5.5144 20.2212Z" fill="#006AB3"/>
<path d="M21.9329 20.9183C22.0052 20.5078 22.0248 20.0846 22.1431 19.6873C22.4915 19.9804 22.8135 20.3127 23.1619 20.6058C23.3394 20.7817 23.5563 20.9315 23.6746 21.153C23.714 21.3876 23.6811 21.6221 23.6746 21.8566C23.6088 23.0097 23.5563 24.1628 23.5037 25.3159C23.5037 25.4853 23.484 25.6482 23.4445 25.8175C23.4051 25.9739 23.2539 26.0586 23.1422 26.1563C22.5375 25.9022 21.9131 25.6416 21.2492 25.6612C20.7169 25.6612 20.1648 25.9087 19.869 26.3648C19.6127 26.7231 19.5206 27.1596 19.4352 27.5765C19.3169 27.583 19.1986 27.5895 19.0803 27.5895C19.0474 27.1791 19.0803 26.7687 19.054 26.3583C18.3638 26.2605 17.6671 26.3127 16.977 26.2215C16.9573 25.3811 16.9573 24.5342 16.977 23.6938C18.4756 23.7524 19.9743 23.8108 21.4794 23.8564C21.6437 22.8792 21.7752 21.8955 21.9329 20.9183Z" fill="#006AB3"/>
<path d="M20.3291 26.5016C20.9206 25.9478 21.9197 26.0846 22.4389 26.671C22.1629 27.0488 21.8342 27.3941 21.545 27.7654C21.2427 28.1237 20.9666 28.4951 20.6314 28.8273C20.2502 28.6644 19.9084 28.3387 19.8558 27.9153C19.7901 27.4006 20.007 26.8859 20.3291 26.4951V26.5016Z" fill="#006AB3"/>
<path d="M1.95201 29.003C2.01116 28.8727 2.08334 28.7491 2.16222 28.6254C2.34625 28.7296 2.51714 28.8469 2.68803 28.9706C2.39883 29.355 2.06363 29.6938 1.781 30.0781C2.30024 30.671 2.99037 31.0879 3.52276 31.6677C3.69365 32.1433 3.58191 32.671 3.74623 33.1465C3.88426 33.4462 4.1866 33.7133 4.53495 33.6872C4.78471 33.6547 4.99504 33.5048 5.21851 33.3941C5.44855 33.4983 5.67202 33.6482 5.92836 33.6547C6.21098 33.6677 6.4476 33.4918 6.67764 33.355C6.95369 33.4853 7.24946 33.6547 7.57152 33.6026C7.89359 33.5765 8.28137 33.4006 8.34053 33.0488C8.44569 32.3583 8.44569 31.6612 8.564 30.9706C9.00437 31.0032 9.43159 31.0749 9.85881 31.1856C10.0494 32.912 10.1612 34.6449 10.3518 36.3713C10.6212 36.4299 10.8907 36.4886 11.1668 36.5407C11.3902 37.1726 11.5217 37.8241 11.7189 38.4625C11.8438 38.8013 11.6334 39.127 11.5217 39.4397C10.9433 40.8925 10.3715 42.3387 9.79966 43.7915C9.70107 44.0716 9.58276 44.3452 9.45131 44.6123C7.40064 44.5928 5.34339 44.5667 3.29272 44.5081C3.56877 43.7394 3.92369 43.0032 4.23261 42.2475C4.58753 41.4071 4.94903 40.5667 5.30395 39.7263C5.45512 39.3485 5.63916 38.9837 5.76404 38.5928C5.05419 38.4234 4.34434 38.241 3.71994 37.8566C2.56315 37.1791 1.7087 36.0912 1.32749 34.8208C0.729374 32.8859 1.15002 30.8013 1.95846 28.9902L1.95201 29.003Z" fill="#006AB3"/>
<path d="M26.9149 31.2899C27.4736 32.1433 27.7628 33.1661 27.7891 34.1824C27.8088 35.2833 27.4341 36.3973 26.6783 37.2182C25.8896 38.0977 24.7722 38.6123 23.6351 38.8859C23.1356 39.0097 22.6229 39.0553 22.1103 39.14C22.2352 39.7915 22.4652 40.4234 22.5704 41.0814C21.453 41.1661 20.3356 41.1335 19.2183 41.1791C18.4427 41.2117 17.6737 41.2117 16.8981 41.2312C16.4446 41.2377 15.9911 41.2768 15.531 41.2638C15.255 40.5863 15.0512 39.8762 14.8015 39.1856C14.6766 38.8664 14.7817 38.5276 14.8606 38.2149C14.9855 37.7198 15.0775 37.2117 15.209 36.7166C15.5639 36.684 15.9188 36.697 16.2737 36.684C16.701 34.9446 17.0296 33.1856 17.4371 31.4397C18.6136 31.4071 19.7967 31.4983 20.9732 31.5179C21.0192 31.9739 20.9732 32.4299 21.0061 32.8859C21.0192 33.2899 21.3347 33.6156 21.6699 33.811C22.0708 34.0325 22.5375 33.8697 22.945 33.7459C23.2671 33.9543 23.5891 34.2345 23.9966 34.2215C24.3121 34.2345 24.5356 33.9934 24.8051 33.8762C25.1666 33.8762 25.5346 34.039 25.8896 33.9153C26.2773 33.811 26.5271 33.4527 26.6454 33.0944C26.836 32.5081 26.8294 31.8957 26.9149 31.2899Z" fill="#006AB3"/>
<path d="M20.4541 41.8433C21.2757 41.8303 22.1037 41.7719 22.9253 41.811C23.1816 42.5472 23.4182 43.2833 23.6746 44.013C23.7797 44.2866 23.8652 44.5667 23.944 44.8469C22.6295 44.8729 21.3084 44.8403 19.9939 44.8273C18.9488 44.8273 17.8972 44.8078 16.8521 44.7752C16.4906 43.8306 16.1554 42.8729 15.8071 41.9218C17.3582 41.8827 18.9094 41.8501 20.454 41.8371L20.4541 41.8433Z" fill="#006AB3"/>
<path d="M2.675 6.06484C3.18767 5.8694 3.74623 6.09767 4.16031 6.41038C4.39035 6.60582 4.69927 6.5993 4.97532 6.66445C6.53304 6.96412 8.09734 7.24425 9.65506 7.55044C9.65506 7.90223 9.56304 8.28008 9.28699 8.52113C9.03066 8.7752 8.66259 8.84034 8.31423 8.8664C8.21564 9.0879 8.11706 9.3094 8.02504 9.5309C8.28794 9.90223 8.59686 10.3061 8.57714 10.7882C8.564 11.2117 8.26165 11.5439 7.95274 11.8045C7.75556 11.6416 7.56495 11.4723 7.38749 11.2899C7.32176 11.2247 7.34148 11.127 7.32833 11.0488C7.31519 10.5667 7.30204 10.0846 7.28233 9.60256C6.89454 9.59604 6.50018 9.60256 6.11239 9.59604C5.69174 9.55696 5.32367 9.83709 5.06076 10.1302C4.5941 10.7035 4.61382 11.5114 4.76499 12.1954C5.13306 13.1009 5.79033 13.9218 6.7105 14.3127C6.7105 14.5472 6.7105 14.7817 6.7105 15.0228C6.22413 15.0879 5.69831 15.0293 5.29738 14.7361C4.96217 14.5081 4.77157 14.1368 4.62697 13.7654C4.13402 13.7394 3.56219 13.6742 3.23356 13.2573C2.93122 12.8925 2.96408 12.3973 2.99695 11.9544C2.96408 11.7524 2.87864 11.5635 2.75376 11.4006C2.24109 11.3941 1.80729 11.0423 1.54439 10.6319C1.36035 10.3452 1.28805 9.96738 1.42608 9.64816C1.59039 9.22471 1.98475 8.96412 2.36597 8.74262C2.36597 8.52112 2.45141 8.26054 2.28052 8.08464C2.06363 7.81754 1.87302 7.49181 1.91245 7.14002C1.96504 6.68399 2.22794 6.22145 2.68803 6.07161L2.675 6.06484Z" fill="#EE7F01"/>
<path d="M11.9096 13.3287C11.9162 12.7358 12.409 12.1693 13.0203 12.1302C13.4935 12.0912 13.8747 12.4234 14.2954 12.5863C14.716 12.7491 15.163 12.9772 15.6296 12.9055C16.0897 12.8469 16.5432 12.6058 17.0165 12.6905C17.7526 12.9315 18.147 13.7133 18.2127 14.4299C18.1272 14.9055 17.7197 15.2638 17.2268 15.2833C16.6747 15.3224 16.1686 15.0423 15.7348 14.7296C15.4982 15.0032 15.1301 15.2052 14.7555 15.1074C14.3545 15.0097 14.1508 14.6123 13.993 14.2671C13.5724 14.4886 13.0729 14.697 12.593 14.5211C12.1132 14.3452 11.8635 13.8045 11.9029 13.3224L11.9096 13.3287Z" fill="#EE7F01"/>
<path d="M22.2352 13.342C22.6492 13.3485 23.0633 13.368 23.484 13.3745C23.4511 13.6482 23.3788 13.9348 23.1553 14.1172C22.9779 14.2801 22.7281 14.2996 22.5046 14.3192C22.5046 14.7231 22.5704 15.1465 22.4126 15.5309C22.3666 15.6938 22.176 15.6351 22.0511 15.6482C22.0971 14.8729 22.176 14.1042 22.2352 13.3355V13.342Z" fill="#EE7F01"/>
<path d="M10.4702 7.74562C11.8767 7.99969 13.2767 8.27331 14.6767 8.54041C14.7227 8.98341 15.0053 9.40034 15.4326 9.56321C16.011 9.76516 16.6025 10.0192 17.0034 10.4818C17.2532 10.7619 17.3386 11.1984 17.1217 11.5176C16.9048 11.8043 16.6419 12.0648 16.3067 12.2082C15.7152 12.4622 14.9922 12.3189 14.5124 11.902C14.2758 11.7065 14.2429 11.3808 14.0589 11.1463C13.9537 11.1723 13.8485 11.2049 13.7434 11.231C13.7105 11.3547 13.6842 11.4785 13.6579 11.6088C13.1913 11.5567 12.6983 11.5632 12.2777 11.7977C11.7913 12.0648 11.4692 12.5795 11.3706 13.1202C11.3312 13.7196 11.4758 14.4166 12.0082 14.7814C12.534 15.1332 13.211 15.0746 13.796 14.9313C13.9208 15.1919 14.0786 15.459 14.3612 15.5697C14.8673 15.7717 15.4983 15.6544 15.8795 15.2635C16.3724 15.5632 16.8983 15.8694 17.4964 15.8499C17.9236 15.8303 18.3048 15.5958 18.5086 15.2244C18.8372 14.6772 18.7715 13.9932 18.5611 13.4199C18.3771 12.9183 17.9367 12.599 17.5227 12.2863C17.7133 11.9606 17.8907 11.6088 17.917 11.2244C17.9828 10.5209 17.4964 9.8238 16.8325 9.59578C16.4447 9.45897 16.0767 9.27656 15.7415 9.04855C15.6363 8.97038 15.5509 8.86614 15.4983 8.74236C16.0307 8.69676 16.5368 8.88568 17.0494 8.99643C17.2137 9.05507 17.4569 9.04855 17.5227 9.24399C17.9696 10.1104 18.4034 11.0095 19.1133 11.7065C19.8231 12.4036 20.717 12.8466 21.6174 13.2375C21.5123 14.801 21.4005 16.358 21.2888 17.9215C19.547 19.1072 17.4964 19.8564 15.3865 19.9932C12.5209 20.1886 9.64203 19.3547 7.22329 17.8629C7.20357 16.573 7.22329 15.2831 7.21672 13.9997C6.6449 13.5828 6.05324 13.1596 5.6063 12.6058C5.27766 12.1954 5.06734 11.6547 5.19222 11.1335C5.25794 10.7557 5.47484 10.3908 5.82319 10.2149C6.0861 10.0716 6.40159 10.0521 6.69736 10.0651C6.72365 10.8664 6.74337 11.6677 6.77623 12.4755C7.38092 12.4299 8.02504 12.2996 8.4917 11.8892C8.85977 11.57 9.0438 11.0749 9.03066 10.5928C9.03066 10.1563 8.88606 9.73285 8.68231 9.34849C9.12925 9.23774 9.59591 9.0879 9.93111 8.76217C10.2203 8.49507 10.3518 8.1107 10.4701 7.75239M12.3959 8.61233C12.0804 8.67748 11.9555 9.12047 12.1987 9.32894C12.409 9.55044 12.8297 9.45272 12.9085 9.15956C13.0268 8.85989 12.7048 8.52112 12.3959 8.61233ZM10.4241 12.3192C10.2335 12.4755 10.148 12.7231 10.0823 12.9511C9.83252 13.8697 10.1414 14.8729 10.7527 15.5895C10.9302 15.798 11.1339 16.0716 11.4428 16.026C11.6466 16 11.6532 15.7263 11.5086 15.6221C10.9564 15.0358 10.4964 14.2866 10.5424 13.4592C10.5424 13.1205 10.6738 12.8078 10.7461 12.482C10.7198 12.3517 10.5555 12.2215 10.4306 12.3127L10.4241 12.3192Z" fill="#FEDB98"/>
<path d="M6.90123 18.5404C8.30121 19.4394 9.89168 20.0195 11.5151 20.3517C13.9339 20.8403 16.4972 20.7426 18.8305 19.9283C19.8098 19.6026 20.73 19.1205 21.6107 18.5993C21.4201 20.1237 21.2427 21.6547 21.0389 23.1726C19.7178 23.1987 18.3967 23.1726 17.0822 23.153C17.0493 22.469 17.0822 21.785 17.069 21.0944C15.7676 21.0488 14.4597 21.0553 13.1517 21.0097C12.1987 21.0097 11.2456 20.9511 10.286 20.9641C10.286 21.5244 10.3058 22.0912 10.2795 22.6514C9.15554 22.6579 8.02504 22.6384 6.90111 22.6254C6.88139 21.2638 6.88797 19.8957 6.90111 18.5342L6.90123 18.5404Z" fill="#56A6B0"/>
<path d="M2.22806 21.5176C2.92476 21.0616 3.77909 20.8794 4.60725 20.8925C4.52838 22.0065 4.4035 23.1205 4.31805 24.2345C4.29833 24.3843 4.29833 24.5472 4.23918 24.6905C3.79224 24.9902 3.0561 25.0162 2.74061 24.5276C2.81948 24.0846 3.01666 23.6677 3.10211 23.2247C2.74061 23.3876 2.39883 23.6547 2.28052 24.039C2.1425 24.5016 2.32653 24.9902 2.56972 25.3876C2.99695 26.0846 3.61478 26.6514 4.29176 27.1074C3.92369 27.6026 3.50304 28.0651 3.09554 28.5342C2.18193 28.1368 1.32749 27.5114 0.854255 26.6319C0.505903 25.9934 0.407313 25.2443 0.459895 24.5276C0.486185 24.1693 0.505903 23.798 0.650502 23.4592C0.998853 22.6905 1.51152 21.9674 2.22794 21.5048L2.22806 21.5176Z" fill="#56A6B0"/>
<path d="M24.3253 21.3876C25.3572 21.6742 26.3694 22.2671 26.9215 23.2052C27.3553 23.9544 27.421 24.8599 27.283 25.6938C27.1844 26.3127 27.0069 26.912 26.7703 27.4918C26.2445 27.1726 25.745 26.8208 25.2389 26.4755C25.3703 25.9153 25.6398 25.3811 25.6069 24.7947C25.5938 24.3061 25.3309 23.8566 24.9102 23.6026C25.0285 24.1042 25.252 24.5993 25.1994 25.127C25.1731 25.4983 25.0088 25.8501 24.7262 26.1042C24.483 25.9739 24.2464 25.8371 24.0163 25.6807C24.0624 24.6254 24.1609 23.57 24.2201 22.5081C24.2464 22.1302 24.2661 21.7589 24.3187 21.3876H24.3253Z" fill="#56A6B0"/>
<path d="M23.6944 26.3124C24.3648 26.7033 25.0088 27.153 25.6661 27.57C26.3562 28.013 27.0529 28.456 27.7431 28.912C27.4473 29.4788 27.1252 30.0325 26.8163 30.5928C26.6849 30.8403 26.4942 31.0814 26.4942 31.3745C26.4745 31.9609 26.56 32.5863 26.2971 33.14C26.0802 33.5635 25.4689 33.7133 25.0943 33.4006C25.068 32.9055 25.0943 32.4104 25.0811 31.9153C24.9957 31.9087 24.8971 31.8697 24.8248 31.9218C24.7328 32.2866 24.7591 32.6644 24.6736 33.0293C24.575 33.3811 24.2135 33.6938 23.8323 33.6286C23.6023 33.5895 23.3919 33.4788 23.2342 33.3094C23.1619 32.71 23.2671 32.0977 23.2145 31.4918C23.1093 31.4983 23.0107 31.5114 22.9121 31.5179C22.8924 31.9087 22.9121 32.2931 22.9056 32.684C22.9187 33.1791 22.2483 33.5765 21.8342 33.2638C21.591 33.0814 21.4136 32.7947 21.407 32.482C21.3873 31.8306 21.3741 31.1791 21.3807 30.5276C21.3807 30.0195 21.4596 29.5114 21.3347 29.0097C21.2887 28.8729 21.4136 28.7752 21.4924 28.684C22.2417 27.9022 22.9713 27.1074 23.7074 26.3192L23.6944 26.3124Z" fill="#56A6B0"/>
<path d="M2.47782 30.143C3.56889 28.9183 4.6664 27.7068 5.77719 26.5016C6.48703 27.0553 7.17716 27.6351 7.88701 28.1889C8.02504 28.3061 8.22879 28.4234 8.18935 28.6319C8.15649 29.9609 8.11706 31.2899 8.07762 32.6123C8.07762 33.1661 7.17716 33.3094 6.9274 32.8469C6.86168 32.3908 6.9274 31.9283 6.8551 31.4723L6.64478 31.5048C6.59877 31.8697 6.61191 32.241 6.5922 32.6123C6.5922 33.1465 5.83634 33.4071 5.44198 33.0879C5.33024 33.0032 5.26452 32.8794 5.26452 32.7426C5.22508 32.2736 5.26452 31.8045 5.22508 31.3355H4.97532C4.94246 31.8241 4.97532 32.3192 4.96217 32.8078C4.98189 33.1987 4.37721 33.342 4.16688 33.0488C4.04857 32.9055 4.06172 32.7166 4.05515 32.5472C4.04857 32.1628 4.08144 31.7785 4.05515 31.3941C4.05515 31.3159 3.9697 31.2703 3.91712 31.2247C3.44389 30.8664 2.93779 30.5407 2.49085 30.1498L2.47782 30.143Z" fill="#56A6B0"/>
<path d="M10.6345 28.2994C10.7068 26.0518 10.7593 23.8045 10.8447 21.5635C12.6851 21.583 14.5254 21.6091 16.3658 21.6286C16.3789 23.3094 16.3789 24.9902 16.3986 26.671C17.0822 26.7557 17.7592 26.8273 18.4427 26.9055C18.469 27.2768 18.469 27.7003 18.7385 27.9869C18.916 28.1758 19.192 28.1693 19.4286 28.2019C19.5206 28.5342 19.6127 28.8925 19.8821 29.1335C20.1516 29.3745 20.5131 29.4006 20.8417 29.4853C20.8417 29.9609 20.8417 30.443 20.8417 30.9185C19.4418 30.8794 18.0418 30.8208 16.6418 30.7882C16.6418 30.9641 16.6352 31.14 16.6352 31.3094C16.1686 31.3094 15.6953 31.2377 15.2287 31.2638C15.0118 31.4201 14.8606 31.6482 14.6437 31.798C13.947 31.811 13.2372 31.798 12.5405 31.7719C12.225 31.6091 12.0409 31.2703 11.7517 31.0618C11.364 31.0162 10.963 31.0618 10.5752 31.0423C10.5752 30.8664 10.5687 30.697 10.5687 30.5211C10.1677 30.5016 9.7668 30.5146 9.37244 30.5081C9.36586 30.3517 9.35272 30.1954 9.33957 30.039C9.14897 30.0325 8.95179 30.0195 8.76118 30.0065C8.75461 29.6677 8.74803 29.3355 8.76118 28.9967C8.95836 28.9902 9.15554 28.9772 9.35272 28.9641C9.35272 28.7752 9.35929 28.5863 9.36586 28.3973C9.78651 28.3648 10.2137 28.3387 10.641 28.2996L10.6345 28.2994Z" fill="#E2001A"/>
<path d="M10.6345 31.7065C10.9237 31.687 11.2194 31.6612 11.5086 31.6416C11.6532 31.8631 11.8043 32.0846 11.9489 32.3061C13.0466 32.3192 14.1442 32.3257 15.2418 32.3387C15.3141 32.1693 15.3799 32 15.4522 31.8371C15.8071 31.8501 16.162 31.8631 16.5169 31.8697C16.3132 33.2964 16.0503 34.7166 15.8268 36.1433C14.1771 36.1433 12.5207 36.0977 10.8644 36.0846C10.7856 34.6254 10.7067 33.1661 10.6278 31.7068L10.6345 31.7065Z" fill="white"/>
<path d="M11.8242 36.6186C12.7443 36.6055 13.6645 36.5925 14.5781 36.586C14.4795 37.1007 14.3809 37.6153 14.2758 38.1235H12.258C12.1068 37.6284 11.9556 37.1267 11.8242 36.6186Z" fill="white"/>
<path d="M12.4354 38.6707H14.2626C14.0917 39.3287 13.9274 39.9867 13.75 40.6446H12.9481C12.7706 39.9867 12.6063 39.3287 12.4354 38.6707Z" fill="white"/>
</svg>
