<svg width="151" height="17" viewBox="0 0 151 17" fill="none" xmlns="http://www.w3.org/2000/svg">
<path d="M58.6069 10.7667C58.6069 10.7667 57.8519 10.7667 56.9081 10.7667C56.3419 10.7667 55.9172 10.625 55.6813 10.3417C55.4453 10.0583 55.351 9.58611 55.351 8.925V3.63611H51.0097V9.49167C51.0097 10.9083 51.4344 11.9944 52.2366 12.6556C52.9444 13.2694 54.1241 13.5056 55.3981 13.5056C56.6722 13.5056 58.89 13.3639 58.89 13.3639H62.9481V3.63611H58.5597V10.7194L58.6069 10.7667Z" fill="#211E5F"/>
<path d="M70.1678 0.613889H65.8266V9.58611C65.8266 11.0028 66.0625 12.2306 66.5344 12.6556C67.195 13.2694 67.8085 13.4583 69.7431 13.4583L72.8103 13.3639V10.7667C71.9138 10.7667 70.7813 10.9083 70.4981 10.5778C70.0734 10.1528 70.1206 9.63333 70.1206 8.925V6.04444H72.8575V3.68333H70.1206V0.613889H70.1678Z" fill="#211E5F"/>
<path d="M84.3713 4.10833C83.2859 3.4 81.8703 3.35278 80.1716 3.35278C78.4728 3.35278 76.9628 3.44722 75.8303 4.29722C74.5563 5.24167 74.1316 6.84722 74.1316 8.59444C74.1316 10.3417 74.6034 11.8528 75.8775 12.75C77.01 13.5528 78.4728 13.6472 80.2659 13.6472C82.0591 13.6472 83.3803 13.5528 84.4656 12.75C85.7869 11.8056 86.2588 10.1528 86.2588 8.31111C86.2588 6.56389 85.7397 4.95833 84.3713 4.06111M81.6816 10.2944C81.3984 10.8139 80.8794 10.9556 80.1716 10.9556C79.4638 10.9556 78.9919 10.7667 78.7088 10.2C78.4728 9.775 78.3313 9.16111 78.3313 8.40555C78.3313 7.65 78.4728 7.17778 78.7088 6.70555C79.0391 6.13889 79.5581 6.09167 80.2659 6.09167C80.9738 6.09167 81.3984 6.18611 81.7288 6.8C81.9647 7.225 82.0591 7.79167 82.0591 8.35833C82.0591 9.16111 81.9175 9.775 81.6816 10.2472" fill="#211E5F"/>
<path d="M39.4016 0L34.0222 13.3639H38.7881L41.8553 4.01389L44.9225 13.3639H49.83L44.4035 0H39.4016Z" fill="#211E5F"/>
<path d="M151 0H146.659V13.3639H151V0Z" fill="#211E5F"/>
<path d="M142.648 4.10833C141.563 3.4 140.1 3.35278 138.401 3.35278C136.702 3.35278 135.051 3.44722 133.965 4.29722C132.691 5.24167 132.267 6.84722 132.267 8.59444C132.267 10.3417 132.738 11.8528 134.013 12.75C135.145 13.5528 136.891 13.6472 138.684 13.6472C140.477 13.6472 142.553 13.3167 143.828 12.75C143.686 12.3722 143.073 10.5778 143.073 10.5778C143.073 10.5778 141.846 10.9556 139.156 11.05C137.268 11.1444 136.278 10.5306 136.183 9.20833H144.535C144.535 9.20833 144.583 8.59444 144.583 8.26389C144.583 6.51667 144.063 4.91111 142.695 4.01389M136.183 7.41389C136.183 7.03611 136.278 6.70556 136.419 6.46944C136.749 5.71389 137.74 5.71389 138.448 5.71389C139.156 5.71389 140.053 5.85556 140.383 6.46944C140.477 6.70556 140.572 7.03611 140.572 7.41389H136.183Z" fill="#211E5F"/>
<path d="M92.865 0L87.4385 13.3639H92.2516L95.2716 4.01389L98.3388 13.3639H103.246L97.8669 0H92.865Z" fill="#211E5F"/>
<path d="M126.038 3.68333C126.038 3.68333 124.103 3.4 122.782 3.4C121.461 3.4 120.47 3.54167 119.573 4.39167C118.582 5.33611 118.11 6.89444 118.11 8.45278C118.11 10.0111 118.629 11.9944 119.762 12.8917C120.611 13.5528 121.697 13.5528 123.112 13.5528C124.528 13.5528 126.085 13.4111 126.085 13.4111H130.426V0H126.085V3.68333H126.038ZM126.038 10.7194C126.038 10.7194 125.141 10.8139 124.433 10.8139C123.726 10.8139 123.065 10.7194 122.735 10.2C122.452 9.82222 122.263 9.20833 122.263 8.54722C122.263 7.88611 122.263 7.27222 122.735 6.65833C123.112 6.18611 123.631 6.13889 124.198 6.13889C124.764 6.13889 126.038 6.23333 126.038 6.23333V10.7194Z" fill="#211E5F"/>
<path d="M115.138 4.58056C114.43 3.96667 113.439 3.68333 112.165 3.68333H104.473V13.3639H108.814V6.28056H110.513C111.032 6.28056 111.457 6.46944 111.693 6.75278C111.929 7.03611 112.023 7.50833 112.023 8.075V13.3639H116.412V7.79167C116.412 6.32778 115.987 5.24167 115.138 4.53333" fill="#211E5F"/>
<path d="M138.92 2.31389L141.987 0H135.003L138.071 2.31389H138.92Z" fill="#211E5F"/>
<path d="M19.866 4.53333L17.601 3.06944L6.41752 4.15556C6.27595 4.15556 9.81502 6.04444 9.81502 6.04444C10.1453 6.23333 10.4756 6.42222 10.9003 6.46944C11.325 6.51667 11.9385 6.32778 11.9385 6.32778L19.9131 4.53333H19.866Z" fill="#211E5F"/>
<path d="M20.5266 5.05278L11.7969 7.55556C11.6553 7.55556 14.581 8.97222 14.581 8.97222C14.581 8.97222 15.1944 9.20833 15.5719 9.25556C15.9494 9.30278 16.2797 9.11389 16.3269 9.06667L22.4613 6.18611L20.5266 5.05278Z" fill="#211E5F"/>
<path d="M29.3035 0.141667C29.1619 0.0472222 28.8316 0.0472222 28.7372 0.0472222H25.1981C25.1038 0.0472222 25.0094 0.0472222 24.915 0.188889C24.8678 0.283333 24.8678 0.377778 24.915 0.472222L26.3778 3.25833C26.3778 3.25833 26.5666 3.44722 26.8025 3.58889C27.7463 4.15556 28.69 4.72222 28.69 4.72222C28.69 4.72222 29.0675 5.00555 29.3035 4.91111C29.4922 4.81667 29.4922 4.53333 29.4922 4.53333V0.85C29.4922 0.85 29.4922 0.330556 29.3035 0.141667Z" fill="#211E5F"/>
<path d="M28.8313 6.51667C28.8313 6.51667 19.9129 0.897222 19.2523 0.519444C18.5916 0.0944445 18.4501 0 17.6007 0H-0.000232893C-0.141795 0 4.48258 2.78611 4.48258 2.78611C5.1432 3.25833 6.13414 3.21111 6.18133 3.21111C18.4029 2.36111 17.6007 2.40833 17.7423 2.40833C17.8838 2.40833 17.9782 2.40833 18.1198 2.50278C18.2613 2.59722 23.971 6.18611 23.971 6.18611L19.1579 17H25.3866C26.3304 14.7333 29.1145 7.65 29.1145 7.65C29.2088 7.41389 29.3504 7.225 29.256 6.94167C29.256 6.75278 29.1145 6.65833 28.7841 6.46944" fill="#211E5F"/>
</svg>
