<svg width="66" height="71" viewBox="0 0 66 71" fill="none" xmlns="http://www.w3.org/2000/svg">
<path d="M22.3593 56.0781C18.125 59.9375 11.6406 59.9375 7.40621 56.0781C3.96871 58.0625 -1.28128 63.8594 1.53122 68.0625C2.40622 69.2812 3.81247 70.0156 5.32809 70.0156H24.4375C25.9375 70.0156 27.3437 69.2812 28.2343 68.0625C31.0468 63.875 25.7812 58.0625 22.375 56.0781H22.3593Z" fill="#309AE0"/>
<path d="M23.4218 47.9531C23.0312 36.6094 6.68746 36.6406 6.31246 47.9531C6.68746 59.2187 23.0156 59.3125 23.4218 47.9531Z" fill="#309AE0"/>
<path d="M42.5781 47.9531C42.9843 59.3125 59.3125 59.2187 59.6875 47.9531C59.3125 36.6406 42.9687 36.6094 42.5781 47.9531Z" fill="#309AE0"/>
<path d="M58.6093 56.0781C54.375 59.9531 47.8906 59.9531 43.6562 56.0781C40.25 58.0625 34.9531 63.8594 37.7812 68.0625C38.6562 69.2812 40.0625 70.0156 41.5781 70.0156H60.6875C62.1875 70.0156 63.5937 69.2812 64.4843 68.0625C67.2968 63.875 62.0468 58.0781 58.625 56.0781H58.6093Z" fill="#309AE0"/>
<path d="M28.875 22.625H37.9531L46 29.0781C46.5468 29.5 47.3281 29.4062 47.75 28.8594C47.9218 28.6406 48.0156 28.375 48.0156 28.1094V22.625H51.2656C53.1875 22.625 54.7343 21.0625 54.75 19.1406V3.48438C54.75 1.5625 53.1875 0 51.2656 0H28.875C26.9531 0 25.3906 1.5625 25.3906 3.48438V19.1562C25.3906 21.0781 26.9531 22.625 28.875 22.6406V22.625Z" fill="#309AE0"/>
<path d="M22.9062 19.1406V11.2969H14.3906C12.6562 11.2969 11.2656 12.7031 11.2656 14.4219V27.6094C11.2656 29.3438 12.6718 30.7344 14.3906 30.7344H16.9062V35.1563C16.9062 35.8438 17.5 36.4063 18.1875 36.3906C18.4531 36.3906 18.7187 36.2969 18.9218 36.125L25.6406 30.7344H33.2187C34.9531 30.7344 36.3437 29.3281 36.3437 27.6094V25.0938H28.8593C25.5625 25.0938 22.8906 22.4219 22.8906 19.125L22.9062 19.1406Z" fill="#309AE0"/>
</svg>
