<svg width="32" height="32" viewBox="0 0 32 32" fill="none" xmlns="http://www.w3.org/2000/svg">
<path d="M15.9998 9.48926C11.6248 9.48926 8.15101 12.9148 8.09158 17.2879C8.06814 19.0126 8.59058 20.6532 9.58033 22.0201C9.59389 22.0371 9.60664 22.0548 9.61851 22.073C9.85908 22.3995 10.1263 22.7102 10.4195 23.0023C11.2455 23.8245 11.8763 24.7869 12.29 25.8337H14.0692V19.5146C13.8268 19.6103 13.563 19.6634 13.287 19.6634C12.1078 19.6634 11.1485 18.704 11.1485 17.5248C11.1485 16.3456 12.1078 15.3862 13.287 15.3862C14.4662 15.3862 15.4256 16.3456 15.4256 17.5248V25.8336H16.574V17.5248C16.574 16.3455 17.5333 15.3861 18.7125 15.3861C19.8917 15.3861 20.8511 16.3455 20.8511 17.5248C20.8511 18.7039 19.8917 19.6633 18.7125 19.6633C18.4365 19.6633 18.1728 19.6102 17.9303 19.5145V25.8336H19.7135C20.127 24.7833 20.7532 23.8197 21.5605 23.0216C21.8609 22.7246 22.1341 22.4076 22.3798 22.0741C22.3945 22.0514 22.4102 22.0295 22.4275 22.0089C23.3896 20.6743 23.9088 19.0774 23.9088 17.3981C23.9087 13.0372 20.3608 9.48926 15.9998 9.48926Z" fill="#309AE0"/>
<path d="M19.495 17.5249C19.495 17.0936 19.1442 16.7427 18.7129 16.7427C18.2815 16.7427 17.9307 17.0936 17.9307 17.5249C17.9307 17.9562 18.2815 18.3071 18.7129 18.3071C19.1442 18.3072 19.495 17.9563 19.495 17.5249Z" fill="#309AE0"/>
<path d="M12.8558 28.5299H13.3228H18.6776H19.1448C19.1625 28.0781 19.218 27.6299 19.309 27.1902H12.6943C12.7841 27.6283 12.8385 28.076 12.8558 28.5299Z" fill="#309AE0"/>
<path d="M14.001 29.9382C14.001 31.0405 14.8979 31.9374 16.0002 31.9374C17.1026 31.9374 17.9994 31.0405 17.9994 29.9382V29.8862H14.001V29.9382Z" fill="#309AE0"/>
<path d="M12.5049 17.5249C12.5049 17.9562 12.8558 18.3071 13.2871 18.3071C13.7184 18.3071 14.0693 17.9562 14.0693 17.5249C14.0693 17.0936 13.7184 16.7427 13.2871 16.7427C12.8558 16.7427 12.5049 17.0936 12.5049 17.5249Z" fill="#309AE0"/>
<path d="M24.8098 5.55075C24.5368 5.517 24.3112 5.32156 24.2388 5.05613C23.437 2.11594 20.7463 0.0625 17.6954 0.0625C15.3215 0.0625 13.0888 1.33069 11.8687 3.37206C11.71 3.63756 11.3916 3.762 11.0949 3.67469C10.5964 3.52787 10.0791 3.45344 9.55713 3.45344C6.41344 3.45344 3.86619 6.14975 4.154 9.37269C4.18 9.66419 4.01612 9.93956 3.74744 10.0556C1.50894 11.0227 0.0625 13.2229 0.0625 15.6609C0.0625 19.0264 2.80062 21.7646 6.16619 21.7646H7.8225C7.09131 20.4007 6.71381 18.8659 6.7355 17.2696C6.80463 12.1879 10.9149 8.13294 16 8.13294C21.1089 8.13294 25.2653 12.2893 25.2653 17.3983C25.2653 18.9443 24.8896 20.4307 24.1818 21.7553C28.4923 21.5549 31.9375 17.9856 31.9375 13.6263C31.9375 9.52519 28.8732 6.05344 24.8098 5.55075Z" fill="#309AE0"/>
</svg>
