<svg width="48" height="48" viewBox="0 0 48 48" fill="none" xmlns="http://www.w3.org/2000/svg">
<g clip-path="url(#clip0_4017_2925)">
<path d="M22.5938 29.625V19.9233C17.8359 20.6129 14.0625 24.6793 14.0625 29.625C14.0625 35.0522 18.5728 39.4688 24 39.4688C28.9457 39.4688 33.1055 35.7891 33.7954 31.0312H24C23.2225 31.0312 22.5938 30.4021 22.5938 29.625Z" fill="#309AE0"/>
<path d="M25.4062 19.9233V28.2188H33.7954C33.1729 23.9242 29.7004 20.5459 25.4062 19.9233Z" fill="#309AE0"/>
<path d="M24 11.3438C13.92 11.3438 5.625 19.545 5.625 29.625C5.625 39.705 13.92 48 24 48C34.08 48 42.375 39.705 42.375 29.625C42.375 19.545 34.08 11.3438 24 11.3438ZM24 42.2813C17.0208 42.2813 11.25 36.6039 11.25 29.625C11.25 22.6461 17.0208 16.9688 24 16.9688C30.9789 16.9688 36.75 22.6461 36.75 29.625C36.75 36.6039 30.9789 42.2813 24 42.2813Z" fill="#309AE0"/>
<path d="M2.40051 16.0734L4.39563 14.0782L7.17847 16.8248C8.32544 15.33 9.66394 13.9966 11.1628 12.8551L8.37268 10.1012L10.3546 8.11926C10.9039 7.56995 10.9039 6.68005 10.3546 6.13074C9.8053 5.58142 8.91541 5.58142 8.36609 6.13074L0.411987 14.0848C-0.137329 14.6342 -0.137329 15.524 0.411987 16.0734C0.961304 16.6227 1.8512 16.6227 2.40051 16.0734Z" fill="#309AE0"/>
<path d="M19.6875 5.625H21.1875V8.74109C22.11 8.61731 23.0442 8.53125 24 8.53125C24.9558 8.53125 25.89 8.61731 26.8125 8.74109V5.625H28.3125C29.8656 5.625 31.125 4.36597 31.125 2.8125C31.125 1.25903 29.8656 0 28.3125 0H19.6875C18.134 0 16.875 1.25903 16.875 2.8125C16.875 4.36597 18.134 5.625 19.6875 5.625Z" fill="#309AE0"/>
<path d="M40.8352 16.8431L43.6082 14.0819L45.5996 16.0734C46.1489 16.6227 47.0388 16.6227 47.5881 16.0734C48.1375 15.524 48.1375 14.6342 47.5881 14.0848L39.634 6.13074C39.0847 5.58142 38.1948 5.58142 37.6455 6.13074C37.0962 6.68005 37.0962 7.56995 37.6455 8.11926L39.6307 10.1045L36.853 12.8668C38.3516 14.0105 39.6893 15.3461 40.8352 16.8431Z" fill="#309AE0"/>
</g>
<defs>
<clipPath id="clip0_4017_2925">
<rect width="48" height="48" fill="white"/>
</clipPath>
</defs>
</svg>
