<svg width="48" height="41" viewBox="0 0 48 41" fill="none" xmlns="http://www.w3.org/2000/svg">
<g clip-path="url(#clip0_4017_2734)">
<path d="M37.3886 0.0488625H10.6114C4.75029 0.0488625 0 4.80086 0 10.6603V29.4094C0 35.2706 4.75029 40.0209 10.6114 40.0209H37.3886C43.2497 40.0209 48 35.2706 48 29.4094V10.6603C48 4.80086 43.2497 0.0488625 37.3886 0.0488625ZM38.472 21.5786H33.2726L29.6931 28.4614C29.4274 28.9723 28.8994 29.2929 28.3234 29.2929C27.7474 29.2929 27.2194 28.9723 26.9537 28.4631L20.2869 15.6454L17.6486 20.6426C17.3811 21.1483 16.8566 21.4637 16.284 21.4637H9.528C8.676 21.4637 7.98514 20.7729 7.98514 19.9209C7.98514 19.0689 8.676 18.378 9.528 18.378H15.3549L18.9343 11.5997C19.2017 11.094 19.7263 10.7786 20.2989 10.7786H20.304C20.8783 10.7803 21.4029 11.1009 21.6686 11.6083L28.3251 24.4054L30.9669 19.3243C31.2326 18.8134 31.7606 18.4929 32.3366 18.4929H38.4737C39.3257 18.4929 40.0166 19.1837 40.0166 20.0357C40.0166 20.8877 39.324 21.5786 38.472 21.5786Z" fill="#309AE0"/>
</g>
<defs>
<clipPath id="clip0_4017_2734">
<rect width="48" height="40.0714" fill="white"/>
</clipPath>
</defs>
</svg>
