<svg width="66" height="66" viewBox="0 0 66 66" fill="none" xmlns="http://www.w3.org/2000/svg">
<path d="M31.8438 26.973V31.8438H24.8773C24.1836 31.8438 23.6199 32.4074 23.6199 33.1012C23.6199 33.477 23.7934 33.8383 24.0824 34.084C25.2098 34.9945 25.7445 36.4398 25.4699 37.8707C25.152 39.4605 23.9234 40.6891 22.3336 41.0215C20.1367 41.5273 17.9543 40.1687 17.4484 37.9719C17.3906 37.6973 17.3473 37.4082 17.3473 37.1336C17.3473 35.9484 17.882 34.8355 18.7926 34.084C19.3273 33.6359 19.3996 32.8555 18.9516 32.3207C18.7059 32.0316 18.359 31.8582 17.9832 31.8727H8.71875V26.0914C8.71875 16.5234 16.4945 8.76211 26.0625 8.74766H31.8438V16.1766C30.543 15.4973 29.0543 15.266 27.609 15.5262C24.1836 16.1043 21.8855 19.3563 22.4637 22.7816C22.984 25.8457 25.6723 28.0715 28.7941 28.0137C29.8781 27.927 30.9332 27.5801 31.8438 27.002V26.973Z" fill="#309AE0"/>
<path d="M27.1031 34.1562H31.8437V41.0359C31.9016 41.7297 32.4941 42.25 33.1879 42.1922C33.5203 42.1633 33.8383 42.0043 34.0551 41.7586C34.85 40.848 36.0062 40.3277 37.2059 40.3277C39.4027 40.2555 41.2383 41.9898 41.3105 44.1723C41.3684 46.1668 39.952 47.8867 37.9863 48.2191C36.5266 48.5082 35.0379 47.9879 34.0695 46.8605C33.6215 46.3258 32.8266 46.2535 32.2918 46.7016C32.0027 46.9473 31.8437 47.2941 31.8437 47.6699V57.2812H26.0625C16.4945 57.2812 8.7332 49.5055 8.71875 39.9375V34.1562H15.7719C15.2805 35.0668 15.0348 36.0785 15.0348 37.1191C15.0781 40.6457 17.9832 43.4641 21.5098 43.4207C21.9434 43.4207 22.377 43.3629 22.8105 43.2762C25.3109 42.7703 27.2621 40.8047 27.7535 38.2898C28.0281 36.8879 27.7969 35.4281 27.1176 34.1562H27.1031Z" fill="#309AE0"/>
<path d="M57.2812 34.1562V39.9375C57.2812 49.5055 49.5055 57.2668 39.9375 57.2812H34.1562V49.8523C35.457 50.5316 36.9457 50.7629 38.391 50.5027C41.8164 49.9246 44.1145 46.6727 43.5363 43.2473C43.016 40.1832 40.3277 37.9574 37.2059 38.0152C36.1363 38.0152 35.0957 38.2754 34.1562 38.7812V34.1707H41.1227C41.8164 34.1707 42.3801 33.6215 42.3801 32.9277C42.3801 32.552 42.2066 32.1906 41.9176 31.9594C40.9926 31.2078 40.4578 30.0949 40.4578 28.9098C40.5156 26.6551 42.3801 24.8629 44.6348 24.9207C44.9094 24.9207 45.184 24.9641 45.4586 25.0219C47.0484 25.3398 48.2769 26.5828 48.5949 28.1727C48.8695 29.5891 48.3348 31.0488 47.2074 31.9594C46.6727 32.393 46.5859 33.1879 47.034 33.7227C47.2797 34.0117 47.6266 34.1852 48.0168 34.1852H57.2957L57.2812 34.1562Z" fill="#309AE0"/>
<path d="M50.2281 31.8438C50.9074 30.5863 51.1387 29.1266 50.8641 27.7102C50.3727 25.2098 48.4359 23.2297 45.9211 22.7238C42.4668 21.9578 39.0559 24.1402 38.2898 27.5945C38.2031 28.0137 38.1453 28.4473 38.1453 28.8809C38.1453 29.9215 38.4055 30.9332 38.8969 31.8438H34.1562V24.993C34.1562 24.2992 33.5926 23.7211 32.8988 23.7211C32.6242 23.7211 32.3496 23.8078 32.1184 23.9813C31.1789 24.834 30.0227 25.4121 28.7941 25.6723C26.5684 25.7012 24.7473 23.9379 24.7039 21.7121C24.7039 21.4086 24.7328 21.1051 24.7906 20.816C25.152 19.2406 26.4238 18.041 28.0137 17.7809C29.4734 17.5062 30.9621 18.0121 31.9305 19.1395C32.3785 19.6742 33.1734 19.732 33.7082 19.284C33.9973 19.0383 34.1562 18.6914 34.1562 18.3156V8.71875H39.9375C49.5055 8.71875 57.2668 16.4945 57.2812 26.0625V31.8438H50.2281Z" fill="#309AE0"/>
<path d="M58.4375 14.5C62.269 14.5 65.375 11.394 65.375 7.5625C65.375 3.73102 62.269 0.625 58.4375 0.625C54.606 0.625 51.5 3.73102 51.5 7.5625C51.5 11.394 54.606 14.5 58.4375 14.5Z" fill="#309AE0"/>
<path d="M7.5625 14.5C11.394 14.5 14.5 11.394 14.5 7.5625C14.5 3.73102 11.394 0.625 7.5625 0.625C3.73102 0.625 0.625 3.73102 0.625 7.5625C0.625 11.394 3.73102 14.5 7.5625 14.5Z" fill="#309AE0"/>
<path d="M58.4375 65.375C62.269 65.375 65.375 62.269 65.375 58.4375C65.375 54.606 62.269 51.5 58.4375 51.5C54.606 51.5 51.5 54.606 51.5 58.4375C51.5 62.269 54.606 65.375 58.4375 65.375Z" fill="#309AE0"/>
<path d="M7.5625 65.375C11.394 65.375 14.5 62.269 14.5 58.4375C14.5 54.606 11.394 51.5 7.5625 51.5C3.73102 51.5 0.625 54.606 0.625 58.4375C0.625 62.269 3.73102 65.375 7.5625 65.375Z" fill="#309AE0"/>
</svg>
