<svg width="48" height="48" viewBox="0 0 48 48" fill="none" xmlns="http://www.w3.org/2000/svg">
<g clip-path="url(#clip0_4017_2893)">
<path d="M47.9998 32.4844C47.9998 26.528 44.5826 21.212 39.4648 18.6262C39.3059 30.0469 30.0466 39.3062 18.626 39.4651C21.2118 44.5829 26.5277 48 32.4841 48C35.2769 48 37.9927 47.2562 40.3789 45.843L47.932 47.9323L45.8428 40.3792C47.256 37.9929 47.9998 35.2771 47.9998 32.4844Z" fill="#309AE0"/>
<path d="M36.6562 18.3281C36.6562 8.2218 28.4344 0 18.3281 0C8.2218 0 0 8.2218 0 18.3281C0 21.6218 0.876709 24.8287 2.5415 27.6442L0.0673828 36.5885L9.01208 34.1147C11.8275 35.7795 15.0344 36.6562 18.3281 36.6562C28.4344 36.6562 36.6562 28.4344 36.6562 18.3281ZM15.5156 14.0625H12.7031C12.7031 10.9607 15.2263 8.4375 18.3281 8.4375C21.4299 8.4375 23.9531 10.9607 23.9531 14.0625C23.9531 15.6368 23.2866 17.15 22.1239 18.2135L19.7344 20.4005V22.5938H16.9219V19.162L20.2251 16.1385C20.8154 15.5984 21.1406 14.8612 21.1406 14.0625C21.1406 12.5116 19.879 11.25 18.3281 11.25C16.7772 11.25 15.5156 12.5116 15.5156 14.0625ZM16.9219 25.4062H19.7344V28.2188H16.9219V25.4062Z" fill="#309AE0"/>
</g>
<defs>
<clipPath id="clip0_4017_2893">
<rect width="48" height="48" fill="white"/>
</clipPath>
</defs>
</svg>
