<svg width="48" height="42" viewBox="0 0 48 42" fill="none" xmlns="http://www.w3.org/2000/svg">
<g clip-path="url(#clip0_4017_2915)">
<path d="M34.6667 0H27.0476C26.4165 0 25.9048 0.511675 25.9048 1.14286V3.42857C25.9048 4.05975 26.4165 4.57143 27.0476 4.57143H34.6667C35.2979 4.57143 35.8095 4.05975 35.8095 3.42857V1.14286C35.8095 0.511675 35.2979 0 34.6667 0Z" fill="#309AE0"/>
<path d="M12.5715 16.762H4.95243C4.64932 16.762 4.35863 16.8824 4.14431 17.0967C3.92998 17.311 3.80957 17.6017 3.80957 17.9048C3.80957 18.2079 3.92998 18.4986 4.14431 18.7129C4.35863 18.9273 4.64932 19.0477 4.95243 19.0477H12.5715C12.8746 19.0477 13.1653 18.9273 13.3796 18.7129C13.5939 18.4986 13.7143 18.2079 13.7143 17.9048C13.7143 17.6017 13.5939 17.311 13.3796 17.0967C13.1653 16.8824 12.8746 16.762 12.5715 16.762Z" fill="#309AE0"/>
<path d="M12.1904 27.0476C12.1904 26.7445 12.07 26.4538 11.8557 26.2395C11.6413 26.0252 11.3507 25.9048 11.0475 25.9048H3.4285C3.1254 25.9048 2.83471 26.0252 2.62038 26.2395C2.40605 26.4538 2.28564 26.7445 2.28564 27.0476C2.28564 27.3507 2.40605 27.6414 2.62038 27.8558C2.83471 28.0701 3.1254 28.1905 3.4285 28.1905H11.0475C11.3507 28.1905 11.6413 28.0701 11.8557 27.8558C12.07 27.6414 12.1904 27.3507 12.1904 27.0476Z" fill="#309AE0"/>
<path d="M11.8097 30.4761H6.47635C6.17325 30.4761 5.88256 30.5965 5.66823 30.8108C5.4539 31.0251 5.3335 31.3158 5.3335 31.6189C5.3335 31.922 5.4539 32.2127 5.66823 32.4271C5.88256 32.6414 6.17325 32.7618 6.47635 32.7618H11.8097C12.1128 32.7618 12.4035 32.6414 12.6178 32.4271C12.8321 32.2127 12.9525 31.922 12.9525 31.6189C12.9525 31.3158 12.8321 31.0251 12.6178 30.8108C12.4035 30.5965 12.1128 30.4761 11.8097 30.4761Z" fill="#309AE0"/>
<path d="M12.1905 22.4761C12.1905 22.173 12.0701 21.8823 11.8557 21.668C11.6414 21.4537 11.3507 21.3333 11.0476 21.3333H1.14286C0.839753 21.3333 0.549062 21.4537 0.334735 21.668C0.120408 21.8823 0 22.173 0 22.4761C0 22.7792 0.120408 23.0699 0.334735 23.2842C0.549062 23.4986 0.839753 23.619 1.14286 23.619H11.0476C11.3507 23.619 11.6414 23.4986 11.8557 23.2842C12.0701 23.0699 12.1905 22.7792 12.1905 22.4761Z" fill="#309AE0"/>
<path d="M30.8572 24.762V11.8096C23.7152 11.8096 17.9048 17.62 17.9048 24.762C17.9048 31.904 23.7152 37.7143 30.8572 37.7143C37.9992 37.7143 43.8095 31.904 43.8095 24.762H30.8572Z" fill="#309AE0"/>
<path d="M43.3923 13.0813L44.6177 11.8558C44.7252 11.75 44.8108 11.6239 44.8694 11.4849C44.9279 11.3459 44.9584 11.1966 44.959 11.0458C44.9596 10.8949 44.9304 10.7454 44.8729 10.6059C44.8155 10.4664 44.731 10.3397 44.6243 10.233C44.5176 10.1263 44.3909 10.0418 44.2514 9.98436C44.1119 9.92691 43.9624 9.89765 43.8115 9.89826C43.6607 9.89887 43.5114 9.92935 43.3724 9.98794C43.2334 10.0465 43.1073 10.1321 43.0015 10.2396L41.7261 11.5149C39.2698 9.49153 36.297 8.19494 33.1429 7.7715V5.71436H28.5715V7.7715C25.4175 8.19477 22.4447 9.49116 19.9884 11.5144L18.7129 10.239C18.6071 10.1315 18.4811 10.0459 18.342 9.98737C18.203 9.92878 18.0538 9.8983 17.9029 9.89769C17.752 9.89707 17.6026 9.92634 17.4631 9.98379C17.3236 10.0412 17.1968 10.1257 17.0901 10.2324C16.9835 10.3391 16.899 10.4658 16.8415 10.6053C16.7841 10.7448 16.7548 10.8943 16.7554 11.0452C16.756 11.1961 16.7865 11.3453 16.8451 11.4843C16.9037 11.6234 16.9892 11.7494 17.0967 11.8552L18.3222 13.0807C15.3586 16.2481 13.7112 20.4244 13.7144 24.762C13.7144 34.2145 21.4046 41.9048 30.8572 41.9048C40.3098 41.9048 48.0001 34.2145 48.0001 24.762C48.0031 20.4246 46.3557 16.2485 43.3923 13.0813ZM30.8572 38.8572C28.0694 38.8572 25.3443 38.0305 23.0263 36.4817C20.7084 34.9329 18.9018 32.7316 17.8349 30.156C16.7681 27.5804 16.4889 24.7463 17.0328 22.0121C17.5767 19.2779 18.9191 16.7664 20.8904 14.7951C22.8616 12.8239 25.3732 11.4814 28.1074 10.9376C30.8416 10.3937 33.6757 10.6728 36.2512 11.7397C38.8268 12.8065 41.0282 14.6131 42.577 16.9311C44.1258 19.249 44.9525 21.9742 44.9525 24.762C44.9525 26.613 44.5879 28.4459 43.8795 30.156C43.1712 31.8661 42.1329 33.4199 40.8241 34.7288C39.5152 36.0377 37.9613 37.0759 36.2512 37.7843C34.5411 38.4926 32.7082 38.8572 30.8572 38.8572Z" fill="#309AE0"/>
</g>
<defs>
<clipPath id="clip0_4017_2915">
<rect width="48" height="41.9048" fill="white"/>
</clipPath>
</defs>
</svg>
