<svg width="48" height="48" viewBox="0 0 48 48" fill="none" xmlns="http://www.w3.org/2000/svg">
<g clip-path="url(#clip0_4017_2731)">
<path d="M45.359 2.64039C43.5993 0.880238 41.4791 0 39.0002 0H8.99995C6.52101 0 4.40086 0.880238 2.64039 2.64039C0.880238 4.40086 0 6.5209 0 8.99994V38.9998C0 41.4787 0.880238 43.5989 2.64039 45.3594C4.40086 47.1199 6.52101 48.0001 8.99995 48.0001H38.9998C41.4788 48.0001 43.5989 47.1199 45.3586 45.3594C47.1191 43.5989 47.9993 41.4788 47.9993 38.9998V8.99994C47.9992 6.5209 47.119 4.40053 45.359 2.64039ZM39.3115 36.4348C38.874 37.3929 37.8896 38.2266 36.3587 38.9354C34.8274 39.6441 33.4676 39.9984 32.2798 39.9984C31.9464 39.9984 31.5921 39.9727 31.2173 39.9206C30.8423 39.8681 30.5251 39.8164 30.2647 39.7643C30.0044 39.7122 29.6601 39.6186 29.2335 39.483C28.8061 39.3479 28.4985 39.2434 28.3117 39.1706C28.1236 39.0979 27.7801 38.9677 27.2805 38.7803C26.7804 38.5922 26.4676 38.4776 26.3433 38.4368C22.9267 37.1861 19.5876 34.9312 16.3274 31.6709C13.0672 28.4099 10.8119 25.0717 9.56178 21.6556C9.5204 21.5305 9.40581 21.2179 9.21809 20.7181C9.0307 20.2184 8.90012 19.8744 8.82723 19.6871C8.75477 19.4996 8.65046 19.1923 8.51495 18.7655C8.37955 18.3383 8.28608 17.9949 8.23387 17.7341C8.18155 17.4741 8.12989 17.1565 8.07768 16.7814C8.02558 16.4063 7.99964 16.0517 7.99964 15.7186C7.99964 14.531 8.35394 13.1717 9.06244 11.6404C9.77084 10.1094 10.604 9.12505 11.5625 8.68745C12.6667 8.22894 13.7188 7.99974 14.7189 7.99974C14.9477 7.99974 15.1147 8.02076 15.2185 8.06235C15.3228 8.10449 15.4948 8.29155 15.7345 8.62495C15.9742 8.95835 16.2345 9.38008 16.5157 9.89058C16.797 10.4012 17.073 10.896 17.3438 11.375C17.6146 11.8541 17.8751 12.3278 18.1252 12.7969C18.3752 13.2653 18.5314 13.5626 18.5938 13.6871C18.6563 13.7919 18.7918 13.9895 19 14.2814C19.2082 14.5729 19.3648 14.8329 19.4688 15.0623C19.5728 15.2915 19.625 15.5103 19.625 15.7186C19.625 16.0316 19.4112 16.4116 18.9842 16.8591C18.557 17.3071 18.0882 17.7188 17.5777 18.0939C17.0672 18.469 16.5986 18.8702 16.1716 19.2973C15.7448 19.724 15.531 20.073 15.531 20.3439C15.531 20.4898 15.5675 20.6615 15.6405 20.8594C15.7134 21.0577 15.7811 21.2192 15.8436 21.344C15.9061 21.4689 16.0053 21.6461 16.1405 21.8755C16.2759 22.1049 16.3646 22.2506 16.406 22.3132C17.5517 24.3756 18.8696 26.1518 20.3589 27.6416C21.8488 29.1316 23.6246 30.4489 25.6874 31.5948C25.7494 31.6368 25.8955 31.7251 26.1256 31.8607C26.3545 31.9956 26.532 32.0945 26.6568 32.157C26.7819 32.2195 26.9429 32.2874 27.1411 32.3597C27.3394 32.4324 27.5112 32.4691 27.6577 32.4691C27.99 32.4691 28.4485 32.1256 29.0324 31.4382C29.6156 30.7502 30.2097 30.0681 30.8139 29.3909C31.4177 28.7143 31.9068 28.3758 32.2826 28.3758C32.4908 28.3758 32.7091 28.4276 32.9392 28.5317C33.1685 28.6358 33.4284 28.7924 33.7198 29.0006C34.012 29.2096 34.2098 29.3445 34.314 29.4078L35.9695 30.3132C37.0738 30.8968 37.9956 31.4122 38.7354 31.8602C39.4752 32.3082 39.8764 32.6153 39.939 32.7817C39.9804 32.8858 40.0007 33.0529 40.0007 33.2821C39.9999 34.2812 39.7706 35.3334 39.3115 36.4348Z" fill="#309AE0"/>
</g>
<defs>
<clipPath id="clip0_4017_2731">
<rect width="48" height="48" fill="white"/>
</clipPath>
</defs>
</svg>
