<svg width="45" height="48" viewBox="0 0 45 48" fill="none" xmlns="http://www.w3.org/2000/svg">
<g clip-path="url(#clip0_4017_2788)">
<path d="M31.9355 36.763C33.4536 38.2843 34.7017 39.836 35.7763 41.7455C35.9711 42.0918 36.4418 42.1569 36.7216 41.8752C38.1355 40.4513 38.2622 38.5542 37.4712 37.1714C36.0703 34.7144 34.0382 32.6754 31.5934 31.2734C30.1137 30.4254 28.2312 30.6844 27.0157 31.9034C26.9499 31.9694 26.9162 32.0234 26.8597 32.104C26.6558 32.3942 26.745 32.7985 27.0535 32.9726C28.9676 34.0525 30.4489 35.2731 31.9355 36.763Z" fill="#309AE0"/>
<path d="M30.8078 37.8948C29.174 36.2578 27.5074 34.9369 25.2636 33.835C25.1125 33.7608 24.9369 33.7573 24.7804 33.8192C20.3077 35.5863 13.5722 28.8665 15.3297 24.3563C15.3914 24.1978 15.3872 24.0203 15.3112 23.8681C13.3076 19.855 10.0083 16.6069 6.23894 14.4349C5.96813 14.2789 5.62065 14.3563 5.44636 14.6163C-4.38233 29.2752 19.7696 53.5708 34.4413 43.7636C34.6949 43.594 34.7781 43.2564 34.6351 42.9864C33.5821 40.999 32.3373 39.4279 30.8078 37.8948Z" fill="#309AE0"/>
<path d="M16.1657 22.0787C16.342 22.3885 16.7447 22.48 17.034 22.2726C17.1269 22.206 17.1937 22.1594 17.2408 22.1122C18.4592 20.8892 18.7205 18.9992 17.8739 17.5152C16.477 15.0632 14.444 13.0252 11.9941 11.6201C10.6346 10.8396 8.74681 10.9408 7.32835 12.3486C7.05007 12.6248 7.10959 13.0887 7.44541 13.2905C10.9283 15.3843 14.0654 18.3872 16.1657 22.0787Z" fill="#309AE0"/>
<path d="M36.196 12.0002H34.1021C33.6616 12.0002 33.3044 11.642 33.3044 11.2002V9.10018C33.3044 8.65907 32.9465 8.30017 32.5067 8.30017H31.7091C31.2692 8.30017 30.9114 8.65907 30.9114 9.10018V11.2002C30.9114 11.642 30.5542 12.0002 30.1137 12.0002H28.0198C27.58 12.0002 27.2222 12.3591 27.2222 12.8002V13.6002C27.2222 14.0413 27.58 14.4002 28.0198 14.4002H30.1137C30.5542 14.4002 30.9114 14.7584 30.9114 15.2002V17.3002C30.9114 17.7414 31.2692 18.1003 31.7091 18.1003H32.5067C32.9465 18.1003 33.3044 17.7414 33.3044 17.3002V15.2002C33.3044 14.7584 33.6616 14.4002 34.1021 14.4002H36.196C36.6358 14.4002 36.9936 14.0413 36.9936 13.6002V12.8002C36.9936 12.3591 36.6358 12.0002 36.196 12.0002Z" fill="#309AE0"/>
<path d="M32.0082 8.22856e-05C25.3496 0.0235825 19.8826 5.51913 19.8218 12.1972C19.7889 15.8772 21.3493 19.2982 24.1222 21.6713C23.9358 22.1653 23.7005 22.6393 23.4213 23.0873C22.5996 24.4033 23.4465 26.1329 24.9917 26.2863C30.1836 26.7981 36.4484 25.6908 40.3458 22.1473C43.018 19.7182 44.3721 16.4092 44.3721 12.3112C44.3721 5.74153 39.1433 -0.0251179 32.0082 8.22856e-05ZM38.589 13.6002C38.589 14.9235 37.5154 16.0002 36.196 16.0002H34.8998V17.3002C34.8998 18.6235 33.8262 19.7002 32.5067 19.7002H31.7091C30.3896 19.7002 29.3161 18.6235 29.3161 17.3002V16.0002H28.0198C26.7004 16.0002 25.6268 14.9235 25.6268 13.6002V12.8002C25.6268 11.4769 26.7004 10.4002 28.0198 10.4002H29.3161V9.10016C29.3161 7.77685 30.3896 6.70014 31.7091 6.70014H32.5067C33.8262 6.70014 34.8998 7.77685 34.8998 9.10016V10.4002H36.196C37.5154 10.4002 38.589 11.4769 38.589 12.8002V13.6002Z" fill="#309AE0"/>
<path d="M16.6092 44.7864C16.4005 44.6724 16.146 44.6915 15.9564 44.8354C13.5452 46.6661 10.1844 46.8207 7.7907 45.6593C8.70204 44.7803 9.27935 43.6563 9.34217 42.4733C9.51137 39.2363 6.77148 38.076 4.88519 39.2933C3.0319 40.4895 2.99381 43.4375 4.96595 45.5543C4.76853 45.6243 4.56512 45.6833 4.35574 45.7283C3.4095 45.9333 1.05239 46.1103 -0.381426 43.3373C-0.583835 42.9453 -1.06543 42.7923 -1.45629 42.9953C-1.84714 43.1993 -2.0007 43.6813 -1.79729 44.0743C-0.452219 46.6773 1.97369 47.8804 4.69275 47.2924C5.28402 47.1644 5.84339 46.9584 6.3549 46.6903C9.2977 48.5321 13.8361 48.5491 17.0734 45.9835C17.4105 45.7163 17.361 45.1857 16.9806 44.9855C16.8565 44.9203 16.7327 44.8539 16.6092 44.7864ZM7.74882 42.3884C7.70296 43.2584 7.19444 44.1064 6.41472 44.7434C5.66092 44.0584 5.1893 43.2074 5.09757 42.2844C4.94083 40.7076 6.24472 40.1051 7.05585 40.5804C7.54941 40.8674 7.79469 41.5094 7.74882 42.3884Z" fill="#309AE0"/>
</g>
<defs>
<clipPath id="clip0_4017_2788">
<rect width="46.1772" height="48" fill="white" transform="translate(-1.84619)"/>
</clipPath>
</defs>
</svg>
