<svg width="32" height="32" viewBox="0 0 32 32" fill="none" xmlns="http://www.w3.org/2000/svg">
<path d="M31.7877 19.3563C30.6814 20.7938 29.2564 21.9563 27.6314 22.7563C26.9689 18.6376 23.3939 15.4751 19.0877 15.4751C18.3002 15.4751 17.5127 15.5813 16.7564 15.7938C16.5377 15.5563 16.3127 15.3376 16.0814 15.1251C15.7002 14.7751 15.2877 14.4501 14.8564 14.1563C16.2377 12.1813 18.1564 10.7563 20.3502 10.1938C21.0002 10.4563 21.7127 10.6001 22.4564 10.6001C23.2002 10.6001 23.9127 10.4563 24.5627 10.1938C28.1314 11.1188 30.9877 14.3313 31.9689 18.4813C32.0439 18.7876 31.9752 19.1063 31.7877 19.3563Z" fill="#309AE0"/>
<path d="M22.4562 9.9125C25.1935 9.9125 27.4125 7.69351 27.4125 4.95625C27.4125 2.21899 25.1935 0 22.4562 0C19.719 0 17.5 2.21899 17.5 4.95625C17.5 7.69351 19.719 9.9125 22.4562 9.9125Z" fill="#309AE0"/>
<path d="M15.9436 16.0688C14.7686 14.8813 13.3561 14.0125 11.7998 13.5813C10.3623 14.1938 8.73106 14.1938 7.29356 13.5813C3.78731 14.55 0.999807 17.7375 0.0248067 21.825C-0.0501933 22.1313 0.0185567 22.45 0.212307 22.7C2.43731 25.6 5.88731 27.3 9.53731 27.3C10.0248 27.3 10.5123 27.2688 10.9998 27.2125C9.31231 22.7688 11.5123 17.7938 15.9436 16.0688Z" fill="#309AE0"/>
<path d="M9.54316 13.2626C12.2804 13.2626 14.4994 11.0436 14.4994 8.30635C14.4994 5.56909 12.2804 3.3501 9.54316 3.3501C6.8059 3.3501 4.58691 5.56909 4.58691 8.30635C4.58691 11.0436 6.8059 13.2626 9.54316 13.2626Z" fill="#309AE0"/>
<path d="M19.0869 16.25C14.7369 16.25 11.2119 19.775 11.2119 24.125C11.2119 28.475 14.7369 32 19.0869 32C23.4369 32 26.9619 28.475 26.9619 24.125C26.9619 19.775 23.4369 16.25 19.0869 16.25ZM23.4869 21.425L17.3807 27.5312C17.1869 27.725 16.8682 27.725 16.6744 27.5312L14.1869 25.0438C13.9932 24.85 13.9932 24.5312 14.1869 24.3375C14.3807 24.1437 14.6994 24.1437 14.8932 24.3375L17.0244 26.4688L22.7744 20.7188C22.9682 20.525 23.2869 20.525 23.4807 20.7188C23.6744 20.9125 23.6807 21.2312 23.4869 21.425Z" fill="#309AE0"/>
</svg>
