<svg width="48" height="48" viewBox="0 0 48 48" fill="none" xmlns="http://www.w3.org/2000/svg">
<g clip-path="url(#clip0_4017_2942)">
<path d="M25.299 47.8444C51.4077 46.346 56.2616 9.57622 31.4881 1.31928C24.6329 -0.974969 16.7728 0.0685618 10.7755 4.11416H10.7772C7.99773 5.96218 5.63653 8.37231 3.84591 11.1891C2.0553 14.0059 0.875023 17.1667 0.381236 20.4677L0.379736 20.4667C-1.96992 35.2019 10.3942 48.8188 25.299 47.8444ZM44.6224 32.7108C43.7701 34.7286 42.6246 36.6096 41.223 38.2929C41.1241 37.7029 41.397 37.0196 40.9903 36.469C40.5489 35.6084 40.14 34.7306 39.6801 33.8802C39.5091 33.564 39.5563 33.3823 39.8083 33.1547C42.5075 30.7863 40.1012 32.0456 40.3664 28.6605C40.3759 28.569 40.3578 28.4768 40.3143 28.3957C40.2709 28.3147 40.2041 28.2485 40.1226 28.2058C38.8431 27.3889 37.1728 27.1083 35.8505 28.0162C34.2026 28.7951 31.852 28.1993 31.3189 26.3078C30.8475 25.0505 30.9053 23.7808 30.8929 22.4968C30.969 21.8044 31.9188 21.6882 31.7648 20.8878C31.8014 19.8716 31.4701 18.7988 32.4312 18.1355C32.5048 18.0705 32.5925 18.0236 32.6875 17.9984C32.7824 17.9733 32.8819 17.9706 32.978 17.9907C33.8561 18.0969 34.7436 17.8899 35.4841 17.4062C36.2695 16.9083 37.2391 17.2306 38.1091 17.1173C38.5238 17.0877 38.831 17.2095 39.0863 17.5323C39.5882 18.1661 40.3734 18.3522 41.033 18.7371C41.2549 18.8666 41.3741 18.7033 41.4781 18.5691C42.0323 17.8542 42.8816 17.614 43.6262 17.2029C44.0318 16.9705 44.845 17.8577 45.5372 17.8892C46.9168 22.7179 46.5966 28.0932 44.6224 32.7108ZM44.2981 14.5628C43.4715 14.6715 44.0274 13.8862 43.6007 13.4753C43.1723 13.0929 42.7648 12.6878 42.3799 12.2616C42.1807 12.0488 42.0518 12.0146 41.8215 12.2419C41.2027 12.8541 41.2375 12.7891 41.959 13.5207C42.8014 14.4467 43.4364 14.4312 41.9121 15.0747C41.5652 15.2309 41.2377 15.5868 40.8591 15.0726C40.63 14.7614 40.3181 14.5524 40.3551 14.073C40.412 13.3339 39.8481 12.798 39.5872 12.1599C39.5093 11.9695 39.3716 12.1036 39.2982 12.1974C38.7493 12.9031 37.9201 13.1759 37.1689 13.568C35.8715 14.7024 36.1677 14.5788 34.446 14.5295C34.2867 14.5363 34.2398 14.3442 34.1706 14.2318C33.3037 12.8127 33.4718 12.4667 34.3699 11.1269C34.7003 10.9287 36.16 11.1575 36.4359 11.4457C36.5599 11.5751 36.6617 11.7258 36.8407 11.9514C36.9782 11.402 36.9086 10.9811 36.9228 10.5664C37.1555 8.86494 38.5852 9.63172 39.6001 9.26216C40.0799 8.8955 40.2767 8.71297 40.175 8.53306C41.8717 10.3025 43.2648 12.3398 44.2981 14.5628ZM40.0362 8.39066C39.3435 7.93962 37.8045 7.46412 37.7635 6.34962C38.567 6.97696 39.3264 7.65892 40.0362 8.39066ZM8.17561 8.17503C9.46698 6.88178 10.9118 5.7515 12.4779 4.80941C13.0105 5.08128 13.3905 6.0815 14.0585 5.72609C14.771 5.35222 15.5304 5.05569 16.0419 4.38716C16.3317 4.03512 16.8388 4.30456 17.2172 4.19778C18.7052 3.99631 19.1075 5.69056 19.6641 6.69847C19.615 6.73981 19.5891 6.77947 19.5677 6.77703C18.2766 6.63134 17.0927 7.04591 15.9226 7.49647C15.5383 7.6445 15.242 7.65706 15.0015 7.28694C14.7044 6.82925 14.3225 6.81603 13.8484 7.01347C13.4093 7.32387 11.8316 7.3775 11.9406 8.00047C12.0477 8.58575 11.5856 9.58334 12.6361 9.38394C13.1284 9.21266 13.5516 10.6674 13.8525 9.83103C14.498 7.21541 17.2196 9.49794 19.3181 7.82666C20.0901 7.36859 20.7251 8.87741 21.0251 9.40887C21.2531 9.90753 21.418 10.4946 22.2196 10.3207C21.717 10.8236 21.2108 11.3231 20.7137 11.8314C20.5696 11.9788 20.4385 11.9316 20.2766 11.8753C19.6516 11.6584 19.0182 11.4656 18.3954 11.2425C18.0983 11.1361 17.9558 11.1257 17.9625 11.5238C18.4711 14.2613 16.139 11.6211 14.5195 13.674C12.4986 15.705 14.0625 17.4094 11.2851 19.5446C11.1191 19.697 10.9812 19.7154 10.817 19.5948C9.61046 18.7383 6.89958 18.2729 5.99827 19.673C5.98534 19.7152 5.98218 19.7597 5.98904 19.8033C5.99589 19.8469 6.01258 19.8884 6.03783 19.9245C6.52055 20.6982 6.55842 22 7.47492 20.7021C7.74774 20.4696 8.06817 20.5479 8.34755 20.5943C8.64146 20.6431 8.49549 20.9544 8.48817 21.1354C8.52971 21.8573 9.56808 21.9859 9.3638 22.7985C9.24727 23.3864 9.9878 23.0615 10.3132 23.1601C10.8392 23.236 11.2383 23.06 11.5756 22.6492C11.8313 22.3377 13.2993 22.126 13.6374 22.3264C13.9054 22.5965 14.018 23.0185 14.2103 23.3483C14.5299 23.9895 14.5437 24.0025 15.0141 23.4957C16.0951 22.6471 17.6145 23.3185 18.643 23.9077C19.451 24.3603 19.1841 25.9762 20.3878 25.744C20.619 25.6894 20.744 25.8864 20.8708 26.0292C21.7451 27.0987 23.1568 26.9708 23.6739 28.4375C24.0071 29.0492 23.9715 29.5854 23.6883 30.1906C23.4871 31.3274 22.9281 32.1651 21.7477 32.4835C20.8117 32.8197 22.3908 34.3468 20.2484 34.9558C19.6989 35.0755 19.6277 35.4963 19.6989 35.9898C19.9261 37.2609 19.6175 38.2201 18.2195 38.555C17.8061 38.6916 17.8798 39.2413 17.6835 39.5547C16.719 41.3125 17.5958 42.5949 18.8241 43.8259C17.746 43.8896 16.5776 43.9992 16.2049 42.8385C15.7394 41.4864 15.3181 40.1225 14.6277 38.8584C14.3958 38.4339 14.5451 37.9407 14.5391 37.4802C14.3708 35.5965 12.4472 34.1866 12.8085 32.1795C12.9486 31.1742 11.5148 32.6098 10.0303 30.7803C9.53546 30.1933 8.38411 28.7747 8.58296 28.0394C8.98936 27.0264 9.03221 25.8043 9.97046 25.1012C10.3701 24.7905 10.4065 23.8217 9.66108 24.0096C7.74633 24.3299 8.15546 22.8912 7.03402 23.1643C6.27464 23.2452 5.72649 22.9963 5.13633 22.465C3.36577 20.8365 2.85821 22.0431 1.84374 20.8358C2.52453 16.0402 4.747 11.5963 8.17561 8.17503Z" fill="#309AE0"/>
</g>
<defs>
<clipPath id="clip0_4017_2942">
<rect width="48" height="48" fill="white"/>
</clipPath>
</defs>
</svg>
