<svg width="134" height="60" viewBox="0 0 134 60" fill="none" xmlns="http://www.w3.org/2000/svg">
<path d="M98.1147 60C117.934 60 134 46.5685 134 30C134 13.4315 117.934 0 98.1147 0C78.2957 0 62.2293 13.4315 62.2293 30C62.2293 46.5685 78.2957 60 98.1147 60Z" fill="#007042"/>
<path d="M35.8853 60C55.7043 60 71.7707 46.5685 71.7707 30C71.7707 13.4315 55.7043 0 35.8853 0C16.0664 0 0 13.4315 0 30C0 46.5685 16.0664 60 35.8853 60Z" fill="#004F9F"/>
<path fill-rule="evenodd" clip-rule="evenodd" d="M89.1912 35.1627C89.1029 35.1529 89.0097 35.1431 88.9117 35.1285C88.7744 35.0943 88.6224 35.0651 88.4704 35.0211C88.4279 34.9919 88.3462 34.9561 88.2253 34.9138C88.0618 34.813 87.918 34.717 87.7938 34.6259C87.7497 34.582 87.7055 34.5381 87.6565 34.4893C87.6124 34.4258 87.5584 34.3624 87.5045 34.2843C87.4604 34.2111 87.4163 34.1233 87.377 34.0403C87.3427 33.9232 87.3133 33.8061 87.2692 33.689C87.2594 33.6012 87.2495 33.5182 87.2348 33.4304V32.9717C87.2446 32.8985 87.2545 32.8107 87.2692 32.7277C87.2888 32.6399 87.3133 32.5569 87.3427 32.4691C87.3868 32.3813 87.431 32.2885 87.48 32.191C87.5437 32.0934 87.6173 32.0006 87.6957 31.9031C87.7399 31.8689 87.7938 31.8396 87.8477 31.7957C87.8673 31.7762 87.8918 31.7518 87.9115 31.7225C88.0291 31.6591 88.1566 31.5859 88.289 31.5078C88.3625 31.4737 88.441 31.4444 88.5145 31.4102C88.8218 31.3191 89.0833 31.2476 89.299 31.1955C89.8874 31.1077 90.4904 31.015 91.0935 30.9174C91.1376 30.8979 91.1916 30.8735 91.2455 30.8442C91.2995 30.8003 91.3534 30.7563 91.4171 30.7075C91.4269 30.688 91.4514 30.6539 91.4711 30.6197V30.2245C91.4711 30.2245 91.4515 30.1805 91.4367 30.1513C91.3354 30.0602 91.2455 29.9886 91.1671 29.9366C91.1229 29.9268 91.0788 29.9024 91.0298 29.8829C90.9219 29.8731 90.8141 29.8634 90.6964 29.8487C90.5885 29.8585 90.4807 29.8683 90.3728 29.8829C90.3385 29.8927 90.309 29.9024 90.2649 29.917C90.1914 29.961 90.1031 30.0146 90.0198 30.0683C89.9756 30.1318 89.9315 30.1952 89.8923 30.2586C89.8825 30.3465 89.858 30.4294 89.8383 30.5172H87.5535C87.5535 30.3904 87.5535 30.2586 87.5633 30.122C87.5731 30.0683 87.583 30.0049 87.5977 29.9414C87.6467 29.7983 87.7186 29.6308 87.8134 29.4388C87.8575 29.3754 87.9115 29.3022 87.9654 29.2241C88.0291 29.1607 88.1027 29.0875 88.1811 29.0094C88.289 28.946 88.3184 28.9021 88.5587 28.7655C88.6567 28.7215 88.7499 28.6776 88.8479 28.6386C88.9999 28.5947 89.147 28.5507 89.3088 28.502C89.4265 28.4824 89.5442 28.458 89.6716 28.4288C89.9511 28.4092 90.2404 28.3848 90.5297 28.3556H91.1426C91.4956 28.3897 91.8535 28.419 92.2163 28.4629C92.4419 28.5264 92.6674 28.5995 92.8929 28.6776C92.991 28.7215 93.0842 28.7752 93.1822 28.8289C93.3032 28.92 93.411 29.0127 93.5058 29.107C93.5696 29.2241 93.6431 29.351 93.7215 29.4828C93.7314 29.5267 93.7559 29.5804 93.7755 29.634C93.8098 29.8048 93.8392 29.9854 93.8834 30.1659C93.8932 31.5956 93.903 33.04 93.9177 34.4844C93.9275 34.5381 93.9373 34.6015 93.952 34.6649C93.9716 34.7186 93.9961 34.782 94.0255 34.8455C94.0599 34.8894 94.0893 34.9333 94.1236 34.9821C92.5187 34.9886 91.7097 34.9886 91.6966 34.9821C91.6476 34.7479 91.6051 34.5804 91.5691 34.4795C91.3893 34.6226 91.2896 34.7089 91.27 34.7381C91.1524 34.8016 91.0249 34.8748 90.8925 34.9528C90.7748 34.987 90.6572 35.026 90.5395 35.0699C90.4316 35.0895 90.3237 35.1139 90.2159 35.1431C90.108 35.1529 90.0001 35.1627 89.8923 35.1773H89.2059L89.1912 35.1627ZM79.9783 35.0065V28.4434H82.4152C82.425 28.702 82.4348 28.9558 82.4495 29.2241C82.4593 29.2144 82.4838 29.2046 82.5034 29.19C82.6015 29.0826 82.6946 28.9753 82.7927 28.8679C82.9202 28.7703 83.0624 28.6776 83.1996 28.58C83.35 28.5215 83.4464 28.4792 83.4889 28.4532C83.6164 28.419 83.7488 28.3897 83.8861 28.3458C83.9596 28.336 84.0479 28.3263 84.1312 28.3116H84.9598C85.0236 28.3214 85.0971 28.3312 85.1756 28.3458C85.2932 28.38 85.4109 28.4092 85.5384 28.4532C85.6904 28.541 85.8375 28.6239 85.9993 28.7118C86.1202 28.8029 86.2281 28.8956 86.3229 28.9899C86.4209 29.1412 86.5141 29.2876 86.6122 29.4388C86.6465 29.5462 86.6857 29.6535 86.7298 29.7609C86.7494 29.8683 86.7739 29.9756 86.8034 30.0927C86.8034 31.7274 86.8132 33.3621 86.823 35.0065H84.3126C84.3126 33.7476 84.3028 32.4837 84.293 31.2248C84.2832 31.137 84.2734 31.0442 84.2587 30.9466C84.2391 30.8588 84.2146 30.7759 84.1852 30.688C84.1214 30.6148 84.0479 30.527 83.9694 30.444C83.9155 30.4099 83.8615 30.3806 83.8076 30.3465C83.7537 30.3367 83.6997 30.3269 83.636 30.3123H83.3762C83.3222 30.3221 83.2683 30.3318 83.2045 30.3465C83.1506 30.366 83.0869 30.3904 83.0231 30.4197C82.9692 30.4636 82.9055 30.5075 82.8417 30.5563C82.7502 30.6766 82.6865 30.7694 82.6505 30.8344C82.6015 30.9776 82.5655 31.1061 82.5426 31.2199C82.5426 32.4789 82.5328 33.7427 82.523 35.0016H79.9783V35.0065ZM94.4962 35.0065V26.0182H97.0066C97.0164 27.0332 97.0262 28.0579 97.0409 29.0875C97.1046 29.0338 97.1684 28.9704 97.2321 28.907C97.304 28.8647 97.4005 28.7931 97.5214 28.6923C97.595 28.6483 97.6734 28.6044 97.7568 28.5556C97.8581 28.5198 97.93 28.4873 97.9725 28.458C98.1 28.4239 98.2324 28.3946 98.3696 28.3507C98.4432 28.3409 98.5314 28.3312 98.6148 28.3165H99.4434C99.5071 28.3263 99.5807 28.336 99.6591 28.3507C99.8111 28.3946 99.9729 28.4483 100.13 28.502C100.238 28.5556 100.346 28.6093 100.453 28.6727C100.463 28.6825 100.473 28.6923 100.488 28.7167C100.507 28.7264 100.532 28.7362 100.561 28.7508C100.669 28.8582 100.777 28.9655 100.885 29.0729C100.976 29.216 101.063 29.3656 101.145 29.5218C101.189 29.6828 101.243 29.8536 101.297 30.0244C101.307 30.122 101.316 30.2147 101.331 30.3123C101.331 31.8738 101.341 33.445 101.351 35.0163H98.806C98.806 33.7134 98.7962 32.4105 98.7864 31.093C98.7766 31.0296 98.7668 30.9564 98.7521 30.8783C98.7079 30.771 98.654 30.6636 98.6001 30.5563C98.5805 30.5368 98.556 30.5124 98.5363 30.4831C98.4628 30.4392 98.3843 30.3953 98.301 30.3562C98.2471 30.3465 98.1931 30.3367 98.1294 30.3221H97.8695C97.8156 30.3318 97.7617 30.3416 97.6979 30.3562C97.5999 30.4001 97.5067 30.4538 97.4086 30.5075C97.389 30.527 97.3645 30.5514 97.3351 30.5709C97.2714 30.6685 97.2076 30.7759 97.1292 30.8832C97.0948 31.0345 97.0654 31.1809 97.0213 31.3419C97.0213 32.5618 97.0213 33.7866 97.0115 35.0163H94.5011L94.4962 35.0065ZM101.885 35.0065V28.4434H104.322C104.332 28.7655 104.342 29.0826 104.356 29.4047C104.391 29.3705 104.42 29.3413 104.454 29.2973C104.474 29.2534 104.498 29.2095 104.518 29.1607C104.582 29.0729 104.655 28.9899 104.734 28.9021C104.832 28.8386 104.94 28.7655 105.048 28.6874C105.165 28.6435 105.283 28.5995 105.401 28.5605C105.455 28.5507 105.518 28.541 105.582 28.5264C105.773 28.5264 105.969 28.5264 106.161 28.5166V30.6539C106.053 30.6539 105.945 30.6539 105.827 30.6636C105.656 30.6832 105.474 30.7076 105.293 30.7368C105.175 30.7807 105.057 30.8247 104.94 30.8735C104.891 30.9223 104.845 30.958 104.802 30.9808C104.758 31.0442 104.704 31.1077 104.65 31.1858C104.606 31.2931 104.562 31.4005 104.523 31.5078C104.5 31.5989 104.479 31.742 104.459 31.9372C104.459 32.9522 104.449 33.9769 104.44 35.0016H101.895L101.885 35.0065ZM106.514 35.0065V28.4434H109.024V35.0065H106.514ZM109.666 35.0065V28.4434H112.103C112.113 28.6874 112.123 28.9362 112.137 29.19C112.147 29.1802 112.172 29.1705 112.191 29.1558C112.211 29.1217 112.235 29.0924 112.255 29.0485C112.299 29.0046 112.353 28.9509 112.407 28.8972C112.479 28.8549 112.575 28.7833 112.696 28.6825C112.785 28.6386 112.868 28.5947 112.966 28.5459C113.074 28.502 113.182 28.458 113.29 28.419C113.482 28.3702 113.651 28.3344 113.795 28.3116H114.623C114.687 28.3214 114.76 28.3312 114.839 28.3458C114.957 28.38 115.074 28.4092 115.192 28.4532C115.355 28.5247 115.499 28.5963 115.623 28.6679C115.623 28.6679 115.643 28.6874 115.658 28.7118C115.677 28.7215 115.702 28.7313 115.731 28.7459C115.829 28.8435 115.923 28.9362 116.021 29.0338C116.084 29.1314 116.158 29.2241 116.236 29.3315C116.3 29.4925 116.364 29.6633 116.428 29.8341C116.447 29.9854 116.472 30.1464 116.491 30.3025C116.491 31.864 116.501 33.4353 116.511 35.0065H113.966C113.966 33.7036 113.956 32.4008 113.947 31.0833C113.927 30.9759 113.902 30.8686 113.883 30.7612C113.849 30.6978 113.819 30.6246 113.775 30.5465C113.755 30.527 113.731 30.5026 113.701 30.4733C113.628 30.4294 113.549 30.3855 113.476 30.3465C113.422 30.3367 113.358 30.3269 113.294 30.3123H113.049C112.995 30.3221 112.932 30.3318 112.868 30.3465C112.77 30.3904 112.677 30.444 112.579 30.4977C112.535 30.5514 112.49 30.6051 112.441 30.6588C112.397 30.7222 112.353 30.7954 112.314 30.8735C112.294 30.9466 112.27 31.0345 112.24 31.1174C112.231 31.1809 112.221 31.2541 112.206 31.3321C112.206 32.5521 112.196 33.7768 112.186 35.0065H109.666ZM90.2649 33.6256C90.211 33.6061 90.157 33.5816 90.0933 33.5621C90.0051 33.4987 89.9217 33.4255 89.8335 33.3474C89.7975 33.2889 89.7681 33.2254 89.7452 33.1571V32.9766C89.7648 32.9229 89.7893 32.8595 89.8089 32.796C89.8285 32.7619 89.8531 32.7326 89.8825 32.6887C89.9021 32.6692 89.9364 32.6448 89.9707 32.6252C90.0982 32.5716 90.2306 32.5179 90.3679 32.4545C90.5591 32.4105 90.7552 32.3666 90.9464 32.3178C91.0837 32.2739 91.2259 32.23 91.3779 32.1812C91.422 32.1812 91.4662 32.1714 91.5152 32.1617C91.5152 32.3861 91.5054 32.6106 91.4956 32.8448C91.476 32.918 91.4515 33.0059 91.4318 33.0888C91.3305 33.2515 91.2586 33.3588 91.2161 33.4109C91.1524 33.4548 91.0886 33.4987 91.0102 33.5475C90.9366 33.567 90.8484 33.6012 90.765 33.6353H90.26L90.2649 33.6256ZM107.445 28.1311C107.347 28.1116 107.254 28.0872 107.156 28.0677C107.058 28.0335 106.965 28.0042 106.867 27.9603C106.857 27.9506 106.847 27.9408 106.832 27.9164C106.788 27.8969 106.744 27.8725 106.695 27.853C106.502 27.661 106.381 27.5325 106.332 27.4675C106.288 27.3943 106.244 27.3064 106.205 27.2235C106.195 27.1796 106.185 27.1357 106.17 27.0869V26.5843C106.18 26.5403 106.19 26.4964 106.205 26.4476C106.249 26.35 106.303 26.2573 106.357 26.1597C106.445 26.0719 106.538 25.9792 106.636 25.8816C106.71 25.8377 106.788 25.784 106.872 25.7303C106.97 25.6864 107.063 25.6425 107.161 25.6035C107.259 25.5839 107.352 25.5595 107.45 25.54H108.092C108.19 25.5595 108.284 25.5839 108.382 25.6035C108.49 25.6474 108.597 25.701 108.705 25.7547C108.769 25.7986 108.843 25.8426 108.921 25.8913C108.985 25.9548 109.058 26.028 109.137 26.1061C109.181 26.1792 109.225 26.2573 109.274 26.3403C109.31 26.4314 109.339 26.5273 109.362 26.6282V27.0576C109.313 27.2202 109.267 27.3487 109.225 27.4431C109.127 27.5504 109.034 27.6578 108.936 27.7749C108.872 27.8188 108.808 27.8627 108.744 27.9115C108.581 27.9896 108.427 28.053 108.284 28.1018C108.23 28.1116 108.166 28.1213 108.102 28.136H107.46L107.445 28.1311Z" fill="white"/>
<path d="M33.728 35.5286L34.7772 30.3709L35.4097 27.2088L33.1445 27.5992L32.463 30.9662L31.9335 33.6695C31.9335 33.6695 30.8352 34.4697 30.1586 34.3282C29.1829 34.1282 29.4574 32.7863 29.7516 31.3663L30.59 27.243L28.3347 27.5846L27.6482 31.0247C27.6482 31.0247 27.4717 31.9372 27.3442 32.5569C26.9177 34.6113 27.6335 35.6116 28.5945 35.6897C30.0997 35.8116 31.5118 34.8064 31.7619 34.6113L31.5658 35.514L33.7231 35.5286H33.728Z" fill="white"/>
<path d="M47.2211 25.1838L44.9707 25.54L44.5931 27.4284H43.6027L43.4752 28.1799L44.4558 28.2092L43.5782 32.3813C43.436 33.0351 43.3527 33.4206 43.3281 33.5377C43.3036 33.6549 43.284 33.7524 43.2742 33.8208C43.2301 34.0989 43.2203 34.3673 43.2448 34.6259C43.2693 34.8845 43.3625 35.109 43.5243 35.3042C43.6861 35.4994 43.8822 35.5579 44.1617 35.6506C44.6225 35.8019 45.7502 35.636 45.9954 35.6067C46.2405 35.5774 47.128 35.3871 47.128 35.3871L47.5448 34.4502C47.5448 34.4502 46.5789 34.499 46.4367 34.4941C46.0984 34.4795 45.2305 34.6064 45.6669 32.8595C45.7502 32.5277 46.1425 30.4148 46.6132 28.2043H48.5352L48.6774 27.448H46.7603L47.2211 25.1887V25.1838Z" fill="white"/>
<path d="M40.0823 28.1506C40.8766 28.1018 41.9553 28.6776 41.9553 28.6776L41.9161 27.731C41.9161 27.731 40.9845 27.2528 40.0529 27.2967C39.1262 27.3406 37.9789 27.6968 37.3023 28.3556C36.6257 29.0143 36.5472 29.6633 36.5227 29.9902C36.4688 30.7563 36.7924 31.2541 37.7681 31.7957C38.7928 32.3617 39.2439 32.4593 39.5528 33.0644C39.6067 33.1766 39.8421 34.0306 38.7536 34.6161C37.9495 35.0455 37.0081 34.8064 36.763 34.7625C36.307 34.6796 35.6059 34.3429 35.6059 34.3429L35.6745 35.2895C35.6745 35.2895 36.4198 35.6848 37.8073 35.7287C39.1949 35.7726 40.7001 35.026 41.21 34.2697C41.8229 33.3523 41.9259 32.3129 41.4846 31.7127C41.0433 31.1126 40.4108 30.7368 39.7979 30.4245C39.19 30.1073 38.5918 29.7804 38.6703 29.2827C38.7634 28.7264 39.2096 28.2043 40.0823 28.1506Z" fill="white"/>
<path d="M24.6378 24.3738C24.6378 24.3738 22.5883 35.0065 22.3284 36.2167C21.9852 37.8221 22.0735 38.149 21.1125 39.4762C20.4506 40.3887 19.4749 40.3839 19.4749 40.3839L19.7347 41.1548C19.7347 41.1548 22.0882 41.4232 23.4218 39.3689C23.7552 38.8565 24.2504 37.8074 24.5005 36.6558C25.1248 33.7638 26.0188 29.6698 27.1824 24.3738H24.6378Z" fill="white"/>
<path d="M21.8724 36.1874L21.8872 36.1142C21.9019 36.041 21.9264 35.9385 21.9509 35.8019C19.7053 34.3185 18.3668 32.4642 18.3325 30.4343C18.254 25.3595 26.3783 21.1044 36.4884 20.9336C41.1855 20.8556 45.4806 21.6705 48.746 23.0758C45.5345 20.8751 40.754 19.4795 35.4146 19.4795C25.7458 19.4795 17.9059 24.0566 17.9059 29.7023C17.9059 32.1617 19.3915 34.4161 21.8724 36.1825" fill="white"/>
<path d="M24.8192 37.2951C24.775 37.4561 24.7211 37.622 24.6672 37.7781C27.6335 39.1249 31.3647 39.9301 35.4146 39.9301C39.2194 39.9301 42.7398 39.2225 45.613 38.0172C42.9996 38.7931 39.9892 39.2567 36.7777 39.3103C32.2228 39.3884 28.0405 38.6223 24.8192 37.2951Z" fill="white"/>
<path d="M49.81 21.8852H54.0315L53.198 26.2036H48.9961L49.81 21.8852Z" fill="#E30613"/>
<path d="M53.0901 23.5686H52.1585L52.3546 22.5H51.3985L51.1926 23.5686H50.2071L50.0208 24.5592H50.9965L50.7759 25.7059H51.7663L51.9771 24.5592H52.8891L53.0901 23.5686Z" fill="white"/>
</svg>
