<svg width="80" height="80" viewBox="0 0 80 80" fill="none" xmlns="http://www.w3.org/2000/svg">
<path d="M63.0205 19.6919C68.4682 19.6919 72.8917 15.251 72.8917 9.81379C72.4019 -3.2725 53.6463 -3.27007 53.1493 9.81392C53.1493 15.251 57.5871 19.6919 63.0205 19.6919Z" fill="white"/>
<path d="M79.1642 26.4955C77.4289 23.2787 74.8402 20.7309 71.7395 19.0656C67.2952 23.635 58.7453 23.6334 54.3014 19.0654C49.7099 21.6302 43.7173 27.6123 47.033 33.2707C48.2848 35.3489 50.4752 36.5872 52.8932 36.5872H73.1476C78.1833 36.7534 81.679 30.8407 79.1642 26.4955Z" fill="white"/>
<path d="M17.3011 19.6919C22.7488 19.6919 27.1723 15.251 27.1723 9.81379C26.6825 -3.2725 7.92691 -3.27007 7.42995 9.81392C7.42997 15.251 11.8677 19.6919 17.3011 19.6919Z" fill="white"/>
<path d="M33.2884 33.2707C36.5992 27.6104 30.623 21.6327 26.0204 19.0656C21.5759 23.635 13.0261 23.6334 8.5821 19.0654C3.9906 21.6302 -2.00201 27.6123 1.31372 33.2707C2.56554 35.3489 4.75594 36.5872 7.17397 36.5872H27.4284C29.8606 36.5872 32.051 35.3489 33.2884 33.2707Z" fill="white"/>
<path d="M30.2918 52.8676C30.2918 58.3049 34.7295 62.7457 40.1629 62.7457C53.2411 62.2465 53.2365 43.4777 40.1628 42.9895C34.7295 42.9895 30.2918 47.4161 30.2918 52.8676Z" fill="white"/>
<path d="M48.8819 62.1194C44.4377 66.6888 35.8878 66.6872 31.4438 62.1192C28.3573 63.7848 25.7544 66.3325 24.019 69.5493C21.4992 73.8938 25.0168 79.8068 30.0358 79.6409L50.2901 79.641C55.3258 79.8073 58.8215 73.8945 56.3064 69.5492C54.5714 66.3325 51.9827 63.7848 48.8819 62.1194Z" fill="white"/>
<path d="M33.3785 21.4141C37.7736 20.1474 42.5385 20.1474 46.9336 21.4141C47.6448 20.6028 48.3986 19.8484 49.2094 19.151C43.4062 17.1014 36.906 17.1156 31.1028 19.151C31.9278 19.8342 32.6816 20.5886 33.3785 21.4141Z" fill="white"/>
<path d="M15.9831 44.6007C15.9831 42.8499 16.168 41.1134 16.5378 39.4339H13.6362C13.3091 41.1277 13.1384 42.8499 13.1384 44.6007C13.1384 52.8276 16.9077 60.5565 23.1945 65.5952C23.7492 64.8265 24.3751 64.1149 25.0293 63.4317C19.3683 58.9054 15.9831 51.9879 15.9831 44.6007Z" fill="white"/>
<path d="M63.7885 39.4339C64.1583 41.1134 64.3432 42.8499 64.3432 44.6007C64.3432 51.9879 60.958 58.8912 55.3113 63.4317C55.9655 64.1149 56.5771 64.8265 57.1461 65.5952C63.4329 60.5422 67.1879 52.8276 67.1879 44.6007C67.1879 42.8499 67.0173 41.1277 66.6901 39.4339H63.7885Z" fill="white"/>
</svg>
