<svg width="82" height="82" viewBox="0 0 82 82" fill="none" xmlns="http://www.w3.org/2000/svg">
<path d="M76.1101 0.876221H5.88999C3.12131 0.876221 0.874268 3.12326 0.874268 5.89194V14.9202H81.1258V5.89194C81.1258 3.12326 78.8788 0.876221 76.1101 0.876221ZM8.89942 11.9108C7.2342 11.9108 5.88999 10.5666 5.88999 8.90138C5.88999 7.23616 7.2342 5.89194 8.89942 5.89194C10.5646 5.89194 11.9089 7.23616 11.9089 8.90138C11.9089 10.5666 10.5646 11.9108 8.89942 11.9108ZM16.9246 11.9108C15.2594 11.9108 13.9151 10.5666 13.9151 8.90138C13.9151 7.23616 15.2594 5.89194 16.9246 5.89194C18.5898 5.89194 19.934 7.23616 19.934 8.90138C19.934 10.5666 18.5898 11.9108 16.9246 11.9108ZM24.9497 11.9108C23.2845 11.9108 21.9403 10.5666 21.9403 8.90138C21.9403 7.23616 23.2845 5.89194 24.9497 5.89194C26.615 5.89194 27.9592 7.23616 27.9592 8.90138C27.9592 10.5666 26.615 11.9108 24.9497 11.9108ZM0.874268 18.9328V76.1121C0.874268 78.8807 3.12131 81.1278 5.88999 81.1278H76.1101C78.8788 81.1278 81.1258 78.8807 81.1258 76.1121V18.9328H0.874268ZM45.8553 32.6558L54.2014 41.002L33.3762 61.8273L25.03 53.4811L45.8553 32.6558ZM27.7786 66.3816L20.576 69.6919C20.235 69.8524 19.8538 69.9327 19.4926 69.9327C18.8306 69.9327 18.1685 69.6719 17.687 69.1703C16.9045 68.4079 16.7039 67.2643 17.1653 66.2813L20.4757 59.0787C20.9372 58.0956 21.519 57.1727 22.2011 56.3501L30.5072 64.6562C29.6846 65.3383 28.7617 65.9201 27.7786 66.3816ZM57.0504 69.0901H34.9812C33.8777 69.0901 32.9749 68.1872 32.9749 67.0838C32.9749 67.0436 32.9749 66.9835 32.995 66.9433C33.0551 65.9001 33.9179 65.0775 34.9812 65.0775H57.0504C58.1538 65.0775 59.0567 65.9803 59.0567 67.0838C59.0567 68.1872 58.1538 69.0901 57.0504 69.0901ZM60.1802 35.0233L57.0504 38.1531L48.7042 29.8069L51.8139 26.6771C54.1212 24.3699 57.8729 24.3699 60.1802 26.6771C62.4874 28.9843 62.4874 32.7361 60.1802 35.0233Z" fill="white"/>
</svg>
