<svg width="79" height="80" viewBox="0 0 79 80" fill="none" xmlns="http://www.w3.org/2000/svg">
<path fill-rule="evenodd" clip-rule="evenodd" d="M0.989258 48.1622H11.7556V46.2306C11.7556 43.9796 13.5974 42.1378 15.8484 42.1378C18.1169 42.1378 19.9709 43.9547 19.9709 46.2306V48.1622H30.7372V58.9285H28.8055C26.5545 58.9285 24.7127 60.7703 24.7127 63.0214C24.7127 65.2898 26.5294 67.1438 28.8055 67.1438H30.7372V77.9102H19.9709V75.9785C19.9709 73.7274 18.1291 71.8856 15.878 71.8856C13.6096 71.8856 11.7556 73.7024 11.7556 75.9785V77.9102H0.989258V48.1622ZM77.5593 65.0352C74.0371 65.0352 72.2697 69.3024 74.7603 71.7929C75.219 72.2516 75.219 72.9958 74.7603 73.4546L72.2307 75.984C71.772 76.4428 71.0278 76.4428 70.5691 75.984C68.0787 73.4936 63.8114 75.2607 63.8114 78.7832C63.8114 79.4323 63.2852 79.958 62.6364 79.958H59.0593C58.4106 79.958 57.8845 79.4323 57.8845 78.7832C57.8845 75.2565 53.6205 73.4903 51.1268 75.984C50.668 76.4428 49.9239 76.4428 49.4652 75.984L46.9358 73.4546C46.4771 72.9957 46.4771 72.2516 46.9358 71.7929C49.4262 69.3025 47.659 65.0352 44.1367 65.0352C43.4876 65.0352 42.9618 64.509 42.9618 63.8604V60.2833C42.9618 59.6346 43.4876 59.1085 44.1367 59.1085C47.659 59.1085 49.4263 54.8414 46.9358 52.3508C46.4771 51.8921 46.4771 51.1479 46.9358 50.6892L49.4652 48.1598C49.9239 47.7011 50.6681 47.7011 51.1268 48.1598C53.6172 50.6502 57.8845 48.883 57.8845 45.3607C57.8845 44.7116 58.4107 44.1858 59.0593 44.1858H62.6364C63.2852 44.1858 63.8114 44.7116 63.8114 45.3607C63.8114 48.883 68.0785 50.6503 70.5691 48.1598C71.0278 47.7011 71.772 47.7011 72.2307 48.1598L74.7603 50.6892C75.219 51.148 75.219 51.8921 74.7603 52.3508C72.2699 54.8412 74.0371 59.1085 77.5593 59.1085C78.2084 59.1085 78.7343 59.6347 78.7343 60.2833V63.8604C78.7343 64.509 78.2084 65.0352 77.5593 65.0352ZM60.8481 53.478C56.1018 53.478 52.2541 57.3256 52.2541 62.072C52.2541 66.8181 56.1018 70.6658 60.8481 70.6658C65.5943 70.6658 69.4419 66.8181 69.4419 62.072C69.4419 57.3254 65.5943 53.478 60.8481 53.478ZM40.3099 4.49309C40.3099 5.12171 39.8003 5.6313 39.1717 5.6313C38.5431 5.6313 38.0335 5.12171 38.0335 4.49309V1.18008C38.0335 0.551463 38.5431 0.0418701 39.1717 0.0418701C39.8003 0.0418701 40.3099 0.551463 40.3099 1.18008V4.49309ZM34.7245 35.2562H38.0335V23.43L34.1836 21.2072C33.641 20.8929 33.4558 20.1981 33.7701 19.6555C34.0844 19.1129 34.7792 18.9277 35.3218 19.242L39.1717 21.4648L43.0216 19.242C43.5642 18.9277 44.259 19.1129 44.5733 19.6555C44.8876 20.1981 44.7024 20.8929 44.1598 21.2072L40.3099 23.43V35.2562H43.6187C44.0019 30.097 45.4149 27.9107 46.6454 26.0072C47.5501 24.6079 48.3384 23.3885 48.3384 20.8581C48.3384 15.7952 44.2345 11.6915 39.1717 11.6915C34.1089 11.6915 30.005 15.7954 30.005 20.8581C30.005 23.3885 30.7933 24.6077 31.6979 26.0072C32.9283 27.9108 34.3411 30.0972 34.7245 35.2562ZM45.8777 35.5918C46.2073 30.8555 47.459 28.9193 48.5483 27.2344C49.6527 25.5263 50.6148 24.0378 50.6148 20.8581C50.6148 14.5385 45.4912 9.41488 39.1717 9.41488C32.8522 9.41488 27.7284 14.5385 27.7284 20.8581C27.7284 24.0378 28.6906 25.5261 29.7949 27.2344C30.8842 28.9193 32.1358 30.8555 32.4655 35.5918C32.0467 35.9028 31.7741 36.4011 31.7741 36.9598V40.6365C31.7741 41.5734 32.5408 42.3401 33.4777 42.3401H35.2289V44.0482C35.2289 44.9321 35.9522 45.6554 36.8361 45.6554H41.5076C42.3915 45.6554 43.1148 44.9321 43.1148 44.0482V42.3401H44.866C45.8029 42.3401 46.5696 41.5734 46.5696 40.6365V36.9598C46.5693 36.4011 46.2966 35.9028 45.8777 35.5918ZM55.738 14.7144C55.1954 15.0263 54.5026 14.8391 54.1907 14.2965C53.8788 13.7539 54.066 13.0611 54.6086 12.7492L57.4779 11.0926C58.0205 10.7807 58.7133 10.9679 59.0252 11.5105C59.3371 12.0531 59.1499 12.7459 58.6073 13.0578L55.738 14.7144ZM49.3928 7.53781C48.6452 8.8287 46.68 7.69033 47.4276 6.39959L49.0842 3.53049C49.3985 2.98789 50.0933 2.80268 50.6359 3.11699C51.1785 3.4313 51.3637 4.1261 51.0494 4.6687L49.3928 7.53781ZM23.7388 12.7492C24.2815 13.0635 24.4667 13.7583 24.1523 14.3009C23.838 14.8435 23.1432 15.0287 22.6006 14.7144L19.7315 13.0578C19.1889 12.7435 19.0037 12.0487 19.318 11.5061C19.6323 10.9635 20.3271 10.7783 20.8697 11.0926L23.7388 12.7492ZM30.9156 6.39959C31.2299 6.9422 31.0447 7.63699 30.5021 7.9513C29.9595 8.26561 29.2647 8.08041 28.9504 7.53781L27.2938 4.6687C26.9795 4.1261 27.1647 3.4313 27.7073 3.11699C28.2499 2.80268 28.9447 2.98789 29.259 3.53049L30.9156 6.39959Z" fill="white"/>
</svg>
