<svg width="80" height="80" viewBox="0 0 80 80" fill="none" xmlns="http://www.w3.org/2000/svg">
<path d="M80.0004 33.2432L74.9063 47.2217L48.7412 53.2125L53.8353 39.234L80.0004 33.2432Z" fill="white"/>
<path d="M64.7181 75.0614L69.8122 61.0829L53.8353 39.2342L48.7412 53.2126L64.7181 75.0614Z" fill="white"/>
<path d="M48.6245 3.05176e-05L59.16 10.4545L53.8343 37.1194L43.2988 26.6649L48.6245 3.05176e-05Z" fill="white"/>
<path d="M79.9995 31.363L69.4639 20.9085L43.2988 26.7818L53.8343 37.2363L79.9995 31.363Z" fill="white"/>
<path d="M19.5664 79.4068L34.2698 78.467L47.3524 54.7389L32.649 55.6786L19.5664 79.4068Z" fill="white"/>
<path d="M63.4446 76.4704L48.7411 77.4101L32.6484 55.5614L47.3518 54.6216L63.4446 76.4704Z" fill="white"/>
<path d="M10.9987 13.9789L7.29395 24.081L18.8714 39.8215L22.5762 29.7194L10.9987 13.9789Z" fill="white"/>
<path d="M0 44.1673L3.7048 34.0652L22.5761 29.719L18.8713 39.8211L0 44.1673Z" fill="white"/>
<path d="M43.6478 10.8065L32.9965 11.5113L23.5029 28.6613L34.1542 27.9565L43.6478 10.8065Z" fill="white"/>
<path d="M11.9238 12.9211L22.5751 12.2163L34.1526 27.9568L23.5013 28.6616L11.9238 12.9211Z" fill="white"/>
<path d="M22.6914 68.1306L15.166 60.6128L18.9866 41.3483L26.512 48.8661L22.6914 68.1306Z" fill="white"/>
<path d="M0 45.5769L7.52537 53.0948L26.3967 48.866L18.8713 41.3481L0 45.5769Z" fill="white"/>
</svg>
