<svg width="21" height="34" viewBox="0 0 21 34" fill="none" xmlns="http://www.w3.org/2000/svg">
<path fill-rule="evenodd" clip-rule="evenodd" d="M7.82713 3.4937C9.53059 1.79024 11.841 0.833252 14.25 0.833252H18.5C19.6046 0.833252 20.5 1.72868 20.5 2.83325V8.49992C20.5 9.60449 19.6046 10.4999 18.5 10.4999H14.8334V12.1666H18.5C19.1159 12.1666 19.6974 12.4503 20.0764 12.9358C20.4554 13.4212 20.5897 14.0542 20.4403 14.6517L19.0236 20.3183C18.8011 21.2087 18.0011 21.8333 17.0834 21.8333H14.8334V31.1666C14.8334 32.2712 13.9379 33.1666 12.8334 33.1666H7.16669C6.06212 33.1666 5.16669 32.2712 5.16669 31.1666V21.8333H2.91669C1.81212 21.8333 0.916687 20.9378 0.916687 19.8333V14.1666C0.916687 13.062 1.81212 12.1666 2.91669 12.1666H5.16669V9.91658C5.16669 7.50753 6.12368 5.19715 7.82713 3.4937ZM14.25 4.83325C12.9018 4.83325 11.6089 5.36882 10.6556 6.32213C9.70225 7.27544 9.16669 8.5684 9.16669 9.91658V14.1666C9.16669 15.2712 8.27126 16.1666 7.16669 16.1666H4.91669V17.8333H7.16669C8.27126 17.8333 9.16669 18.7287 9.16669 19.8333V29.1666H10.8334V19.8333C10.8334 18.7287 11.7288 17.8333 12.8334 17.8333H15.5218L15.9385 16.1666H12.8334C11.7288 16.1666 10.8334 15.2712 10.8334 14.1666V9.91658C10.8334 9.01043 11.1933 8.14139 11.8341 7.50064C12.4748 6.85989 13.3439 6.49992 14.25 6.49992H16.5V4.83325H14.25Z" fill="#E5F6FE"/>
</svg>
