<svg width="26" height="14" viewBox="0 0 26 14" fill="none" xmlns="http://www.w3.org/2000/svg">
<path d="M25.9932 0.00183105H0V13.9778H25.9932V0.00183105Z" fill="white"/>
<path d="M25.9951 5.59373H14.5499V0.00219727H11.4258V5.59373H0.0108643V8.38796H11.4258V13.9772H14.5499V8.38796H25.9951V5.59373Z" fill="#CE1124"/>
<path d="M0.000244141 1.62878V4.67174H5.66973L0.000244141 1.62878Z" fill="#00247D"/>
<path d="M3.12799 0.00109863L3.04492 0.00495197L10.3962 3.9715V0.00109863H3.12799Z" fill="#00247D"/>
<path d="M8.72481 4.65274L0.00012207 0.00170898V1.09795L6.6458 4.65274H8.72481Z" fill="#CE1124"/>
<path d="M17.2751 9.32483L25.9998 13.9759V12.8796L19.3542 9.32483H17.2751Z" fill="#CE1124"/>
<path d="M0.000244141 12.3721V9.3291H5.66973L0.000244141 12.3721Z" fill="#00247D"/>
<path d="M3.12799 14L3.04492 13.9962L10.3962 10.0297V14H3.12799Z" fill="#00247D"/>
<path d="M8.68058 9.32446L0.00622559 13.9734L2.03492 13.9755L10.4049 9.51353V9.32446H8.68058Z" fill="#CE1124"/>
<path d="M26 1.62805V4.671H20.3306L26 1.62805Z" fill="#00247D"/>
<path d="M22.8722 0L22.9553 0.00384L15.604 3.97037V0H22.8722Z" fill="#00247D"/>
<path d="M25.9917 0.0067518L24.0404 0.0065918L15.6115 4.49998V4.65762H17.3947L25.9917 0.0067518Z" fill="#CE1124"/>
<path d="M26 12.3709V9.32788H20.3306L26 12.3709Z" fill="#00247D"/>
<path d="M22.8722 13.9989L22.9553 13.9951L15.604 10.0286V13.9989H22.8722Z" fill="#00247D"/>
</svg>
