<svg width="48" height="48" viewBox="0 0 48 48" fill="none" xmlns="http://www.w3.org/2000/svg">
<path d="M25.2992 47.8444C51.4079 46.346 56.2618 9.57622 31.4883 1.31928C24.6331 -0.974969 16.773 0.0685618 10.7757 4.11416H10.7774C7.99797 5.96218 5.63678 8.37231 3.84616 11.1891C2.05554 14.0059 0.875267 17.1667 0.381481 20.4677L0.379981 20.4667C-1.96968 35.2019 10.3944 48.8188 25.2992 47.8444ZM44.6227 32.7108C43.7704 34.7286 42.6249 36.6096 41.2232 38.2929C41.1243 37.7029 41.3973 37.0196 40.9905 36.469C40.5491 35.6084 40.1403 34.7306 39.6804 33.8802C39.5094 33.564 39.5565 33.3823 39.8085 33.1547C42.5078 30.7863 40.1015 32.0456 40.3666 28.6605C40.3762 28.569 40.358 28.4768 40.3146 28.3957C40.2711 28.3147 40.2043 28.2485 40.1229 28.2058C38.8434 27.3889 37.173 27.1083 35.8508 28.0162C34.2028 28.7951 31.8522 28.1993 31.3192 26.3078C30.8477 25.0505 30.9055 23.7808 30.8932 22.4968C30.9692 21.8044 31.9191 21.6882 31.765 20.8878C31.8016 19.8716 31.4704 18.7988 32.4314 18.1355C32.505 18.0705 32.5928 18.0236 32.6877 17.9984C32.7826 17.9733 32.8821 17.9706 32.9783 17.9907C33.8564 18.0969 34.7438 17.8899 35.4844 17.4062C36.2697 16.9083 37.2394 17.2306 38.1094 17.1173C38.524 17.0877 38.8313 17.2095 39.0865 17.5323C39.5885 18.1661 40.3736 18.3522 41.0333 18.7371C41.2552 18.8666 41.3743 18.7033 41.4784 18.5691C42.0325 17.8542 42.8818 17.614 43.6265 17.2029C44.032 16.9705 44.8452 17.8577 45.5375 17.8892C46.917 22.7179 46.5969 28.0932 44.6227 32.7108ZM44.2984 14.5628C43.4717 14.6715 44.0276 13.8862 43.601 13.4753C43.1725 13.0929 42.765 12.6878 42.3802 12.2616C42.181 12.0488 42.052 12.0146 41.8217 12.2419C41.2029 12.8541 41.2377 12.7891 41.9592 13.5207C42.8017 14.4467 43.4366 14.4312 41.9124 15.0747C41.5655 15.2309 41.2379 15.5868 40.8594 15.0726C40.6302 14.7614 40.3183 14.5524 40.3554 14.073C40.4123 13.3339 39.8484 12.798 39.5875 12.1599C39.5095 11.9695 39.3718 12.1036 39.2984 12.1974C38.7495 12.9031 37.9203 13.1759 37.1692 13.568C35.8718 14.7024 36.1679 14.5788 34.4463 14.5295C34.2869 14.5363 34.24 14.3442 34.1709 14.2318C33.304 12.8127 33.472 12.4667 34.3702 11.1269C34.7005 10.9287 36.1602 11.1575 36.4361 11.4457C36.5602 11.5751 36.662 11.7258 36.841 11.9514C36.9785 11.402 36.9088 10.9811 36.9231 10.5664C37.1558 8.86494 38.5854 9.63172 39.6004 9.26216C40.0801 8.8955 40.277 8.71297 40.1753 8.53306C41.872 10.3025 43.265 12.3398 44.2984 14.5628ZM40.0364 8.39066C39.3437 7.93962 37.8047 7.46412 37.7637 6.34962C38.5673 6.97696 39.3266 7.65892 40.0364 8.39066ZM8.17586 8.17503C9.46722 6.88178 10.9121 5.7515 12.4781 4.80941C13.0107 5.08128 13.3907 6.0815 14.0588 5.72609C14.7713 5.35222 15.5306 5.05569 16.0421 4.38716C16.3319 4.03512 16.839 4.30456 17.2175 4.19778C18.7055 3.99631 19.1078 5.69056 19.6644 6.69847C19.6152 6.73981 19.5894 6.77947 19.568 6.77703C18.2769 6.63134 17.093 7.04591 15.9229 7.49647C15.5385 7.6445 15.2423 7.65706 15.0018 7.28694C14.7046 6.82925 14.3228 6.81603 13.8487 7.01347C13.4095 7.32387 11.8318 7.3775 11.9409 8.00047C12.0479 8.58575 11.5858 9.58334 12.6364 9.38394C13.1287 9.21266 13.5519 10.6674 13.8527 9.83103C14.4983 7.21541 17.2198 9.49794 19.3183 7.82666C20.0904 7.36859 20.7253 8.87741 21.0253 9.40887C21.2533 9.90753 21.4182 10.4946 22.2199 10.3207C21.7172 10.8236 21.211 11.3231 20.714 11.8314C20.5698 11.9788 20.4387 11.9316 20.2768 11.8753C19.6519 11.6584 19.0184 11.4656 18.3956 11.2425C18.0985 11.1361 17.956 11.1257 17.9628 11.5238C18.4713 14.2613 16.1393 11.6211 14.5197 13.674C12.4989 15.705 14.0628 17.4094 11.2854 19.5446C11.1193 19.697 10.9814 19.7154 10.8173 19.5948C9.6107 18.7383 6.89983 18.2729 5.99851 19.673C5.98558 19.7152 5.98243 19.7597 5.98928 19.8033C5.99614 19.8469 6.01282 19.8884 6.03807 19.9245C6.52079 20.6982 6.55867 22 7.47517 20.7021C7.74798 20.4696 8.06842 20.5479 8.34779 20.5943C8.6417 20.6431 8.49573 20.9544 8.48842 21.1354C8.52995 21.8573 9.56833 21.9859 9.36404 22.7985C9.24751 23.3864 9.98804 23.0615 10.3135 23.1601C10.8395 23.236 11.2386 23.06 11.5758 22.6492C11.8315 22.3377 13.2996 22.126 13.6376 22.3264C13.9057 22.5965 14.0183 23.0185 14.2105 23.3483C14.5301 23.9895 14.5439 24.0025 15.0144 23.4957C16.0953 22.6471 17.6147 23.3185 18.6432 23.9077C19.4513 24.3603 19.1844 25.9762 20.388 25.744C20.6192 25.6894 20.7443 25.8864 20.871 26.0292C21.7453 27.0987 23.157 26.9708 23.6741 28.4375C24.0073 29.0492 23.9717 29.5854 23.6886 30.1906C23.4874 31.3274 22.9284 32.1651 21.748 32.4835C20.812 32.8197 22.3911 34.3468 20.2486 34.9558C19.6991 35.0755 19.628 35.4963 19.6991 35.9898C19.9264 37.2609 19.6178 38.2201 18.2198 38.555C17.8063 38.6916 17.88 39.2413 17.6838 39.5547C16.7193 41.3125 17.596 42.5949 18.8244 43.8259C17.7462 43.8896 16.5778 43.9992 16.2052 42.8385C15.7396 41.4864 15.3183 40.1225 14.6279 38.8584C14.3961 38.4339 14.5453 37.9407 14.5393 37.4802C14.371 35.5965 12.4475 34.1866 12.8088 32.1795C12.9489 31.1742 11.515 32.6098 10.0305 30.7803C9.5357 30.1933 8.38436 28.7747 8.5832 28.0394C8.98961 27.0264 9.03245 25.8043 9.9707 25.1012C10.3704 24.7905 10.4067 23.8217 9.66133 24.0096C7.74658 24.3299 8.1557 22.8912 7.03426 23.1643C6.27489 23.2452 5.72673 22.9963 5.13657 22.465C3.36601 20.8365 2.85845 22.0431 1.84398 20.8358C2.52478 16.0402 4.74725 11.5963 8.17586 8.17503Z" fill="#309AE0"/>
</svg>
