<svg width="48" height="48" viewBox="0 0 48 48" fill="none" xmlns="http://www.w3.org/2000/svg">
<path d="M8.4375 26.9062C6.11119 26.9062 4.21875 28.7987 4.21875 31.125C4.21875 33.4513 6.11119 35.3438 8.4375 35.3438C10.7638 35.3438 12.6562 33.4513 12.6562 31.125C12.6562 28.7987 10.7638 26.9062 8.4375 26.9062Z" fill="#309AE0"/>
<path d="M11.25 35.3438H8.4375H5.625C2.52272 35.3438 0 37.8665 0 40.9688V46.5938C0 47.371 0.628969 48 1.40625 48H15.4688C16.246 48 16.875 47.371 16.875 46.5938V40.9688C16.875 37.8665 14.3523 35.3438 11.25 35.3438Z" fill="#309AE0"/>
<path d="M39.5625 26.9062C37.2362 26.9062 35.3438 28.7987 35.3438 31.125C35.3438 33.4513 37.2362 35.3438 39.5625 35.3438C41.8888 35.3438 43.7812 33.4513 43.7812 31.125C43.7812 28.7987 41.8888 26.9062 39.5625 26.9062Z" fill="#309AE0"/>
<path d="M42.375 35.3438H39.5625H36.75C33.6477 35.3438 31.125 37.8665 31.125 40.9688V46.5938C31.125 47.371 31.754 48 32.5312 48H46.5938C47.371 48 48 47.371 48 46.5938V40.9688C48 37.8665 45.4773 35.3438 42.375 35.3438Z" fill="#309AE0"/>
<path d="M24 0H12.75C8.86678 0 5.71875 3.14803 5.71875 7.03125V15.4688C5.71875 18.8649 8.13853 21.7049 11.3438 22.3585V26.7186C11.3438 27.9713 12.8585 28.5988 13.7444 27.7129L18.9573 22.5H24C27.8832 22.5 31.0312 19.352 31.0312 15.4688V7.03125C31.0312 3.14803 27.8832 0 24 0ZM23.588 8.02547L17.963 13.6505C17.4139 14.1996 16.5235 14.1996 15.9744 13.6505L13.1619 10.838C12.6127 10.2887 12.6127 9.39872 13.1619 8.84944C13.7112 8.30016 14.6012 8.30016 15.1505 8.84944L16.9688 10.6677L21.5995 6.03694C22.1488 5.48766 23.0388 5.48766 23.5881 6.03694C24.1373 6.58622 24.1373 7.47619 23.588 8.02547Z" fill="#309AE0"/>
<path d="M35.25 2.8125H32.8564C33.4709 4.09622 33.8438 5.51578 33.8438 7.03125V15.4688C33.8438 18.6894 32.2665 21.5279 29.8677 23.325L34.2556 27.7129C35.1415 28.5988 36.6562 27.9713 36.6562 26.7186V22.3585C39.8615 21.7048 42.2812 18.8648 42.2812 15.4688V9.84375C42.2812 5.96053 39.1332 2.8125 35.25 2.8125Z" fill="#309AE0"/>
</svg>
