<svg width="48" height="42" viewBox="0 0 48 42" fill="none" xmlns="http://www.w3.org/2000/svg">
<path d="M34.6667 0H27.0476C26.4164 0 25.9048 0.511675 25.9048 1.14286V3.42857C25.9048 4.05975 26.4164 4.57143 27.0476 4.57143H34.6667C35.2979 4.57143 35.8095 4.05975 35.8095 3.42857V1.14286C35.8095 0.511675 35.2979 0 34.6667 0Z" fill="#309AE0"/>
<path d="M12.5714 16.7619H4.95238C4.64928 16.7619 4.35859 16.8823 4.14426 17.0966C3.92993 17.311 3.80952 17.6017 3.80952 17.9048C3.80952 18.2079 3.92993 18.4986 4.14426 18.7129C4.35859 18.9272 4.64928 19.0476 4.95238 19.0476H12.5714C12.8745 19.0476 13.1652 18.9272 13.3796 18.7129C13.5939 18.4986 13.7143 18.2079 13.7143 17.9048C13.7143 17.6017 13.5939 17.311 13.3796 17.0966C13.1652 16.8823 12.8745 16.7619 12.5714 16.7619Z" fill="#309AE0"/>
<path d="M12.1905 27.0476C12.1905 26.7445 12.0701 26.4538 11.8557 26.2395C11.6414 26.0252 11.3507 25.9048 11.0476 25.9048H3.42857C3.12547 25.9048 2.83478 26.0252 2.62045 26.2395C2.40612 26.4538 2.28571 26.7445 2.28571 27.0476C2.28571 27.3507 2.40612 27.6414 2.62045 27.8557C2.83478 28.0701 3.12547 28.1905 3.42857 28.1905H11.0476C11.3507 28.1905 11.6414 28.0701 11.8557 27.8557C12.0701 27.6414 12.1905 27.3507 12.1905 27.0476Z" fill="#309AE0"/>
<path d="M11.8095 30.4762H6.47619C6.17309 30.4762 5.8824 30.5966 5.66807 30.8109C5.45374 31.0253 5.33333 31.3159 5.33333 31.619C5.33333 31.9222 5.45374 32.2128 5.66807 32.4272C5.8824 32.6415 6.17309 32.7619 6.47619 32.7619H11.8095C12.1126 32.7619 12.4033 32.6415 12.6176 32.4272C12.832 32.2128 12.9524 31.9222 12.9524 31.619C12.9524 31.3159 12.832 31.0253 12.6176 30.8109C12.4033 30.5966 12.1126 30.4762 11.8095 30.4762Z" fill="#309AE0"/>
<path d="M12.1905 22.4762C12.1905 22.1731 12.0701 21.8824 11.8557 21.6681C11.6414 21.4537 11.3507 21.3333 11.0476 21.3333H1.14286C0.839753 21.3333 0.549062 21.4537 0.334735 21.6681C0.120408 21.8824 0 22.1731 0 22.4762C0 22.7793 0.120408 23.07 0.334735 23.2843C0.549062 23.4986 0.839753 23.619 1.14286 23.619H11.0476C11.3507 23.619 11.6414 23.4986 11.8557 23.2843C12.0701 23.07 12.1905 22.7793 12.1905 22.4762Z" fill="#309AE0"/>
<path d="M30.8571 24.7619V11.8095C23.7151 11.8095 17.9048 17.6199 17.9048 24.7619C17.9048 31.9039 23.7151 37.7143 30.8571 37.7143C37.9991 37.7143 43.8095 31.9039 43.8095 24.7619H30.8571Z" fill="#309AE0"/>
<path d="M43.3922 13.0812L44.6176 11.8557C44.7252 11.7499 44.8107 11.6239 44.8693 11.4848C44.9279 11.3458 44.9583 11.1966 44.959 11.0457C44.9596 10.8948 44.9303 10.7453 44.8729 10.6058C44.8154 10.4663 44.7309 10.3396 44.6242 10.2329C44.5176 10.1262 44.3908 10.0417 44.2513 9.98429C44.1118 9.92684 43.9623 9.89758 43.8115 9.89819C43.6606 9.89881 43.5113 9.92928 43.3723 9.98787C43.2333 10.0465 43.1072 10.132 43.0014 10.2395L41.726 11.5149C39.2698 9.49146 36.2969 8.19487 33.1429 7.77143V5.71429H28.5714V7.77143C25.4175 8.1947 22.4446 9.49109 19.9883 11.5143L18.7129 10.239C18.6071 10.1314 18.481 10.0459 18.342 9.9873C18.2029 9.92871 18.0537 9.89823 17.9028 9.89762C17.752 9.89701 17.6025 9.92627 17.463 9.98372C17.3235 10.0412 17.1967 10.1257 17.0901 10.2323C16.9834 10.339 16.8989 10.4658 16.8414 10.6053C16.784 10.7448 16.7547 10.8943 16.7553 11.0451C16.7559 11.196 16.7864 11.3452 16.845 11.4843C16.9036 11.6233 16.9891 11.7493 17.0967 11.8551L18.3221 13.0807C15.3585 16.248 13.7111 20.4243 13.7143 24.7619C13.7143 34.2145 21.4046 41.9048 30.8571 41.9048C40.3097 41.9048 48 34.2145 48 24.7619C48.003 20.4245 46.3556 16.2484 43.3922 13.0812ZM30.8571 38.8571C28.0694 38.8571 25.3442 38.0305 23.0262 36.4817C20.7083 34.9329 18.9017 32.7315 17.8348 30.1559C16.768 27.5804 16.4889 24.7463 17.0327 22.0121C17.5766 19.2779 18.9191 16.7663 20.8903 14.7951C22.8616 12.8238 25.3731 11.4814 28.1073 10.9375C30.8415 10.3936 33.6756 10.6728 36.2512 11.7396C38.8267 12.8064 41.0281 14.6131 42.5769 16.931C44.1257 19.249 44.9524 21.9741 44.9524 24.7619C44.9524 26.6129 44.5878 28.4458 43.8794 30.1559C43.1711 31.866 42.1328 33.4199 40.824 34.7287C39.5151 36.0376 37.9613 37.0759 36.2512 37.7842C34.541 38.4926 32.7082 38.8571 30.8571 38.8571Z" fill="#309AE0"/>
</svg>
