<svg width="48" height="48" viewBox="0 0 48 48" fill="none" xmlns="http://www.w3.org/2000/svg">
<path d="M37.7668 11.8679C41.05 11.8679 43.716 9.19147 43.716 5.91456C43.4208 -1.97227 32.1172 -1.9708 31.8177 5.91464C31.8177 9.19147 34.4922 11.8679 37.7668 11.8679Z" fill="#309AE0"/>
<path d="M47.4963 15.9683C46.4505 14.0296 44.8903 12.4941 43.0216 11.4904C40.3431 14.2443 35.1903 14.2433 32.512 11.4903C29.7448 13.0361 26.1332 16.6414 28.1315 20.0515C28.8859 21.304 30.206 22.0503 31.6633 22.0503H43.8702C46.9051 22.1505 49.0119 18.587 47.4963 15.9683Z" fill="#309AE0"/>
<path d="M10.2127 11.8679C13.4959 11.8679 16.1619 9.19147 16.1619 5.91456C15.8667 -1.97227 4.56309 -1.9708 4.26358 5.91464C4.26359 9.19147 6.93813 11.8679 10.2127 11.8679Z" fill="#309AE0"/>
<path d="M19.8479 20.0515C21.8433 16.6402 18.2415 13.0375 15.4676 11.4904C12.7891 14.2443 7.63624 14.2433 4.95796 11.4903C2.19076 13.0361 -1.42086 16.6414 0.57746 20.0515C1.33191 21.304 2.65201 22.0503 4.10931 22.0503H16.3162C17.7821 22.0503 19.1022 21.304 19.8479 20.0515Z" fill="#309AE0"/>
<path d="M18.0419 31.8622C18.0419 35.1391 20.7164 37.8155 23.9911 37.8155C31.873 37.5146 31.8702 26.2031 23.991 25.9088C20.7164 25.9088 18.0419 28.5767 18.0419 31.8622Z" fill="#309AE0"/>
<path d="M29.2458 37.4381C26.5673 40.1919 21.4145 40.1909 18.7362 37.4379C16.8761 38.4417 15.3073 39.9772 14.2615 41.9159C12.7428 44.5342 14.8628 48.0979 17.8877 47.9978L30.0944 47.9979C33.1294 48.0981 35.2362 44.5347 33.7204 41.9158C32.6747 39.9772 31.1146 38.4417 29.2458 37.4381Z" fill="#309AE0"/>
<path d="M19.9022 12.9058C22.5511 12.1424 25.4228 12.1424 28.0716 12.9058C28.5002 12.4168 28.9545 11.9622 29.4431 11.5419C25.9457 10.3066 22.0282 10.3152 18.5307 11.5419C19.0279 11.9536 19.4822 12.4083 19.9022 12.9058Z" fill="#309AE0"/>
<path d="M9.41838 26.8799C9.41838 25.8247 9.52982 24.7782 9.7527 23.7659H8.00394C7.80679 24.7868 7.70393 25.8247 7.70393 26.8799C7.70393 31.8381 9.9756 36.4961 13.7645 39.5328C14.0988 39.0696 14.476 38.6407 14.8703 38.2289C11.4586 35.501 9.41838 31.332 9.41838 26.8799Z" fill="#309AE0"/>
<path d="M38.2297 23.7659C38.4525 24.7782 38.564 25.8247 38.564 26.8799C38.564 31.332 36.5238 35.4924 33.1206 38.2289C33.5149 38.6406 33.8835 39.0696 34.2264 39.5328C38.0154 36.4875 40.2784 31.8381 40.2784 26.8799C40.2784 25.8247 40.1756 24.7868 39.9784 23.7659H38.2297Z" fill="#309AE0"/>
</svg>
