<svg width="28" height="28" viewBox="0 0 28 28" fill="none" xmlns="http://www.w3.org/2000/svg">
<path d="M28 14.0005C28 21.7325 21.732 28.0005 14 28.0005C6.26801 28.0005 0 21.7325 0 14.0005C0 6.2685 6.26801 0.000488281 14 0.000488281C21.732 0.000488281 28 6.2685 28 14.0005Z" fill="#272B49"/>
<path d="M10.762 21.7926C10.762 21.6306 10.744 21.5586 10.672 21.5586L10.258 21.7566C10.258 21.6666 10.204 21.6126 10.114 21.5766L9.96997 21.5586C9.84397 21.5586 9.78997 21.5766 9.60997 21.6846C9.55597 21.5766 9.48397 21.4506 9.42997 21.3426C8.96197 20.4426 8.47597 19.0926 8.25997 18.4986C8.15197 18.1926 8.04397 17.5626 7.91797 16.6086C8.06197 16.6986 8.16997 16.7346 8.22397 16.7346C8.29597 16.7346 8.38597 16.6086 8.45797 16.3566C8.49397 16.4106 8.56597 16.4286 8.65597 16.4286C8.70997 16.4286 8.78197 16.4106 8.81797 16.3566L9.10597 15.9246L9.42997 16.0326H9.44797C9.48397 16.0326 9.53797 15.9786 9.62797 15.9246C9.71797 15.8706 9.78997 15.8346 9.84397 15.8346L9.89797 15.8526C10.186 15.9966 10.384 16.2486 10.474 16.6446C10.69 17.5626 10.888 18.0126 11.122 18.0126C11.32 18.0126 11.59 17.7786 11.878 17.3286C12.166 16.8786 12.454 16.2666 12.778 15.5286C12.796 15.6726 12.814 15.7446 12.85 15.7446C12.958 15.7446 13.228 15.1146 13.894 14.0526C14.884 12.4506 17.332 9.37262 17.962 8.94062C18.43 8.61662 18.79 8.31062 19.042 8.04062C19.006 8.22062 18.97 8.34662 18.97 8.40062C18.97 8.45462 19.006 8.47262 19.042 8.47262L19.546 8.22062V8.29262C19.546 8.38262 19.564 8.43662 19.618 8.43662C19.69 8.43662 19.978 8.14862 20.014 8.04062L19.978 8.29262L20.59 7.93262L20.446 8.25662C20.626 8.13062 20.77 8.05862 20.86 8.05862C20.95 8.05862 21.004 8.20262 21.004 8.29262C21.004 8.43662 20.878 8.63462 20.68 8.88662C20.464 9.17462 19.924 9.73262 18.304 11.5866C17.602 12.3786 14.488 16.6086 13.894 17.6166L12.778 19.5066C12.292 20.3166 11.986 20.8386 11.824 21.0366C11.662 21.2346 11.464 21.4326 11.23 21.6126L11.068 21.5226L10.924 21.6126L10.762 21.7926Z" fill="white"/>
</svg>
