<svg width="32" height="30" viewBox="0 0 32 30" fill="none" xmlns="http://www.w3.org/2000/svg">
<path d="M23.705 19.5949C23.705 18.8724 23.4237 18.193 22.9131 17.6818L22.6388 17.4074H21.3281C19.5981 17.4074 17.9519 16.9643 16.495 16.1143L16.1388 16.3812C13.9307 18.0379 10.7784 17.8522 8.78625 15.8587L8.01188 15.0843C6.82938 13.8993 6.93913 11.9638 8.22 10.9175L12.1225 7.72435C11.9 7.67997 11.6713 7.65747 11.4394 7.65747H6.56063C5.62625 7.65747 4.7475 8.02122 4.08687 8.68185C3.78062 8.98872 3.37312 9.15747 2.93937 9.15747H0.9375C0.42 9.15747 0 9.57747 0 10.095V21.595C0 22.1125 0.42 22.5325 0.9375 22.5325H4.62813L11.6088 29.1025C12.6798 30.1097 14.3349 30.087 15.3756 29.045C15.8841 28.545 16.1519 27.9392 16.1981 27.2918C17.5399 27.1939 18.6028 26.1275 18.6981 24.7918C20.0399 24.6939 21.1028 23.6275 21.1981 22.2918C22.6037 22.1892 23.705 21.0233 23.705 19.5949Z" fill="#309AE0"/>
<path d="M14 5.03247C14.5178 5.03247 14.9375 4.61272 14.9375 4.09497V1.09497C14.9375 0.577221 14.5178 0.157471 14 0.157471C13.4822 0.157471 13.0625 0.577221 13.0625 1.09497V4.09497C13.0625 4.61272 13.4822 5.03247 14 5.03247Z" fill="#309AE0"/>
<path d="M9.33716 5.25783C9.52022 5.44089 9.76016 5.53246 10 5.53246C10.2399 5.53246 10.4799 5.44089 10.6629 5.25783C11.029 4.89177 11.029 4.29814 10.6629 3.93202L9.16291 2.43202C8.79684 2.06596 8.20322 2.06596 7.83709 2.43202C7.47097 2.79808 7.47097 3.3917 7.83709 3.75783L9.33716 5.25783Z" fill="#309AE0"/>
<path d="M18 5.53245C18.24 5.53245 18.4799 5.44089 18.6629 5.25783L20.1629 3.75783C20.529 3.39177 20.529 2.79814 20.1629 2.43202C19.7968 2.06596 19.2032 2.06596 18.8371 2.43202L17.3371 3.93202C16.971 4.29808 16.971 4.89171 17.3371 5.25783C17.5202 5.44089 17.7601 5.53245 18 5.53245Z" fill="#309AE0"/>
<path d="M31.0623 9.15747H26.2498C25.6454 9.15747 25.046 8.95747 24.5623 8.59497C23.756 7.9906 22.7573 7.65747 21.7498 7.65747H16.8385C15.7844 7.65747 14.7254 8.01741 13.8704 8.71685L9.40605 12.3693C8.97817 12.719 8.94417 13.3643 9.33667 13.7582L10.1123 14.5331C11.4229 15.8443 13.5304 15.9937 15.0135 14.8812L16.446 13.8068C17.8242 14.925 19.5292 15.5325 21.3279 15.5325H23.4148L24.2385 16.3562C26.5585 18.6796 25.7494 22.595 22.7385 23.8318C22.5754 24.2306 22.3554 24.6062 22.0835 24.9462C23.1873 24.7631 24.2323 24.2881 25.0998 23.5649C25.8992 22.8993 26.9123 22.5324 27.9523 22.5324H31.0623C31.5798 22.5324 31.9998 22.1124 31.9998 21.5949C31.9998 20.1632 31.9998 11.3361 31.9998 10.0949C31.9998 9.57747 31.5798 9.15747 31.0623 9.15747Z" fill="#309AE0"/>
</svg>
