<svg width="48" height="48" viewBox="0 0 48 48" fill="none" xmlns="http://www.w3.org/2000/svg">
<g clip-path="url(#clip0_4017_2727)">
<path d="M38.1562 0H9.84375C4.41591 0 0 4.41591 0 9.84375V38.1562C0 43.5841 4.41591 48 9.84375 48H38.1562C43.5841 48 48 43.5841 48 38.1562V9.84375C48 4.41591 43.5841 0 38.1562 0ZM35.1285 13.6875L23.9961 24.8198L12.8637 13.6875H35.1285ZM9.63319 31.6906C9.52856 31.4939 9.46875 31.2696 9.46875 31.0312V15.0938C9.46875 14.8554 9.52856 14.6311 9.63319 14.4344L18.2613 23.0625L9.63319 31.6906ZM12.8637 32.4375L20.25 25.0512L23.9962 28.7974L27.7462 25.0474L35.1363 32.4375H12.8637ZM38.5312 31.0312C38.5312 31.2696 38.4714 31.4939 38.3668 31.6906L29.7348 23.0587L38.3642 14.4292C38.4707 14.6271 38.5312 14.8533 38.5312 15.0938V31.0312Z" fill="#309AE0"/>
</g>
<defs>
<clipPath id="clip0_4017_2727">
<rect width="48" height="48" fill="white"/>
</clipPath>
</defs>
</svg>
