<svg width="58" height="62" viewBox="0 0 58 62" fill="none" xmlns="http://www.w3.org/2000/svg">
<path fill-rule="evenodd" clip-rule="evenodd" d="M45.636 39.7424V60.8902C45.636 60.9622 45.5773 61.0211 45.5052 61.0211H25.1932C25.1552 61.0211 25.1176 61.0232 25.0807 61.0271C25.0799 61.0273 25.0792 61.0273 25.0783 61.0275C24.7814 61.0534 24.5113 61.0735 24.2699 61.087C24.2327 61.0892 24.1999 61.0772 24.1728 61.0515C24.1457 61.0258 24.1319 60.9937 24.1319 60.9565V53.7518C24.1319 53.1739 23.6634 52.7055 23.0855 52.7055H19.3745C18.6791 52.7055 18.0461 52.4202 17.5865 51.9605C17.127 51.501 16.8417 50.8679 16.8417 50.1724C16.8417 49.477 17.127 48.8439 17.5865 48.3844C18.0461 47.9248 18.6791 47.6394 19.3745 47.6394H23.0855C23.6634 47.6394 24.1319 47.171 24.1319 46.5931V39.7424C24.1319 39.6704 24.1906 39.6117 24.2626 39.6117H29.9362C30.0082 39.6117 30.0669 39.6704 30.0669 39.7424V42.2763C30.0669 43.5493 30.587 44.706 31.4249 45.5438C32.2627 46.3816 33.4194 46.9018 34.6926 46.9018C35.9656 46.9018 37.1223 46.3816 37.9601 45.5438C38.7979 44.706 39.3181 43.5493 39.3181 42.2763V39.7424C39.3181 39.6704 39.3768 39.6117 39.4488 39.6117H45.5049C45.5771 39.6116 45.636 39.6704 45.636 39.7424ZM57.3711 22.3792C57.3708 22.3752 57.3705 22.3717 57.3705 22.3676V1.01512C57.3705 0.943071 57.3118 0.884399 57.2398 0.884399H33.9994C33.9274 0.884399 33.8687 0.943071 33.8687 1.01512V9.16399C33.8687 9.23604 33.9274 9.29471 33.9994 9.29471H37.5797C39.5481 9.29471 41.1588 10.9053 41.1588 12.8739C41.1588 14.8424 39.5481 16.4533 37.5797 16.4533H33.9994C33.9274 16.4533 33.8687 16.512 33.8687 16.584V24.3503C33.8687 24.4224 33.9274 24.481 33.9994 24.481H41.7657C41.8378 24.481 41.8965 24.5397 41.8965 24.6117V28.192C41.8965 30.1604 43.507 31.7711 45.4756 31.7711C47.4441 31.7711 49.055 30.1604 49.055 28.192V24.6117C49.055 24.5397 49.1137 24.481 49.1858 24.481H57.3343C57.3705 24.481 57.4015 24.4681 57.4271 24.4424C57.4526 24.4167 57.4654 24.3856 57.4651 24.3494C57.4611 23.6859 57.4284 23.0288 57.3711 22.3792ZM0.665693 37.5188H6.72198C6.79403 37.5188 6.8527 37.46 6.8527 37.3881V34.8543C6.8527 33.5811 7.37285 32.4246 8.21067 31.5867C9.04849 30.7489 10.2052 30.2288 11.4782 30.2288C12.7514 30.2288 13.9081 30.7489 14.7459 31.5867C15.5837 32.4246 16.1039 33.5813 16.1039 34.8543V37.3881C16.1039 37.4602 16.1626 37.5188 16.2348 37.5188H21.9083C21.9804 37.5188 22.039 37.46 22.039 37.3881V30.5375C22.039 29.9596 22.5075 29.4911 23.0854 29.4911H26.7965C27.4919 29.4911 28.1248 29.2058 28.5844 28.7461C29.0439 28.2867 29.3292 27.6536 29.3292 26.9582C29.3292 26.2626 29.0439 25.6297 28.5844 25.17C28.1248 24.7104 27.4919 24.4251 26.7965 24.4251H23.0854C22.5075 24.4251 22.039 23.9566 22.039 23.3787V16.1741C22.039 16.1368 22.0252 16.1048 21.9981 16.0791C21.9711 16.0534 21.9382 16.0415 21.901 16.0435C21.6596 16.057 21.3894 16.0771 21.0927 16.1031C21.0918 16.1031 21.091 16.1032 21.0902 16.1034C21.0533 16.1074 21.0158 16.1095 20.9778 16.1095H0.665693C0.593645 16.1095 0.534973 16.1681 0.534973 16.2402V37.388C0.534973 37.4602 0.593797 37.5188 0.665693 37.5188ZM21.9083 54.7979H19.3745C18.1015 54.7979 16.9447 54.2777 16.1069 53.4399C15.2691 52.6021 14.749 51.4454 14.749 50.1724C14.749 48.8992 15.2691 47.7425 16.1069 46.9047C16.9447 46.0669 18.1015 45.5467 19.3745 45.5467H21.9083C21.9804 45.5467 22.039 45.488 22.039 45.416V39.7424C22.039 39.6704 21.9804 39.6117 21.9083 39.6117H15.0577C14.4798 39.6117 14.0113 39.1433 14.0113 38.5653V34.8544C14.0113 34.159 13.726 33.5261 13.2663 33.0664C12.8068 32.607 12.1738 32.3216 11.4784 32.3216C10.7828 32.3216 10.1499 32.607 9.69024 33.0664C9.23074 33.5259 8.94528 34.159 8.94528 34.8544V38.5653C8.94528 39.1433 8.47682 39.6117 7.89892 39.6117H0.694573C0.657333 39.6117 0.625109 39.6255 0.599573 39.6526C0.574037 39.6797 0.562029 39.7125 0.564005 39.7497C0.577533 39.9911 0.597597 40.2612 0.623589 40.5581C0.623741 40.559 0.623741 40.5597 0.623893 40.5605C0.627845 40.5974 0.629973 40.635 0.629973 40.673V60.9849C0.629973 61.0569 0.688645 61.1158 0.760693 61.1158H21.9085C21.9805 61.1158 22.0392 61.0569 22.0392 60.9849V54.9288C22.0392 54.8567 21.9804 54.7979 21.9083 54.7979Z" fill="#309AE0"/>
</svg>
