<svg width="526" height="94" viewBox="0 0 526 94" fill="none" xmlns="http://www.w3.org/2000/svg">
<path d="M384.811 91.0026V88.8157H390.731V91.0026H384.811ZM139.448 91.0026V88.8157H145.368V91.0026H139.448ZM135.086 90.8464C133.061 90.8464 131.036 90.534 129.167 90.3778L129.478 88.1908C131.348 88.1908 133.373 88.5033 135.242 88.6595V90.8464H135.086ZM395.249 90.8464V88.6595C397.118 88.6595 398.988 88.347 401.013 88.1908L401.325 90.3778C399.455 90.3778 397.43 90.6902 395.405 90.8464H395.249ZM380.293 90.6902C378.268 90.6902 376.243 90.3778 374.374 90.0654L374.685 87.8784C376.555 88.1908 378.58 88.347 380.449 88.5033V90.6902H380.293ZM149.886 90.6902V88.5033C151.755 88.5033 153.625 88.1908 155.494 87.8784L155.806 90.0654C153.936 90.3778 151.911 90.534 149.886 90.6902ZM124.649 89.7529C122.624 89.4405 120.754 89.1281 118.729 88.6595L119.196 86.4725C121.066 86.9411 122.935 87.2535 124.96 87.566L124.649 89.7529ZM405.687 89.7529L405.375 87.566C407.244 87.2535 409.27 86.9411 411.139 86.4725L411.606 88.6595C409.737 89.1281 407.712 89.4405 405.687 89.7529ZM370.012 89.2843C367.986 88.9719 366.117 88.5033 364.247 87.8784L364.871 85.6914C366.74 86.1601 368.609 86.6287 370.479 86.9411L370.012 89.1281V89.2843ZM160.324 89.1281L159.856 86.9411C161.726 86.6287 163.751 86.1601 165.465 85.5352L166.088 87.7222C164.218 88.1908 162.193 88.6595 160.324 89.1281ZM114.367 87.4098C112.497 86.7849 110.472 86.1601 108.759 85.5352L109.538 83.5045C111.407 84.1293 113.276 84.7542 114.99 85.379L114.367 87.566V87.4098ZM415.813 87.4098L415.189 85.2228C417.059 84.5979 418.928 83.9731 420.642 83.3483L421.421 85.379C419.551 86.1601 417.682 86.7849 415.813 87.2536V87.4098ZM359.885 86.6287C358.016 86.0039 356.147 85.2228 354.277 84.598L355.056 82.5672C356.77 83.3483 358.639 83.9731 360.509 84.598L359.885 86.7849V86.6287ZM170.45 86.4725L169.671 84.2855C171.54 83.6607 173.41 83.0358 175.123 82.2548L176.058 84.2855C174.189 85.0666 172.319 85.8476 170.45 86.4725ZM104.552 83.8169C102.683 83.0358 100.969 82.0986 99.0998 81.1613L100.19 79.1305C101.904 80.0678 103.618 80.8489 105.487 81.6299L104.552 83.6607V83.8169ZM425.627 83.6607L424.692 81.6299C426.406 80.8489 428.12 79.9116 429.989 78.9743L431.08 81.0051C429.366 81.9424 427.497 82.8796 425.783 83.6607H425.627ZM350.071 82.7234C348.357 81.9424 346.488 80.8489 344.774 79.9116L345.865 78.0371C347.578 78.9743 349.292 79.9116 351.006 80.8489L350.071 82.8796V82.7234ZM180.109 82.5672L179.174 80.5365C180.887 79.7554 182.601 78.8181 184.315 77.7246L185.405 79.5992C183.692 80.6927 181.822 81.6299 180.109 82.411V82.5672ZM95.361 78.9743C93.6473 78.0371 92.0895 76.9436 90.3758 75.6939L91.6221 73.8194C93.3358 74.9128 94.8936 76.0063 96.6073 76.9436L95.5168 78.8181H95.361V78.9743ZM434.974 78.8181L433.884 76.9436C435.442 76.0063 437.155 74.9128 438.869 73.8194L440.115 75.6939C438.402 76.9436 436.688 77.8809 435.13 78.9743L434.974 78.8181ZM341.035 77.5684C339.477 76.6312 337.764 75.5377 336.05 74.288L337.297 72.4135C339.01 73.6631 340.568 74.7566 342.126 75.6939L340.88 77.5684H341.035ZM189.3 77.4122L188.054 75.5377C189.611 74.6004 191.169 73.5069 192.883 72.2572L194.129 74.1318C192.416 75.3815 190.702 76.475 189.144 77.4122H189.3ZM86.637 73.1945C85.2349 72.101 83.677 71.0076 81.8076 69.6016L83.2097 67.8833C85.0791 69.2892 86.4812 70.3827 87.8833 71.32L86.637 73.1945ZM443.698 73.0383L442.452 71.1638C443.854 70.0703 445.412 68.9768 447.126 67.5709L448.528 69.2892C446.658 70.6951 445.256 71.7886 443.698 72.8821V73.0383ZM332.467 71.6324C330.909 70.3827 329.351 69.2892 327.794 68.0395L329.196 66.3212C330.754 67.5709 332.311 68.6644 333.869 69.9141L332.623 71.6324H332.467ZM197.868 71.32L196.622 69.6016C198.18 68.352 199.738 67.2585 201.295 66.0088L202.697 67.7271C201.14 68.9768 199.582 70.0703 198.024 71.32H197.868ZM78.2245 66.9461C76.6667 65.6964 75.1088 64.6029 73.551 63.3532L74.953 61.6349C76.5109 62.7283 78.0687 63.978 79.6266 65.2277L78.2245 67.1023V66.9461ZM451.955 66.7898L450.553 65.0715C452.111 63.8218 453.669 62.7283 455.226 61.4786L456.629 63.197C455.071 64.4467 453.513 65.5401 451.955 66.7898ZM324.21 65.3839C322.341 63.978 320.783 62.8846 319.537 61.7911L320.783 59.9165C322.185 60.8538 323.587 62.1035 325.613 63.5094L324.21 65.2277V65.3839ZM206.125 65.0715L204.723 63.3532C206.592 61.9473 208.15 60.8538 209.552 59.7603L210.798 61.6349C209.396 62.5721 207.994 63.6656 206.125 65.2277V65.0715ZM69.9679 60.8538C68.2542 59.6041 66.6964 58.5106 65.1385 57.5734L66.3848 55.6988C67.9427 56.7923 69.5005 57.8858 71.3699 59.1355L70.1237 61.01H69.9679V60.8538ZM460.212 60.5414L458.965 58.6668C460.679 57.4171 462.237 56.3237 463.95 55.2302L465.197 57.1047C463.639 58.042 462.081 59.1355 460.367 60.3852H460.212V60.5414ZM315.798 59.2917C314.084 58.042 312.527 57.1047 310.969 56.0112L312.215 54.1367C313.773 55.074 315.486 56.1675 317.2 57.4171L315.954 59.2917H315.798ZM214.381 58.9793L213.135 57.1047C214.849 55.855 216.562 54.7615 218.12 53.8243L219.211 55.6988C217.653 56.6361 215.939 57.7296 214.381 58.9793ZM61.3997 55.074C59.686 53.9805 57.9724 53.0432 56.2587 52.2622L57.1934 50.2314C58.9071 51.1687 60.6207 52.1059 62.4902 53.1994L61.3997 55.074ZM468.78 54.9178L467.689 53.0432C469.403 51.9497 471.272 51.0125 472.986 50.0752L473.921 52.106C472.207 52.887 470.494 53.9805 468.78 54.9178ZM307.23 53.8243C305.516 52.887 303.803 51.9497 302.089 51.1687L303.024 49.1379C304.737 49.919 306.607 50.8563 308.32 51.9497L307.23 53.8243ZM223.105 53.6681L222.015 51.7935C223.729 50.8563 225.598 49.919 227.312 49.1379L228.246 51.1687C226.533 51.9497 224.819 52.887 223.105 53.8243V53.6681ZM52.3641 50.3876C50.6504 49.6066 48.781 48.8255 46.9116 48.2007L47.6905 46.1699C49.5599 46.7948 51.4294 47.5758 53.2988 48.3569L52.3641 50.3876ZM477.815 50.2314L476.881 48.2007C478.75 47.4196 480.62 46.6385 482.489 46.0137L483.268 48.0445C481.399 48.6693 479.685 49.4504 477.815 50.2314ZM298.038 49.2941C296.325 48.5131 294.455 47.8882 292.586 47.2634L293.209 45.0764C295.079 45.7013 296.948 46.3261 298.817 47.1072L298.038 49.1379V49.2941ZM232.297 49.1379L231.518 47.1072C233.387 46.3261 235.257 45.7013 237.126 45.0764L237.749 47.2634C235.88 47.8882 234.01 48.5131 232.297 49.1379ZM42.8611 46.951C40.9917 46.4823 39.1223 45.8575 37.2528 45.5451L37.7202 43.3581C39.7454 43.8267 41.6148 44.2954 43.4843 44.764L42.8611 46.951ZM487.474 46.7948L486.851 44.6078C488.72 44.1392 490.746 43.5143 492.615 43.2019L493.082 45.3889C491.213 45.8575 489.344 46.3261 487.474 46.7948ZM288.224 46.1699C286.355 45.7013 284.485 45.2326 282.46 44.9202L282.927 42.7333C284.952 43.0457 286.822 43.5143 288.847 43.9829L288.224 46.1699ZM241.956 46.1699L241.488 43.9829C243.358 43.5143 245.383 43.0457 247.408 42.7333L247.72 44.9202C245.85 45.2326 243.825 45.7013 241.956 46.1699ZM32.8908 44.6078C31.0214 44.2954 28.9962 43.983 27.1267 43.8267V41.6398C29.3078 41.6398 31.333 42.1084 33.2024 42.4208L32.8908 44.6078ZM497.444 44.6078L497.133 42.4208C499.002 42.1084 501.028 41.796 503.053 41.6398V43.8267C501.339 43.8267 499.314 44.2954 497.444 44.6078ZM278.254 44.2954C276.384 43.983 274.359 43.8267 272.49 43.6705V41.4836C274.671 41.4836 276.696 41.796 278.565 42.1084L278.254 44.2954ZM252.082 44.2954L251.77 42.1084C253.639 41.796 255.665 41.6398 257.69 41.4836V43.6705C255.82 43.6705 253.951 43.983 252.082 44.1392V44.2954ZM22.7647 43.6705H16.8449V41.4836H22.7647V43.6705ZM507.571 43.6705V41.4836H513.335V43.6705H507.571ZM268.128 43.5143H262.208V41.3274H268.128V43.5143Z" fill="#272B49"/>
<path d="M145.991 89.5967C145.991 91.4713 144.434 93.0334 142.564 93.0334C140.695 93.0334 139.137 91.4713 139.137 89.5967C139.137 87.7222 140.695 86.1601 142.564 86.1601C144.434 86.1601 145.991 87.7222 145.991 89.5967Z" fill="#272B49"/>
<path d="M268.751 42.2646C268.751 44.1392 267.193 45.7013 265.323 45.7013C263.454 45.7013 261.896 44.1392 261.896 42.2646C261.896 40.3901 263.454 38.828 265.323 38.828C267.193 38.828 268.751 40.3901 268.751 42.2646Z" fill="#272B49"/>
<path d="M391.354 89.5967C391.354 91.4713 389.796 93.0334 387.927 93.0334C386.058 93.0334 384.5 91.4713 384.5 89.5967C384.5 87.7222 386.058 86.1601 387.927 86.1601C389.796 86.1601 391.354 87.7222 391.354 89.5967Z" fill="#272B49"/>
<path d="M513.802 42.1084C513.802 43.9829 512.244 45.5451 510.375 45.5451C508.505 45.5451 506.947 43.9829 506.947 42.1084C506.947 40.2339 508.505 38.6718 510.375 38.6718C512.244 38.6718 513.802 40.2339 513.802 42.1084Z" fill="#272B49"/>
<path d="M9.83451 1.33719C4.53779 1.33719 0.175781 5.71112 0.175781 11.0223C0.175781 16.3335 0.175782 12.272 0.331568 12.8968C1.88943 21.0198 8.89979 36.0162 9.83451 36.0162C10.7692 36.0162 17.468 21.6447 19.3375 13.2093C19.3375 12.5844 19.4932 11.8034 19.4932 11.1785C19.4932 5.86733 15.1312 1.49341 9.83451 1.49341V1.33719ZM9.83451 17.8956C6.09565 17.8956 3.13571 14.9276 3.13571 11.1785C3.13571 7.42944 6.09565 4.46142 9.83451 4.46142C13.5734 4.46142 16.5333 7.42944 16.5333 11.1785C16.5333 14.9276 13.5734 17.8956 9.83451 17.8956ZM13.2618 11.1785C13.2618 13.0531 11.7039 14.6152 9.83451 14.6152C7.96508 14.6152 6.40722 13.0531 6.40722 11.1785C6.40722 9.30398 7.96508 7.74187 9.83451 7.74187C11.7039 7.74187 13.2618 9.30398 13.2618 11.1785ZM13.106 42.4208C13.106 44.2954 11.5482 45.8575 9.67872 45.8575C7.80929 45.8575 6.25143 44.2954 6.25143 42.4208C6.25143 40.5463 7.80929 38.9842 9.67872 38.9842C11.5482 38.9842 13.106 40.5463 13.106 42.4208Z" fill="#272B49"/>
<path d="M137.112 72.4135C134.931 74.4442 131.659 74.4442 129.478 72.4135C127.764 73.3507 125.116 76.3187 126.518 78.5057C126.986 79.1306 127.609 79.443 128.388 79.443H138.046C138.825 79.443 139.448 79.1306 139.916 78.5057C141.318 76.3187 138.669 73.5069 136.956 72.4135H137.112Z" fill="#272B49"/>
<path d="M137.735 68.1957C137.735 62.4159 129.322 62.4159 129.011 68.1957C129.011 73.9756 137.423 73.9756 137.735 68.1957Z" fill="#272B49"/>
<path d="M147.393 68.1957C147.393 73.9756 155.806 73.9756 156.117 68.1957C156.117 62.4159 147.705 62.4159 147.393 68.1957Z" fill="#272B49"/>
<path d="M155.494 72.4135C153.313 74.4442 150.042 74.4442 147.861 72.4135C146.147 73.3507 143.499 76.3187 144.901 78.5057C145.368 79.1306 145.991 79.443 146.77 79.443H156.429C157.208 79.443 157.831 79.1306 158.298 78.5057C159.701 76.3187 157.052 73.5069 155.339 72.4135H155.494Z" fill="#272B49"/>
<path d="M140.383 55.3864H144.901L148.951 58.6668C149.263 58.6668 149.574 58.6668 149.886 58.6668V55.5426H151.6C152.534 55.5426 153.313 54.7615 153.313 53.8243V45.8575C153.313 44.9202 152.534 44.1392 151.6 44.1392H140.227C139.293 44.1392 138.514 44.9202 138.514 45.8575V53.8243C138.514 54.7615 139.293 55.5426 140.227 55.5426H140.383V55.3864Z" fill="#272B49"/>
<path d="M137.423 49.7628H133.061C132.126 49.7628 131.503 50.5438 131.503 51.3249V58.042C131.503 58.9793 132.282 59.6041 133.061 59.6041H134.307V61.7911C134.307 62.1035 134.619 62.4159 134.931 62.4159H135.242L138.669 59.6041H142.564C143.499 59.6041 144.122 58.8231 144.122 58.042V56.7923H140.383C138.669 56.7923 137.423 55.3864 137.423 53.8243V49.7628Z" fill="#272B49"/>
<path d="M275.45 21.9571C273.58 25.8624 269.685 28.518 265.012 28.518C260.338 28.518 253.484 23.363 253.484 16.9584C253.484 10.5537 258.469 5.39869 265.012 5.39869C271.555 5.39869 271.088 6.64839 273.269 8.83535C274.515 10.085 275.45 11.6472 276.073 13.3655L278.565 10.8661C277.786 9.14777 276.852 7.74187 275.45 6.49218C272.645 3.68037 268.906 2.11825 265.012 2.11825C256.911 2.11825 250.212 8.83535 250.212 16.9584C250.212 25.0814 256.911 31.7985 265.012 31.7985C273.113 31.7985 278.721 26.0186 279.656 18.8329C277.942 20.395 277.319 21.9571 275.45 21.9571Z" fill="#272B49"/>
<path d="M284.797 36.7972C283.083 38.5155 280.435 38.5155 278.721 36.7972L273.736 31.7984C274.982 31.0174 276.073 30.0801 277.163 29.1429C278.254 28.2056 279.188 26.9559 279.967 25.7062L284.952 30.705C286.666 32.4233 286.666 35.0789 284.952 36.7972H284.797Z" fill="#272B49"/>
<path d="M276.073 19.4577C275.605 19.9264 274.982 19.9264 274.515 19.4577L270.932 15.8649L265.323 21.4885C264.856 21.9571 264.233 21.9571 263.766 21.4885L261.273 18.9891L257.69 22.582C257.223 21.9571 256.755 21.3323 256.444 20.5512L260.494 16.6459C260.961 16.1773 261.585 16.1773 262.052 16.6459L264.544 19.1453L270.153 13.5217C270.62 13.0531 271.243 13.0531 271.711 13.5217L275.294 17.1146L282.304 10.085C282.771 9.61641 283.395 9.61641 283.862 10.085C284.329 10.5537 284.329 11.1785 283.862 11.6472L276.073 19.4577Z" fill="#272B49"/>
<path d="M387.304 61.9473V64.6029H383.565C383.253 64.6029 382.942 64.9153 382.942 65.2277C382.942 65.5401 382.942 65.6964 383.253 65.6964C383.876 66.165 384.188 66.946 384.032 67.7271C383.876 68.5082 383.253 69.2892 382.319 69.4454C381.072 69.7579 379.982 68.9768 379.67 67.8833V67.4147C379.67 66.7898 379.982 66.165 380.449 65.8526C380.761 65.5401 380.761 65.2277 380.449 64.9153C380.449 64.9153 380.138 64.6029 379.982 64.6029H374.997V61.4786C374.997 56.3237 379.203 52.2622 384.188 52.2622H387.304V56.1674C386.681 55.855 385.746 55.6988 385.123 55.855C383.253 56.1675 382.007 57.8858 382.319 59.7603C382.63 61.4786 384.032 62.5721 385.746 62.5721C387.46 62.5721 386.836 62.5721 387.304 62.1035V61.9473Z" fill="#272B49"/>
<path d="M384.655 65.6964H387.148V69.4454C387.148 69.7579 387.46 70.0703 387.927 70.0703C388.394 70.0703 388.239 70.0703 388.394 69.7579C388.862 69.2892 389.485 68.9768 390.108 68.9768C391.354 68.9768 392.289 69.9141 392.289 71.0075C392.289 72.101 391.51 73.0383 390.575 73.1945C389.796 73.1945 389.017 73.1945 388.55 72.4135C388.239 72.101 387.927 72.101 387.615 72.4135C387.615 72.4135 387.304 72.7259 387.304 72.8821V78.0371H384.188C379.047 78.0371 374.997 73.8194 374.997 68.8206V65.6964H378.736C378.424 66.165 378.268 66.7898 378.268 67.2585C378.268 69.133 379.826 70.6951 381.696 70.6951H382.319C383.721 70.3827 384.655 69.4454 384.967 68.0395C384.967 67.2585 384.967 66.4774 384.655 65.8526V65.6964Z" fill="#272B49"/>
<path d="M400.857 65.6964V68.8206C400.857 73.9756 396.651 78.0371 391.666 78.0371H388.55V74.1318C389.173 74.4442 390.108 74.6004 390.731 74.4442C392.601 74.1318 393.847 72.4135 393.535 70.5389C393.224 68.8206 391.822 67.7271 390.108 67.7271C388.394 67.7271 389.017 67.7271 388.55 68.1957V65.6964H392.289C392.601 65.6964 392.912 65.3839 392.912 65.0715C392.912 64.7591 392.912 64.6029 392.601 64.6029C392.133 64.1342 391.822 63.6656 391.822 63.0408C391.822 61.7911 392.912 60.8538 394.003 60.8538H394.47C395.249 60.8538 396.028 61.6349 396.184 62.5721C396.184 63.3532 396.184 64.1342 395.405 64.6029C395.093 64.9153 395.093 65.2277 395.405 65.5401C395.405 65.5401 395.716 65.8526 395.872 65.8526H400.857V65.6964Z" fill="#272B49"/>
<path d="M397.118 64.4467C397.43 63.8218 397.586 63.0408 397.43 62.2597C397.118 60.8538 396.184 59.9165 394.782 59.6041C392.912 59.1355 391.043 60.3852 390.731 62.2597V62.8845C390.731 63.5094 390.731 63.978 391.198 64.4467H388.706V60.8538C388.706 60.5414 388.394 60.229 388.083 60.229H387.615C387.148 60.6976 386.525 61.01 385.902 61.1662C384.655 61.1662 383.721 60.229 383.721 58.9793V58.5106C383.877 57.7296 384.655 56.9485 385.434 56.9485C386.213 56.9485 386.992 56.9485 387.46 57.7296C387.771 58.042 388.083 58.042 388.394 57.7296C388.394 57.7296 388.706 57.4171 388.706 57.2609V52.1059H391.822C396.963 52.1059 401.013 56.3237 401.013 61.3224V64.4467H397.118Z" fill="#272B49"/>
<path d="M401.48 55.2302C403.545 55.2302 405.219 53.5517 405.219 51.4811C405.219 49.4105 403.545 47.732 401.48 47.732C399.415 47.732 397.741 49.4105 397.741 51.4811C397.741 53.5517 399.415 55.2302 401.48 55.2302Z" fill="#272B49"/>
<path d="M374.374 55.2302C376.439 55.2302 378.112 53.5517 378.112 51.4811C378.112 49.4105 376.439 47.732 374.374 47.732C372.309 47.732 370.635 49.4105 370.635 51.4811C370.635 53.5517 372.309 55.2302 374.374 55.2302Z" fill="#272B49"/>
<path d="M401.48 82.411C403.545 82.411 405.219 80.7325 405.219 78.6619C405.219 76.5914 403.545 74.9128 401.48 74.9128C399.415 74.9128 397.741 76.5914 397.741 78.6619C397.741 80.7325 399.415 82.411 401.48 82.411Z" fill="#272B49"/>
<path d="M374.374 82.411C376.438 82.411 378.112 80.7325 378.112 78.6619C378.112 76.5914 376.438 74.9128 374.374 74.9128C372.309 74.9128 370.635 76.5914 370.635 78.6619C370.635 80.7325 372.309 82.411 374.374 82.411Z" fill="#272B49"/>
<path d="M524.551 2.7431C523.928 1.80583 522.526 1.18098 521.435 1.33719C520.812 1.33719 520.345 1.64962 519.878 1.96204C519.878 1.96204 519.566 1.96204 519.566 1.80583V1.33719C519.566 0.712348 519.099 0.243713 518.476 0.243713H502.741C502.118 0.243713 501.495 0.86856 501.495 1.49341V1.80583C501.495 1.96204 501.339 2.11825 501.027 1.96204C500.56 1.64962 500.093 1.49341 499.47 1.49341C498.223 1.33719 496.977 1.80583 496.354 2.89931C496.042 3.52416 495.108 4.46143 495.419 6.96081C495.575 8.2105 496.198 9.14777 496.977 10.085C498.379 12.1158 499.937 14.1465 501.651 15.8649C502.43 18.9891 504.611 21.4885 507.571 22.4258C507.882 22.4258 508.194 22.8944 508.194 23.363V24.1441C508.194 24.3003 508.194 24.6127 507.882 24.7689C507.103 25.55 506.636 26.4873 506.636 27.5807C506.636 28.6742 506.636 28.3618 506.792 28.8304H504.611C503.832 28.8304 503.209 29.2991 503.053 30.0801L502.118 33.5168C501.806 34.6103 502.585 35.5475 503.676 35.5475H517.385C518.476 35.5475 519.254 34.454 518.943 33.5168L518.008 30.0801C517.852 29.2991 517.229 28.8304 516.45 28.8304H514.269C514.269 28.518 514.425 28.0494 514.425 27.5807C514.425 26.4873 513.958 25.3938 513.179 24.7689C513.023 24.6127 512.867 24.4565 512.867 24.1441V23.363C512.867 22.8944 513.023 22.582 513.49 22.4258C516.45 21.4885 518.631 18.9891 519.41 15.8649C519.722 14.511 519.722 14.511 519.41 15.8649C521.124 14.1465 522.682 12.1158 524.084 10.085C524.707 9.14777 525.486 8.2105 525.642 6.96081C525.953 4.46143 525.174 3.36794 524.863 2.89931H524.551V2.7431ZM501.339 6.17975V11.6472C501.339 11.8034 501.183 11.9596 501.027 11.6472C500.249 10.7099 499.47 9.4602 498.691 8.52293C498.223 7.74187 497.756 7.11702 497.6 6.49218C497.444 4.93006 497.756 4.30521 498.068 4.149C498.223 3.83658 498.691 3.68037 499.158 3.68037C499.625 3.68037 500.093 3.99279 500.404 4.46143C500.56 4.77385 500.716 5.08627 501.027 5.55491C501.027 5.71112 501.183 5.86733 501.339 6.17975ZM523.149 6.49218C523.149 7.11702 522.526 7.89808 522.059 8.52293C521.28 9.61641 520.501 10.7099 519.722 11.6472C519.722 11.8034 519.41 11.6472 519.41 11.6472V6.02354C519.41 5.71112 519.566 5.55491 519.722 5.3987C519.878 4.93006 520.189 4.61764 520.345 4.30521C520.656 3.83658 521.124 3.52416 521.591 3.52416C522.059 3.52416 522.526 3.52416 522.682 3.99279C522.837 4.46143 523.305 4.93006 523.149 6.49218Z" fill="#272B49"/>
</svg>
