<svg width="48" height="48" viewBox="0 0 48 48" fill="none" xmlns="http://www.w3.org/2000/svg">
<g clip-path="url(#clip0_4017_2932)">
<path d="M37.767 11.8679C41.0502 11.8679 43.7162 9.19147 43.7162 5.91456C43.421 -1.97227 32.1174 -1.9708 31.8179 5.91464C31.8179 9.19147 34.4924 11.8679 37.767 11.8679Z" fill="#309AE0"/>
<path d="M47.4964 15.9682C46.4506 14.0295 44.8905 12.494 43.0217 11.4904C40.3433 14.2442 35.1904 14.2433 32.5122 11.4902C29.745 13.036 26.1333 16.6413 28.1317 20.0515C28.8861 21.3039 30.2062 22.0503 31.6635 22.0503H43.8704C46.9053 22.1505 49.0121 18.587 47.4964 15.9682Z" fill="#309AE0"/>
<path d="M10.2128 11.8679C13.496 11.8679 16.162 9.19147 16.162 5.91456C15.8668 -1.97227 4.56317 -1.9708 4.26367 5.91464C4.26368 9.19147 6.93822 11.8679 10.2128 11.8679Z" fill="#309AE0"/>
<path d="M19.8479 20.0515C21.8433 16.6402 18.2415 13.0375 15.4676 11.4904C12.7891 14.2442 7.63624 14.2433 4.95796 11.4902C2.19076 13.036 -1.42086 16.6413 0.577461 20.0515C1.33191 21.3039 2.65201 22.0503 4.10931 22.0503H16.3162C17.7821 22.0503 19.1022 21.3039 19.8479 20.0515Z" fill="#309AE0"/>
<path d="M18.042 31.8623C18.042 35.1392 20.7165 37.8156 23.9911 37.8156C31.8731 37.5147 31.8703 26.2031 23.9911 25.9089C20.7165 25.9089 18.042 28.5768 18.042 31.8623Z" fill="#309AE0"/>
<path d="M29.2459 37.4381C26.5674 40.192 21.4146 40.191 18.7363 37.438C16.8761 38.4418 15.3074 39.9773 14.2615 41.916C12.7429 44.5343 14.8629 48.098 17.8877 47.9979L30.0945 47.998C33.1294 48.0982 35.2362 44.5347 33.7204 41.9159C32.6748 39.9773 31.1146 38.4418 29.2459 37.4381Z" fill="#309AE0"/>
<path d="M19.9023 12.9058C22.5511 12.1424 25.4228 12.1424 28.0717 12.9058C28.5003 12.4168 28.9546 11.9622 29.4432 11.5419C25.9458 10.3066 22.0283 10.3152 18.5308 11.5419C19.028 11.9536 19.4823 12.4083 19.9023 12.9058Z" fill="#309AE0"/>
<path d="M9.41855 26.8798C9.41855 25.8246 9.53 24.7781 9.75288 23.7659H8.00411C7.80697 24.7867 7.7041 25.8246 7.7041 26.8798C7.7041 31.838 9.97577 36.496 13.7647 39.5328C14.099 39.0695 14.4762 38.6406 14.8705 38.2288C11.4588 35.501 9.41855 31.3319 9.41855 26.8798Z" fill="#309AE0"/>
<path d="M38.2296 23.7659C38.4525 24.7781 38.564 25.8246 38.564 26.8798C38.564 31.3319 36.5238 35.4924 33.1206 38.2288C33.5149 38.6406 33.8835 39.0695 34.2264 39.5328C38.0153 36.4874 40.2784 31.838 40.2784 26.8798C40.2784 25.8246 40.1755 24.7867 39.9784 23.7659H38.2296Z" fill="#309AE0"/>
</g>
<defs>
<clipPath id="clip0_4017_2932">
<rect width="48" height="48" fill="white"/>
</clipPath>
</defs>
</svg>
