<svg width="28" height="32" viewBox="0 0 28 32" fill="none" xmlns="http://www.w3.org/2000/svg">
<path d="M4.15937 15.383H5.05844V12.1863C5.05844 11.3871 5.75771 10.6879 6.55688 10.6879H20.7422C21.5413 10.6879 22.2406 11.3871 22.2406 12.1863V15.383H23.1397C25.4373 15.383 27.3353 13.485 27.3353 11.1873C27.3353 8.73989 25.1876 6.79191 22.7401 7.04165C22.5902 5.5432 21.3915 3.89491 19.5434 3.44538C17.5954 -1.1998 10.9523 -1.04996 9.15419 3.54528C6.55688 2.69616 3.95958 4.44434 3.70984 7.04165C1.61201 7.29139 0.0136719 9.03958 0.0136719 11.1873C0.0136719 13.485 1.86175 15.383 4.15937 15.383ZM18.8941 5.29346C19.9929 5.49326 20.7921 6.39232 20.7921 7.49118C20.7921 7.79087 20.5923 7.99066 20.2926 7.99066C20.0429 7.99066 19.7931 7.79087 19.7931 7.49118C19.7931 6.8918 19.3436 6.34237 18.7442 6.24248C18.4945 6.19253 18.2947 5.94279 18.3447 5.69305C18.3946 5.44331 18.6443 5.24351 18.8941 5.29346ZM10.8025 4.59419C11.8014 1.14776 16.5965 0.99792 17.8452 4.34445C17.9451 4.59419 17.7952 4.89388 17.5455 4.99377C17.2957 5.09367 16.9961 4.94383 16.8962 4.69409C15.9971 2.24662 12.5007 2.34652 11.7515 4.84393C11.7015 5.09367 11.4019 5.24352 11.1521 5.19357C10.9024 5.14362 10.7525 4.89388 10.8025 4.59419ZM8.8545 5.49326C9.10424 5.59315 9.20414 5.89284 9.10424 6.14258C9.00434 6.39232 8.70466 6.49222 8.45491 6.39232C7.55585 5.94279 6.60683 6.59212 6.60683 7.54113C6.60683 7.84082 6.40704 8.04061 6.10735 8.04061C5.80766 8.04061 5.60787 7.84082 5.60787 7.54113C5.55792 5.84289 7.30611 4.74403 8.8545 5.49326Z" fill="#309AE0"/>
<path d="M20.7424 17.9304H6.5571C6.25741 17.9304 6.05762 18.1302 6.05762 18.4299V22.7254C6.05762 22.9752 6.25741 23.2249 6.5571 23.2249H20.7424C21.0421 23.2249 21.2419 22.9752 21.2419 22.7254V18.4299C21.2419 18.1802 20.9921 17.9304 20.7424 17.9304ZM12.0015 21.0772H8.70487C8.40518 21.0772 8.20539 20.8774 8.20539 20.5777C8.20539 20.278 8.40518 20.0782 8.70487 20.0782H12.0015C12.3011 20.0782 12.5009 20.278 12.5009 20.5777C12.5009 20.8774 12.2512 21.0772 12.0015 21.0772ZM15.7476 20.9273C15.5478 21.1271 15.2481 21.1271 15.0483 20.9273C14.8485 20.7275 14.8485 20.4278 15.0483 20.228C15.2481 20.0282 15.5977 20.0282 15.7476 20.228C15.8974 20.4278 15.9474 20.7275 15.7476 20.9273ZM18.9442 20.9273C18.7445 21.1271 18.4448 21.1271 18.245 20.9273C18.0452 20.7275 18.0452 20.4278 18.245 20.228C18.4448 20.0282 18.7445 20.0282 18.9442 20.228C19.144 20.4278 19.144 20.7275 18.9442 20.9273Z" fill="#309AE0"/>
<path d="M21.2419 12.1364C21.2419 11.8867 21.0421 11.637 20.7424 11.637H6.5571C6.25741 11.637 6.05762 11.8867 6.05762 12.1364V16.432C6.05762 16.6817 6.25741 16.9315 6.5571 16.9315H20.7424C21.0421 16.9315 21.2419 16.6817 21.2419 16.432V12.1364ZM12.0015 14.7837H8.70487C8.40518 14.7837 8.20539 14.5839 8.20539 14.2842C8.20539 13.9845 8.40518 13.7847 8.70487 13.7847H12.0015C12.3011 13.7847 12.5009 13.9845 12.5009 14.2842C12.5009 14.5839 12.2512 14.7837 12.0015 14.7837ZM15.7476 14.6838C15.5478 14.8836 15.2481 14.8836 15.0483 14.6838C14.8485 14.484 14.8485 14.1843 15.0483 13.9845C15.2481 13.7847 15.5977 13.7847 15.7476 13.9845C15.8974 14.1344 15.9474 14.484 15.7476 14.6838ZM18.9442 14.6838C18.7445 14.8836 18.4448 14.8836 18.245 14.6838C18.0452 14.484 18.0452 14.1843 18.245 13.9845C18.4448 13.7847 18.7445 13.7847 18.9442 13.9845C19.144 14.1344 19.144 14.484 18.9442 14.6838Z" fill="#309AE0"/>
<path d="M7.95534 24.973H3.01047C2.81068 24.1738 2.06146 23.5745 1.21234 23.5745C0.163429 23.5745 -0.635742 24.4236 -0.635742 25.4225C-0.635742 26.4215 0.163429 27.2706 1.16239 27.2706C2.01151 27.2706 2.71079 26.7212 2.96053 25.972H8.45483C8.75451 25.972 8.95431 25.7222 8.95431 25.4725V24.2238H7.95534V24.973Z" fill="#309AE0"/>
<path d="M16.8964 28.3694V24.2737H15.8974V28.3694C15.0983 28.5692 14.5488 29.3184 14.5488 30.1676C14.5488 31.2165 15.3979 32.0156 16.3969 32.0156C17.4458 32.0156 18.245 31.1665 18.245 30.1676C18.245 29.3184 17.6456 28.5692 16.8964 28.3694Z" fill="#309AE0"/>
<path d="M11.4023 28.3694V24.2737H10.4033V28.3694C9.60412 28.5692 9.05469 29.3184 9.05469 30.1676C9.05469 31.2165 9.90381 32.0156 10.9028 32.0156C11.9017 32.0156 12.7509 31.1665 12.7509 30.1676C12.8008 29.3184 12.2014 28.5692 11.4023 28.3694Z" fill="#309AE0"/>
<path d="M26.1365 23.5247C25.2374 23.5247 24.5382 24.124 24.3384 24.9232H19.3935V24.2239H18.3945V25.4227C18.3945 25.6724 18.6443 25.9222 18.894 25.9222H24.3883C24.6381 26.6714 25.3373 27.2208 26.1864 27.2208C27.2354 27.2208 28.0345 26.3717 28.0345 25.3727C27.9846 24.3238 27.1355 23.5247 26.1365 23.5247Z" fill="#309AE0"/>
</svg>
