<svg width="26" height="26" viewBox="0 0 26 26" fill="none" xmlns="http://www.w3.org/2000/svg">
<path d="M0.764514 12.3188H3.85525C4.22873 12.3188 4.54752 12.049 4.60924 11.6807C4.81892 10.4291 5.32195 9.21825 6.06402 8.17906C6.28114 7.87494 6.24663 7.45845 5.98242 7.19424L3.7946 5.00637C3.63961 4.85133 3.42556 4.77055 3.20661 4.7839C2.98781 4.79751 2.78532 4.90438 2.65067 5.07746C1.20884 6.93049 0.29425 9.13758 0.00583297 11.4601C-0.0211791 11.6776 0.046453 11.8963 0.191553 12.0605C0.336705 12.2247 0.54536 12.3188 0.764514 12.3188Z" fill="#272B49"/>
<path d="M6.06397 17.9877C5.3219 16.9485 4.81887 15.7376 4.60919 14.486C4.54747 14.1177 4.22868 13.8479 3.8552 13.8479H0.764463C0.545309 13.8479 0.336654 13.942 0.191553 14.1062C0.046453 14.2705 -0.0211791 14.4891 0.00583297 14.7066C0.29425 17.0291 1.20884 19.2362 2.65067 21.0892C2.78532 21.2623 2.98776 21.3692 3.20661 21.3828C3.22246 21.3837 3.23831 21.3843 3.25411 21.3843C3.45619 21.3843 3.65083 21.3041 3.7946 21.1603L5.98237 18.9725C6.24658 18.7083 6.28109 18.2918 6.06397 17.9877Z" fill="#272B49"/>
<path d="M11.55 21.4271C10.2972 21.2172 9.08622 20.7142 8.04804 19.9726C7.74393 19.7554 7.32733 19.7899 7.06312 20.0541L4.8753 22.242C4.72026 22.397 4.63928 22.6111 4.65283 22.8299C4.66644 23.0487 4.77332 23.2512 4.9463 23.3858C6.7984 24.8273 9.00564 25.7417 11.3294 26.0303C11.3609 26.0342 11.3923 26.0361 11.4237 26.0361C11.609 26.0361 11.7893 25.9686 11.9298 25.8445C12.0941 25.6994 12.1881 25.4907 12.1881 25.2716V22.1811C12.1882 21.8076 11.9183 21.4888 11.55 21.4271Z" fill="#272B49"/>
<path d="M7.06308 6.11258C7.21109 6.26058 7.40685 6.33652 7.60388 6.33652C7.75867 6.33652 7.91421 6.28969 8.048 6.19412C9.08623 5.45252 10.2972 4.94958 11.55 4.73965C11.9183 4.67793 12.1881 4.35914 12.1881 3.98566V0.895127C12.1881 0.675973 12.094 0.467318 11.9298 0.322217C11.7656 0.177117 11.547 0.109332 11.3295 0.136497C9.00565 0.425118 6.79841 1.3395 4.94631 2.78092C4.77328 2.91558 4.6664 3.11801 4.65284 3.33686C4.63923 3.55566 4.72027 3.76982 4.87531 3.92481L7.06308 6.11258Z" fill="#272B49"/>
<path d="M14.576 0.136464C14.3582 0.109401 14.1398 0.177084 13.9756 0.322236C13.8113 0.467336 13.7173 0.675991 13.7173 0.895146V3.98588C13.7173 4.35936 13.9871 4.67816 14.3554 4.73988C18.445 5.42496 21.4132 8.93393 21.4132 13.0833C21.4132 17.2327 18.445 20.7417 14.3554 21.4268C13.9871 21.4885 13.7173 21.8073 13.7173 22.1808V25.2715C13.7173 25.4907 13.8114 25.6993 13.9756 25.8444C14.1161 25.9686 14.2964 26.036 14.4817 26.036C14.513 26.036 14.5445 26.0341 14.576 26.0302C21.0888 25.2214 26.0001 19.6555 26.0001 13.0833C26.0001 6.51115 21.0888 0.945245 14.576 0.136464Z" fill="#272B49"/>
<path d="M16.5165 10.3312V9.50933H17.1356C17.5578 9.50933 17.9001 9.16704 17.9001 8.74484C17.9001 8.32263 17.5578 7.98035 17.1356 7.98035H8.8641C8.4419 7.98035 8.09961 8.32263 8.09961 8.74484C8.09961 9.16704 8.4419 9.50933 8.8641 9.50933H9.48319V10.2778C9.48319 11.4067 10.0081 12.4257 10.8296 13.0834C10.0081 13.7411 9.48319 14.7601 9.48319 15.8889V16.6574H8.8641C8.4419 16.6574 8.09961 16.9997 8.09961 17.4219C8.09961 17.8441 8.4419 18.1864 8.8641 18.1864H17.1356C17.5578 18.1864 17.9001 17.8441 17.9001 17.4219C17.9001 16.9997 17.5578 16.6574 17.1356 16.6574H16.5166V15.8355C16.5166 14.722 15.9959 13.7282 15.1857 13.0834C15.9958 12.4386 16.5165 11.4447 16.5165 10.3312Z" fill="#272B49"/>
</svg>
