<svg width="25" height="26" viewBox="0 0 25 26" fill="none" xmlns="http://www.w3.org/2000/svg">
<path d="M17.2985 19.9133C18.1209 20.7373 18.7969 21.5778 19.379 22.6121C19.4845 22.7997 19.7395 22.8349 19.891 22.6823C20.6569 21.911 20.7255 20.8835 20.2971 20.1345C19.5382 18.8036 18.4375 17.6991 17.1132 16.9397C16.3117 16.4804 15.2921 16.6207 14.6337 17.281C14.598 17.3167 14.5798 17.346 14.5492 17.3896C14.4387 17.5468 14.4871 17.7658 14.6542 17.8601C15.691 18.4451 16.4933 19.1062 17.2985 19.9133Z" fill="white"/>
<path d="M16.6877 20.5264C15.8028 19.6397 14.9 18.9242 13.6846 18.3273C13.6028 18.2871 13.5077 18.2852 13.4229 18.3188C11.0002 19.276 7.35178 15.636 8.30374 13.193C8.33717 13.1072 8.33491 13.011 8.29375 12.9286C7.20844 10.7548 5.42134 8.99542 3.37959 7.81896C3.2329 7.73446 3.04468 7.77639 2.95027 7.91717C-2.3736 15.8574 10.7087 29.0175 18.6558 23.7053C18.7932 23.6134 18.8383 23.4306 18.7608 23.2843C18.1904 22.2078 17.5162 21.3568 16.6877 20.5264Z" fill="white"/>
<path d="M8.75703 11.9593C8.85252 12.1271 9.07066 12.1767 9.22734 12.0644C9.27768 12.0283 9.31386 12.003 9.33935 11.9775C9.99934 11.315 10.1408 10.2913 9.68231 9.48741C8.92565 8.15924 7.82441 7.05531 6.49741 6.29426C5.761 5.87149 4.73845 5.92631 3.97012 6.68882C3.81938 6.83843 3.85162 7.08971 4.03352 7.19902C5.92011 8.33317 7.61933 9.95975 8.75703 11.9593Z" fill="white"/>
<path d="M19.6064 6.50015H18.4722C18.2336 6.50015 18.0401 6.30613 18.0401 6.06682V4.92931C18.0401 4.69038 17.8463 4.49597 17.6081 4.49597H17.176C16.9378 4.49597 16.7439 4.69038 16.7439 4.92931V6.06682C16.7439 6.30613 16.5505 6.50015 16.3119 6.50015H15.1777C14.9394 6.50015 14.7456 6.69456 14.7456 6.93349V7.36683C14.7456 7.60576 14.9394 7.80017 15.1777 7.80017H16.3119C16.5505 7.80017 16.7439 7.99419 16.7439 8.2335V9.37101C16.7439 9.60994 16.9378 9.80435 17.176 9.80435H17.6081C17.8463 9.80435 18.0401 9.60994 18.0401 9.37101V8.2335C18.0401 7.99419 18.2336 7.80017 18.4722 7.80017H19.6064C19.8446 7.80017 20.0385 7.60576 20.0385 7.36683V6.93349C20.0385 6.69456 19.8446 6.50015 19.6064 6.50015Z" fill="white"/>
<path d="M17.3381 4.45714e-05C13.7313 0.0127738 10.77 2.98953 10.7371 6.60681C10.7193 8.60016 11.5645 10.4532 13.0665 11.7386C12.9655 12.0062 12.838 12.2629 12.6868 12.5056C12.2417 13.2184 12.7005 14.1553 13.5375 14.2384C16.3498 14.5156 19.7432 13.9158 21.8543 11.9964C23.3017 10.6807 24.0352 8.88833 24.0352 6.66856C24.0352 3.11 21.2029 -0.0136055 17.3381 4.45714e-05ZM20.9026 7.36677C20.9026 8.08357 20.3211 8.66678 19.6064 8.66678H18.9043V9.37096C18.9043 10.0877 18.3228 10.671 17.6081 10.671H17.176C16.4613 10.671 15.8798 10.0877 15.8798 9.37096V8.66678H15.1777C14.463 8.66678 13.8815 8.08357 13.8815 7.36677V6.93344C13.8815 6.21664 14.463 5.63342 15.1777 5.63342H15.8798V4.92925C15.8798 4.21246 16.4613 3.62924 17.176 3.62924H17.6081C18.3228 3.62924 18.9043 4.21246 18.9043 4.92925V5.63342H19.6064C20.3211 5.63342 20.9026 6.21664 20.9026 6.93344V7.36677Z" fill="white"/>
<path d="M8.99694 24.2593C8.8839 24.1975 8.74601 24.2079 8.64334 24.2858C7.33724 25.2774 5.51682 25.3612 4.22023 24.7321C4.71387 24.256 5.02658 23.6471 5.06061 23.0063C5.15226 21.253 3.66815 20.6245 2.64641 21.2838C1.64255 21.9318 1.62191 23.5286 2.69016 24.6752C2.58322 24.7131 2.47304 24.7451 2.35962 24.7695C1.84708 24.8805 0.570307 24.9764 -0.206341 23.4743C-0.315979 23.262 -0.576842 23.1791 -0.788557 23.2891C-1.00027 23.3996 -1.08345 23.6607 -0.973267 23.8736C-0.244687 25.2835 1.06935 25.9352 2.54217 25.6167C2.86244 25.5473 3.16543 25.4357 3.4425 25.2906C5.03652 26.2882 7.49484 26.2974 9.24835 24.9077C9.43095 24.763 9.40416 24.4756 9.19807 24.3671C9.13088 24.3318 9.0638 24.2958 8.99694 24.2593ZM4.19754 22.9604C4.1727 23.4316 3.89725 23.8909 3.47491 24.236C3.0666 23.8649 2.81114 23.404 2.76145 22.904C2.67655 22.0499 3.38282 21.7236 3.82218 21.981C4.08953 22.1365 4.22239 22.4842 4.19754 22.9604Z" fill="white"/>
</svg>
