<svg width="368.000000" height="368.000000" viewBox="0 0 368 368" fill="none" xmlns="http://www.w3.org/2000/svg" xmlns:xlink="http://www.w3.org/1999/xlink">
	<desc>
			Created with Pixso.
	</desc>
	<defs/>
	<path id="ramecek (Border)" d="M20 0C19.11 0 18.23 0.05 17.37 0.17L17.63 2.15C18.39 2.05 19.23 2 20 2L22 2L22 0L20 0ZM30 0L26 0L26 2L30 2L30 0ZM38 0L34 0L34 2L38 2L38 0ZM46 0L42 0L42 2L46 2L46 0ZM54 0L50 0L50 2L54 2L54 0ZM62 0L58 0L58 2L62 2L62 0ZM70 0L66 0L66 2L70 2L70 0ZM78 0L74 0L74 2L78 2L78 0ZM86 0L82 0L82 2L86 2L86 0ZM94 0L90 0L90 2L94 2L94 0ZM102 0L98 0L98 2L102 2L102 0ZM110 0L106 0L106 2L110 2L110 0ZM118 0L114 0L114 2L118 2L118 0ZM126 0L122 0L122 2L126 2L126 0ZM134 0L130 0L130 2L134 2L134 0ZM142 0L138 0L138 2L142 2L142 0ZM150 0L146 0L146 2L150 2L150 0ZM158 0L154 0L154 2L158 2L158 0ZM166 0L162 0L162 2L166 2L166 0ZM174 0L170 0L170 2L174 2L174 0ZM182 0L178 0L178 2L182 2L182 0ZM190 0L186 0L186 2L190 2L190 0ZM198 0L194 0L194 2L198 2L198 0ZM206 0L202 0L202 2L206 2L206 0ZM214 0L210 0L210 2L214 2L214 0ZM222 0L218 0L218 2L222 2L222 0ZM230 0L226 0L226 2L230 2L230 0ZM238 0L234 0L234 2L238 2L238 0ZM246 0L242 0L242 2L246 2L246 0ZM254 0L250 0L250 2L254 2L254 0ZM262 0L258 0L258 2L262 2L262 0ZM270 0L266 0L266 2L270 2L270 0ZM278 0L274 0L274 2L278 2L278 0ZM286 0L282 0L282 2L286 2L286 0ZM294 0L290 0L290 2L294 2L294 0ZM302 0L298 0L298 2L302 2L302 0ZM310 2L310 0L306 0L306 2L310 2ZM318 0L314 0L314 2L318 2L318 0ZM326 0L322 0L322 2L326 2L326 0ZM334 0L330 0L330 2L334 2L334 0ZM342 0L338 0L338 2L342 2L342 0ZM348 0L346 0L346 2L348 2C348.76 2 349.52 2.04 350.27 2.14L350.62 0.17C349.76 0.05 348.88 0 348 0ZM12.35 1.51C10.72 2.18 9.2 3.07 7.82 4.13L9.03 5.72C9.74 5.17 10.48 4.69 11.25 4.26C11.85 3.92 12.47 3.62 13.12 3.35L12.35 1.51ZM360.18 4.13C358.79 3.07 357.27 2.18 355.64 1.51L354.87 3.35C355.52 3.62 356.14 3.92 356.75 4.26C357.51 4.69 358.25 5.17 358.96 5.72L360.18 4.13ZM4.13 7.82C3.07 9.2 2.18 10.72 1.51 12.35L3.35 13.12C3.62 12.47 3.92 11.85 4.26 11.25C4.69 10.48 5.17 9.74 5.72 9.03L4.13 7.82ZM366.48 12.35C365.81 10.72 364.92 9.2 363.86 7.82L362.27 9.03C362.82 9.74 363.3 10.47 363.73 11.24C364.06 11.84 364.37 12.47 364.64 13.12L366.48 12.35ZM0 20L0 22L2 22L2 20C2 19.23 2.04 18.47 2.14 17.72L0.17 17.37C0.05 18.23 0 19.11 0 20ZM368 20C368 19.11 367.94 18.23 367.83 17.37L365.84 17.63C365.94 18.39 366 19.22 366 20L366 22L368 22L368 20ZM0 26L0 30L2 30L2 26L0 26ZM368 30L368 26L366 26L366 30L368 30ZM0 34L0 38L2 38L2 34L0 34ZM368 38L368 34L366 34L366 38L368 38ZM0 42L0 46L2 46L2 42L0 42ZM368 46L368 42L366 42L366 46L368 46ZM0 50L0 54L2 54L2 50L0 50ZM368 54L368 50L366 50L366 54L368 54ZM0 58L0 62L2 62L2 58L0 58ZM368 62L368 58L366 58L366 62L368 62ZM0 66L0 70L2 70L2 66L0 66ZM368 70L368 66L366 66L366 70L368 70ZM0 74L0 78L2 78L2 74L0 74ZM368 78L368 74L366 74L366 78L368 78ZM0 82L0 86L2 86L2 82L0 82ZM368 86L368 82L366 82L366 86L368 86ZM0 90L0 94L2 94L2 90L0 90ZM368 94L368 90L366 90L366 94L368 94ZM0 98L0 102L2 102L2 98L0 98ZM368 102L368 98L366 98L366 102L368 102ZM0 106L0 110L2 110L2 106L0 106ZM368 110L368 106L366 106L366 110L368 110ZM368 118L368 114L366 114L366 118L368 118ZM0 114L0 118L2 118L2 114L0 114ZM0 122L0 126L2 126L2 122L0 122ZM368 126L368 122L366 122L366 126L368 126ZM0 130L0 134L2 134L2 130L0 130ZM368 134L368 130L366 130L366 134L368 134ZM0 138L0 142L2 142L2 138L0 138ZM368 142L368 138L366 138L366 142L368 142ZM0 146L0 150L2 150L2 146L0 146ZM368 150L368 146L366 146L366 150L368 150ZM368 158L368 154L366 154L366 158L368 158ZM0 154L0 158L2 158L2 154L0 154ZM0 162L0 166L2 166L2 162L0 162ZM368 166L368 162L366 162L366 166L368 166ZM0 170L0 174L2 174L2 170L0 170ZM368 174L368 170L366 170L366 174L368 174ZM0 178L0 182L2 182L2 178L0 178ZM368 182L368 178L366 178L366 182L368 182ZM0 186L0 190L2 190L2 186L0 186ZM368 190L368 186L366 186L366 190L368 190ZM368 198L368 194L366 194L366 198L368 198ZM0 194L0 198L2 198L2 194L0 194ZM0 202L0 206L2 206L2 202L0 202ZM368 206L368 202L366 202L366 206L368 206ZM0 210L0 214L2 214L2 210L0 210ZM368 214L368 210L366 210L366 214L368 214ZM0 218L0 222L2 222L2 218L0 218ZM368 222L368 218L366 218L366 222L368 222ZM0 226L0 230L2 230L2 226L0 226ZM368 230L368 226L366 226L366 230L368 230ZM368 238L368 234L366 234L366 238L368 238ZM0 234L0 238L2 238L2 234L0 234ZM0 242L0 246L2 246L2 242L0 242ZM368 246L368 242L366 242L366 246L368 246ZM0 250L0 254L2 254L2 250L0 250ZM368 254L368 250L366 250L366 254L368 254ZM0 258L0 262L2 262L2 258L0 258ZM368 262L368 258L366 258L366 262L368 262ZM0 266L0 270L2 270L2 266L0 266ZM368 270L368 266L366 266L366 270L368 270ZM0 274L0 278L2 278L2 274L0 274ZM368 278L368 274L366 274L366 278L368 278ZM0 282L0 286L2 286L2 282L0 282ZM368 286L368 282L366 282L366 286L368 286ZM0 290L0 294L2 294L2 290L0 290ZM368 294L368 290L366 290L366 294L368 294ZM0 298L0 302L2 302L2 298L0 298ZM368 302L368 298L366 298L366 302L368 302ZM0 306L0 310L2 310L2 306L0 306ZM368 310L368 306L366 306L366 310L368 310ZM0 314L0 318L2 318L2 314L0 314ZM368 318L368 314L366 314L366 318L368 318ZM0 322L0 326L2 326L2 322L0 322ZM368 326L368 322L366 322L366 326L368 326ZM0 330L0 334L2 334L2 330L0 330ZM368 334L368 330L366 330L366 334L368 334ZM0 338L0 342L2 342L2 338L0 338ZM368 342L368 338L366 338L366 342L368 342ZM0 348C0 348.88 0.05 349.76 0.17 350.62L2.15 350.36C2.05 349.61 2 348.76 2 348L2 346L0 346L0 348ZM368 348L368 346L366 346L366 348C366 348.77 365.95 349.54 365.85 350.3L367.83 350.62C367.94 349.76 368 348.88 368 348ZM1.51 355.64C2.18 357.27 3.07 358.79 4.13 360.18L5.72 358.96C5.17 358.25 4.69 357.51 4.26 356.74C3.92 356.14 3.62 355.51 3.35 354.87L1.51 355.64ZM363.86 360.18C364.92 358.79 365.81 357.27 366.48 355.64L364.64 354.87C364.37 355.52 364.07 356.14 363.73 356.75C363.3 357.51 362.82 358.25 362.27 358.96L363.86 360.18ZM7.82 363.86C9.2 364.92 10.72 365.81 12.35 366.48L13.12 364.64C12.48 364.37 11.86 364.07 11.26 363.74C10.49 363.31 9.74 362.82 9.03 362.27L7.82 363.86ZM355.64 366.48C357.27 365.81 358.79 364.92 360.18 363.86L358.96 362.27C358.25 362.82 357.52 363.3 356.75 363.73C356.15 364.07 355.52 364.37 354.87 364.64L355.64 366.48ZM348 368C348.88 368 349.76 367.94 350.62 367.83L350.36 365.84C349.6 365.94 348.77 366 348 366L346 366L346 368L348 368ZM20 368L22 368L22 366L20 366C19.22 366 18.45 365.95 17.69 365.85L17.37 367.83C18.23 367.94 19.11 368 20 368ZM26 368L30 368L30 366L26 366L26 368ZM34 368L38 368L38 366L34 366L34 368ZM42 368L46 368L46 366L42 366L42 368ZM50 368L54 368L54 366L50 366L50 368ZM58 368L62 368L62 366L58 366L58 368ZM66 368L70 368L70 366L66 366L66 368ZM74 368L78 368L78 366L74 366L74 368ZM82 368L86 368L86 366L82 366L82 368ZM90 368L94 368L94 366L90 366L90 368ZM98 368L102 368L102 366L98 366L98 368ZM106 368L110 368L110 366L106 366L106 368ZM114 368L118 368L118 366L114 366L114 368ZM122 368L126 368L126 366L122 366L122 368ZM130 368L134 368L134 366L130 366L130 368ZM138 368L142 368L142 366L138 366L138 368ZM146 368L150 368L150 366L146 366L146 368ZM154 368L158 368L158 366L154 366L154 368ZM162 368L166 368L166 366L162 366L162 368ZM170 368L174 368L174 366L170 366L170 368ZM178 368L182 368L182 366L178 366L178 368ZM186 368L190 368L190 366L186 366L186 368ZM194 368L198 368L198 366L194 366L194 368ZM202 368L206 368L206 366L202 366L202 368ZM210 368L214 368L214 366L210 366L210 368ZM218 368L222 368L222 366L218 366L218 368ZM226 368L230 368L230 366L226 366L226 368ZM234 368L238 368L238 366L234 366L234 368ZM242 368L246 368L246 366L242 366L242 368ZM250 368L254 368L254 366L250 366L250 368ZM258 368L262 368L262 366L258 366L258 368ZM266 368L270 368L270 366L266 366L266 368ZM274 368L278 368L278 366L274 366L274 368ZM282 368L286 368L286 366L282 366L282 368ZM290 368L294 368L294 366L290 366L290 368ZM298 368L302 368L302 366L298 366L298 368ZM306 368L310 368L310 366L306 366L306 368ZM314 368L318 368L318 366L314 366L314 368ZM322 368L326 368L326 366L322 366L322 368ZM330 368L334 368L334 366L330 366L330 368ZM338 368L342 368L342 366L338 366L338 368Z" fill="#309AE0" fill-opacity="1.000000" fill-rule="evenodd"/>
</svg>
