<svg width="180" height="180" viewBox="0 0 180 180" fill="none" xmlns="http://www.w3.org/2000/svg">
<path d="M45.7869 48.6095L30.1924 49.8143C25.8531 50.1497 21.9884 52.4239 19.5886 56.0537L1.6039 83.2546C-0.216121 86.0073 -0.505455 89.4523 0.829417 92.4701C2.16464 95.4879 4.90856 97.5909 8.16928 98.0961L22.4479 100.307C25.788 82.5817 33.7839 64.8997 45.7869 48.6095Z" fill="#272B49"/>
<path d="M79.6924 157.552L81.904 171.83C82.4092 175.091 84.5122 177.835 87.5297 179.17C88.7851 179.725 90.114 180 91.4362 180C93.2935 180 95.1378 179.459 96.7455 178.395L123.947 160.411C127.577 158.011 129.851 154.146 130.186 149.807L131.391 134.213C115.1 146.216 97.4184 154.212 79.6924 157.552Z" fill="#272B49"/>
<path d="M74.3223 147.655C74.818 147.655 75.3165 147.614 75.8139 147.531C83.2403 146.29 90.3981 144.198 97.2261 141.46L38.5402 82.774C35.8022 89.6017 33.7105 96.7594 32.4687 104.186C31.9794 107.114 32.9613 110.096 35.0597 112.195L67.8054 144.94C69.5477 146.682 71.8993 147.655 74.3223 147.655Z" fill="#272B49"/>
<path d="M165.647 79.8051C180.008 52.041 180.54 22.7013 179.789 8.94122C179.533 4.22645 175.774 0.467574 171.059 0.210584C168.818 0.0882415 166.163 0 163.17 0C147.784 0 123.438 2.33049 100.195 14.3528C81.723 23.9071 57.5015 44.9448 43.2113 72.5922C43.3801 72.724 43.545 72.8639 43.7004 73.0193L106.981 136.3C107.137 136.455 107.276 136.62 107.408 136.789C135.055 122.498 156.093 98.2768 165.647 79.8051ZM104.659 38.0528C114.939 27.7729 131.666 27.7718 141.947 38.0528C146.927 43.0327 149.67 49.6543 149.67 56.6971C149.67 63.7399 146.927 70.3615 141.947 75.3414C136.807 80.4808 130.054 83.0511 123.303 83.0518C116.55 83.0521 109.8 80.4822 104.659 75.3414C99.6785 70.3615 96.9357 63.7399 96.9357 56.6971C96.9357 49.6543 99.6785 43.0327 104.659 38.0528Z" fill="#272B49"/>
<path d="M112.116 67.8836C118.285 74.0518 128.322 74.0521 134.49 67.8836C137.478 64.8953 139.123 60.9227 139.123 56.6969C139.123 52.4711 137.478 48.4984 134.49 45.5105C131.406 42.4262 127.355 40.8843 123.303 40.8843C119.252 40.8843 115.201 42.4262 112.117 45.5105C109.129 48.4984 107.483 52.4711 107.483 56.6969C107.483 60.9227 109.128 64.8957 112.116 67.8836Z" fill="#272B49"/>
<path d="M5.38075 148.337C6.73039 148.337 8.08004 147.822 9.10942 146.792L26.3265 129.575C28.3859 127.515 28.3859 124.177 26.3265 122.117C24.2674 120.058 20.9282 120.058 18.8688 122.117L1.65172 139.334C-0.40773 141.394 -0.40773 144.732 1.65172 146.792C2.68145 147.822 4.0311 148.337 5.38075 148.337Z" fill="#272B49"/>
<path d="M42.1049 137.895C40.0458 135.836 36.7067 135.836 34.6472 137.895L1.54584 170.997C-0.513611 173.056 -0.513611 176.395 1.54584 178.455C2.57557 179.484 3.92522 179.999 5.27486 179.999C6.62451 179.999 7.97416 179.484 9.00354 178.454L42.1045 145.353C44.1644 143.294 44.1644 139.955 42.1049 137.895Z" fill="#272B49"/>
<path d="M50.4252 153.674L33.2084 170.891C31.149 172.95 31.149 176.289 33.2084 178.349C34.2382 179.378 35.5878 179.893 36.9371 179.893C38.2864 179.893 39.6364 179.379 40.6658 178.349L57.8828 161.132C59.9423 159.072 59.9423 155.733 57.8828 153.674C55.8237 151.614 52.4846 151.614 50.4252 153.674Z" fill="#272B49"/>
</svg>
