<svg width="180" height="180" viewBox="0 0 180 180" fill="none" xmlns="http://www.w3.org/2000/svg">
<path d="M155.097 28.8806L122.485 61.4922C129.178 69.1088 133.242 79.088 133.242 90C133.242 100.912 129.178 110.891 122.485 118.508L155.097 151.12C170.722 134.504 179.297 112.912 179.297 90C179.297 67.088 170.722 45.4964 155.097 28.8806ZM158.869 122.808C158.568 123.438 158.254 124.071 157.937 124.689C157.439 125.661 156.454 126.219 155.432 126.219C155 126.219 154.562 126.12 154.151 125.909C152.769 125.201 152.223 123.506 152.932 122.123C153.225 121.551 153.515 120.965 153.795 120.38C154.465 118.979 156.145 118.386 157.546 119.057C158.947 119.727 159.54 121.406 158.869 122.808ZM161.333 110.476C161.109 110.476 160.882 110.45 160.655 110.393C159.147 110.02 158.228 108.495 158.601 106.987C159.97 101.459 160.664 95.7441 160.664 90C160.664 82.1193 159.37 74.3767 156.818 66.9874C156.311 65.5193 157.09 63.9181 158.558 63.411C160.026 62.9036 161.628 63.6826 162.135 65.1513C164.891 73.1325 166.289 81.4928 166.289 90C166.289 96.1993 165.54 102.37 164.061 108.339C163.744 109.62 162.596 110.476 161.333 110.476Z" fill="#272B49"/>
<path d="M90.0003 133.242C79.0884 133.242 69.1093 129.178 61.4926 122.485L28.8809 155.097C45.4967 170.722 67.0884 179.297 90.0003 179.297C112.912 179.297 134.504 170.722 151.12 155.097L118.508 122.486C110.891 129.178 100.912 133.242 90.0003 133.242Z" fill="#272B49"/>
<path d="M46.7578 90C46.7578 79.0881 50.8224 69.1089 57.5147 61.4922L24.9031 28.8806C9.27828 45.4964 0.703125 67.088 0.703125 90C0.703125 112.912 9.27823 134.503 24.903 151.119L57.5148 118.508C50.8225 110.891 46.7578 100.912 46.7578 90Z" fill="#272B49"/>
<path d="M90.0002 46.7578C100.912 46.7578 110.891 50.8224 118.508 57.5146L151.119 24.9031C134.504 9.2783 112.912 0.703125 90.0002 0.703125C67.0883 0.703125 45.4967 9.2783 28.8809 24.9031L61.4924 57.5146C69.1091 50.8224 79.0883 46.7578 90.0002 46.7578Z" fill="#272B49"/>
</svg>
