<svg width="282" height="280" viewBox="0 0 282 280" fill="none" xmlns="http://www.w3.org/2000/svg">
<path d="M282 117.274L264.082 166.442L172.048 187.514L189.966 138.346L282 117.274Z" fill="#272B49"/>
<path d="M228.246 264.367L246.164 215.198L189.966 138.346L172.048 187.515L228.246 264.367Z" fill="#272B49"/>
<path d="M171.64 0.342529L208.698 37.1156L189.965 130.908L152.907 94.1346L171.64 0.342529Z" fill="#272B49"/>
<path d="M282 110.66L244.942 73.8872L152.907 94.5463L189.965 131.319L282 110.66Z" fill="#272B49"/>
<path d="M69.4277 279.652L121.146 276.346L167.163 192.884L115.445 196.189L69.4277 279.652Z" fill="#272B49"/>
<path d="M223.767 269.323L172.049 272.628L115.443 195.777L167.162 192.471L223.767 269.323Z" fill="#272B49"/>
<path d="M39.2912 49.5127L26.2598 85.0463L66.9829 140.413L80.0144 104.879L39.2912 49.5127Z" fill="#272B49"/>
<path d="M0.604492 155.699L13.6359 120.165L80.0147 104.877L66.9833 140.411L0.604492 155.699Z" fill="#272B49"/>
<path d="M154.132 38.3535L116.666 40.8326L83.2734 101.157L120.739 98.6779L154.132 38.3535Z" fill="#272B49"/>
<path d="M42.5469 45.7918L80.0122 43.3127L120.735 98.679L83.2701 101.158L42.5469 45.7918Z" fill="#272B49"/>
<path d="M80.4212 239.988L53.9512 213.545L67.3898 145.783L93.8599 172.227L80.4212 239.988Z" fill="#272B49"/>
<path d="M0.604492 160.657L27.0746 187.101L93.4533 172.226L66.9833 145.782L0.604492 160.657Z" fill="#272B49"/>
</svg>
