<svg width="180" height="180" viewBox="0 0 180 180" fill="none" xmlns="http://www.w3.org/2000/svg">
<path d="M178.787 108.879C172.565 116.965 164.55 123.504 155.41 128.004C151.684 104.836 131.577 87.0469 107.356 87.0469C102.927 87.0469 98.4978 87.6445 94.2444 88.8398C93.014 87.5039 91.7485 86.2734 90.4479 85.0781C88.3035 83.1094 85.9835 81.2812 83.5579 79.6289C91.3267 68.5195 102.119 60.5039 114.457 57.3398C118.113 58.8164 122.12 59.625 126.304 59.625C130.487 59.625 134.494 58.8164 138.15 57.3398C158.222 62.543 174.287 80.6133 179.806 103.957C180.228 105.68 179.841 107.473 178.787 108.879Z" fill="#272B49"/>
<path d="M126.304 55.7578C141.699 55.7578 154.18 43.276 154.18 27.8789C154.18 12.4818 141.699 0 126.304 0C110.908 0 98.4275 12.4818 98.4275 27.8789C98.4275 43.276 110.908 55.7578 126.304 55.7578Z" fill="#272B49"/>
<path d="M89.6745 90.3867C83.0658 83.707 75.1213 78.8203 66.3683 76.3945C58.2832 79.8399 49.1083 79.8399 41.0232 76.3945C21.3025 81.8438 5.62444 99.7734 0.140619 122.766C-0.281213 124.488 0.105467 126.281 1.1952 127.688C13.7096 144 33.1138 153.562 53.643 153.562C56.3849 153.562 59.1268 153.387 61.8687 153.07C52.3775 128.074 64.7513 100.09 89.6745 90.3867Z" fill="#272B49"/>
<path d="M53.6782 74.6016C69.0737 74.6016 81.5542 62.1198 81.5542 46.7227C81.5542 31.3256 69.0737 18.8438 53.6782 18.8438C38.2826 18.8438 25.8021 31.3256 25.8021 46.7227C25.8021 62.1198 38.2826 74.6016 53.6782 74.6016Z" fill="#272B49"/>
<path d="M107.356 91.4062C82.89 91.4062 63.0639 111.234 63.0639 135.703C63.0639 160.172 82.89 180 107.356 180C131.823 180 151.649 160.172 151.649 135.703C151.649 111.234 131.823 91.4062 107.356 91.4062ZM132.104 120.516L97.7596 154.863C96.6699 155.953 94.8771 155.953 93.7874 154.863L79.7966 140.871C78.7069 139.781 78.7069 137.988 79.7966 136.898C80.8863 135.809 82.6791 135.809 83.7689 136.898L95.7559 148.887L128.096 116.543C129.186 115.453 130.979 115.453 132.069 116.543C133.158 117.633 133.194 119.426 132.104 120.516Z" fill="#272B49"/>
</svg>
