<svg width="180" height="160" viewBox="0 0 180 160" fill="none" xmlns="http://www.w3.org/2000/svg">
<path d="M77.6816 96.1719H102.318V106.735H77.6816V96.1719Z" fill="#272B49"/>
<path d="M140.945 106.727H112.865V117.282H67.1347V106.727H39.055C23.2169 106.727 9.08981 99.2673 0 87.6753V159.788H180V87.6753C170.91 99.2673 156.783 106.727 140.945 106.727Z" fill="#272B49"/>
<path d="M39.055 96.1801H67.1347V85.625H112.865V96.1801H140.945C162.258 96.1801 179.637 79.0208 180 57.7925V22.0087H126.211V0.898438H53.7891V22.0087H0V57.7911C0.362549 79.0208 17.7415 96.1801 39.055 96.1801ZM64.3359 11.4453H115.664V22.0087H64.3359V11.4453Z" fill="#272B49"/>
</svg>
