<svg width="64" height="64" viewBox="0 0 64 64" fill="none" xmlns="http://www.w3.org/2000/svg">
<path d="M45.0066 35.3C41.7066 42.0934 34.7199 46.9531 26.5602 46.9531C18.4004 46.9531 6.18008 37.8266 6.18008 26.5602C6.18008 15.2938 15.1133 6.18008 26.5602 6.18008C38.007 6.18008 37.2336 8.31993 41.1137 12.2C43.4469 14.5332 44.9937 17.2531 45.9605 20.1535L50.4207 15.6934C49.0672 12.7801 47.3141 10.2535 44.9809 7.93321C39.9277 3.08633 33.3277 0.17305 26.341 0.17305C12.0066 0.353519 0.160156 12.2 0.160156 26.5602C0.160156 40.9203 12.0066 52.7668 26.3668 52.7668C40.727 52.7668 50.8203 42.4801 52.3801 29.8602C49.4668 32.5801 48.3066 35.3 45.0066 35.3Z" fill="#309AE0"/>
<path d="M61.5066 61.5066C58.5933 64.4199 53.7465 64.4199 50.6398 61.5066L41.7066 52.5734C43.8465 51.2199 45.9734 49.6602 47.7266 47.9199C49.4797 46.1797 51.2199 44.0398 52.5734 41.7066L61.5066 50.6398C64.4199 53.5531 64.6133 58.4 61.5066 61.5066Z" fill="#309AE0"/>
<path d="M59.7535 17.2531L56.0668 20.9398L45.9734 30.8398C45.2 31.6133 44.0269 31.6133 43.2535 30.8398L36.8469 24.4332L26.7535 34.5266C25.9801 35.3 24.807 35.3 24.0336 34.5266L19.5734 30.0664L13.1668 36.4731C12.3934 35.5063 11.6199 34.1398 11.027 32.9797L18.207 26.1863C18.9805 25.4129 20.1535 25.4129 20.927 26.1863L25.3871 30.6465L35.4805 20.5531C36.2539 19.7797 37.427 19.7797 38.2004 20.5531L44.607 26.9598L57.0336 14.5332C57.807 13.7598 58.9801 13.7598 59.7535 14.5332C60.5269 15.3066 60.5269 16.4797 59.7535 17.2531Z" fill="#309AE0"/>
</svg>
