<svg width="256" height="45" viewBox="0 0 256 45" fill="none" xmlns="http://www.w3.org/2000/svg">
<path d="M0.295898 6.99786H4.54862V30.9502H0.295898V6.99786ZM14.9282 10.5347H7.78241V6.99786H26.2943V10.5347H19.1816V30.9502H14.9282V10.5347ZM56.7514 21.6858C56.7514 25.1559 56.4787 31.2542 46.2022 31.2542C35.8913 31.2542 35.6529 25.1906 35.6529 21.7198V16.2296C35.6529 12.7588 35.8907 6.69583 46.2022 6.69583C56.4794 6.69583 56.7514 12.7928 56.7514 16.2635V21.6858ZM39.907 21.7198C39.907 26.6727 42.1529 27.716 46.2022 27.716C50.762 27.716 52.4981 26.2673 52.4981 21.6858V16.2629C52.4294 11.5134 50.5923 10.2326 46.2022 10.2326C41.8458 10.2326 39.907 11.4454 39.907 16.2296V21.7198ZM65.0555 30.7155V37.6551H60.9044V13.7015H64.2049L64.477 14.5788C66.0764 13.7695 68.3566 13.3988 69.3432 13.3988C74.2101 13.3988 76.4896 15.7235 76.4896 20.6084V24.2466C76.4896 29.2994 73.9717 31.2208 69.2415 31.2542C67.3014 31.2542 66.0084 30.9842 65.0555 30.7155ZM65.0555 27.4474C65.9404 27.7161 67.199 27.8507 68.6624 27.8507C71.2827 27.8507 72.3723 27.1787 72.3723 24.2466V20.4397C72.3723 17.779 71.6234 16.8009 68.6624 16.8009C67.7781 16.8009 66.0427 17.0376 65.0555 17.3063V27.4474ZM83.8744 23.4045C83.8744 27.6827 86.1197 27.9181 88.9103 27.9181C89.6935 27.9181 92.4492 27.7154 93.7765 27.4134V30.6475C92.4836 30.9162 90.4754 31.2542 88.5353 31.2542C81.7983 31.2542 79.7221 28.8627 79.7221 22.3938C79.7221 14.8809 82.7505 13.3981 87.7871 13.3981C92.2788 13.3981 95.0689 14.9482 95.0689 20.6424C95.0689 21.4498 95.0002 22.3605 94.8991 23.4045H83.8744ZM91.0545 20.5744C91.0882 20.3057 91.0882 20.0691 91.0882 19.8337C91.0882 17.509 89.7952 16.7676 87.7877 16.7676C85.6099 16.7676 84.1808 17.509 83.9425 20.5744H91.0545ZM102.454 15.2515C104.564 14.4768 106.776 13.4661 109.09 13.3988V17.2063C107.797 17.2396 104.667 17.4429 102.761 18.1156V30.9508H98.6091V13.7015H101.979L102.454 15.2515ZM111.439 20.4397C111.439 17.947 111.677 13.3981 119.401 13.3981C122.021 13.3981 124.233 13.7008 126.786 14.4102V30.9502H123.486L123.213 30.1095C121.205 31.1189 119.027 31.2542 118.415 31.2542C112.323 31.2542 111.439 27.4814 111.439 24.1792V20.4397ZM115.625 24.2132C115.693 26.8747 116.373 27.8507 119.333 27.8507C120.184 27.8507 121.681 27.6154 122.634 27.3127V17.0703C121.613 16.9016 120.218 16.8009 119.333 16.8009C116.271 16.8009 115.625 17.9136 115.625 20.5738V24.2132ZM141.283 30.9842C140.228 31.1522 139.037 31.2542 138.117 31.2542C134.034 31.2542 132.367 28.7614 132.298 25.9986V16.8349H129.746V13.7015H132.434L133.15 9.22194H136.45V13.7015H141.249V16.8349H136.45V25.6959C136.45 27.01 136.995 27.9521 139.036 27.9521C139.649 27.9521 140.466 27.9181 141.282 27.8174L141.283 30.9842ZM146.559 11.2767C145.027 11.2767 144.244 10.9394 144.244 9.1193C144.244 7.0652 144.891 6.69517 146.559 6.69517C148.26 6.69517 148.907 7.0652 148.907 9.1193C148.906 10.9394 148.124 11.2767 146.559 11.2767ZM144.482 13.7015H148.634V30.9508H144.482V13.7015ZM168.814 24.2466C168.814 26.672 168.644 31.2542 160.681 31.2542C152.718 31.2542 152.514 26.672 152.514 24.2466V20.4057C152.514 18.0143 152.718 13.3981 160.681 13.3981C168.644 13.3981 168.814 18.0143 168.814 20.4057V24.2466ZM164.662 20.4057C164.662 17.4076 163.403 16.8009 160.681 16.8009C157.89 16.8009 156.666 17.4423 156.666 20.4057V24.2466C156.666 27.2447 158.027 27.8841 160.681 27.8841C163.471 27.8841 164.629 27.178 164.662 24.2466V20.4057ZM181.099 13.3988C186.373 13.3988 187.938 15.3522 187.938 20.0691V30.9508H183.787V20.8444C183.787 18.2157 183.446 16.8009 180.486 16.8009C179.567 16.8009 177.9 17.0376 176.878 17.3736V30.9502H172.727V13.7015H176.028L176.3 14.5455C177.934 13.7688 179.874 13.3988 181.099 13.3988ZM191.478 26.672C193.587 27.548 195.766 27.8507 197.161 27.8507C199.849 27.8507 200.462 27.548 200.462 26.234C200.462 25.2573 199.645 24.8526 198.726 24.4152L195.493 22.8992C192.839 21.6525 191.818 20.5411 191.818 17.981C191.818 14.9149 193.349 13.3988 199.168 13.3988C200.019 13.3988 202.095 13.5335 203.864 14.1401V17.5436C201.992 16.8683 199.202 16.8356 199.032 16.8356C196.445 16.8356 195.969 17.3409 195.969 18.1496C195.969 19.025 196.276 19.161 197.228 19.6317L201.345 21.5851C203.796 22.7312 204.646 23.8765 204.646 26.3013C204.646 29.9068 202.775 31.2542 197.161 31.2542C195.493 31.2542 193.553 30.9162 191.477 30.2441L191.478 26.672Z" fill="white"/>
<path d="M255.752 18.8995L252.83 26.6936L237.898 30.0147L240.82 22.2199L255.752 18.8995Z" fill="url(#paint0_radial_54_110)"/>
<path d="M247.02 42.1876L249.943 34.3942L240.816 22.2317L237.894 30.0251L247.02 42.1876Z" fill="url(#paint1_radial_54_110)"/>
<path d="M237.854 0.398193L243.842 6.22839L240.788 21.0752L234.802 15.245L237.854 0.398193Z" fill="url(#paint2_radial_54_110)"/>
<path d="M255.741 17.8182L249.756 11.9886L234.811 15.2535L240.797 21.0843L255.741 17.8182Z" fill="url(#paint3_radial_54_110)"/>
<path d="M221.284 44.5849L229.664 44.0345L237.137 30.8122L228.758 31.362L221.284 44.5849Z" fill="url(#paint4_radial_54_110)"/>
<path d="M246.321 42.9401L237.942 43.4912L228.77 31.362L237.149 30.8109L246.321 42.9401Z" fill="url(#paint5_radial_54_110)"/>
<path d="M216.438 8.19358L214.329 13.8165L220.913 22.5899L223.021 16.967L216.438 8.19358Z" fill="url(#paint6_radial_54_110)"/>
<path d="M210.138 24.9932L212.246 19.3709L223.019 16.9761L220.91 22.5998L210.138 24.9932Z" fill="url(#paint7_radial_54_110)"/>
<path d="M235.02 6.4219L228.973 6.81873L223.584 16.3577L229.629 15.9602L235.02 6.4219Z" fill="url(#paint8_radial_54_110)"/>
<path d="M216.958 7.60782L223.002 7.21164L229.619 15.9602L223.574 16.3577L216.958 7.60782Z" fill="url(#paint9_radial_54_110)"/>
<path d="M223.067 38.2977L218.747 34.0915L220.95 23.3816L225.267 27.5886L223.067 38.2977Z" fill="url(#paint10_radial_54_110)"/>
<path d="M210.162 25.7306L214.481 29.9369L225.262 27.582L220.943 23.3745L210.162 25.7306Z" fill="url(#paint11_radial_54_110)"/>
<defs>
<radialGradient id="paint0_radial_54_110" cx="0" cy="0" r="1" gradientUnits="userSpaceOnUse" gradientTransform="translate(127.997 22.4889) rotate(-36.5398) scale(46.2101 67.7547)">
<stop stop-color="#009FE3"/>
<stop offset="1" stop-color="#0075BF"/>
</radialGradient>
<radialGradient id="paint1_radial_54_110" cx="0" cy="0" r="1" gradientUnits="userSpaceOnUse" gradientTransform="translate(128.014 22.4892) rotate(164.436) scale(57.1115 45.2484)">
<stop stop-color="#009FE3"/>
<stop offset="1" stop-color="#0075BF"/>
</radialGradient>
<radialGradient id="paint2_radial_54_110" cx="0" cy="0" r="1" gradientUnits="userSpaceOnUse" gradientTransform="translate(127.847 22.4915) rotate(-175.788) scale(150.629 22.0698)">
<stop stop-color="#009FE3"/>
<stop offset="1" stop-color="#0075BF"/>
</radialGradient>
<radialGradient id="paint3_radial_54_110" cx="0" cy="0" r="1" gradientUnits="userSpaceOnUse" gradientTransform="translate(128.07 22.4644) rotate(21.1872) scale(69.5855 46.9051)">
<stop stop-color="#009FE3"/>
<stop offset="1" stop-color="#0075BF"/>
</radialGradient>
<radialGradient id="paint4_radial_54_110" cx="0" cy="0" r="1" gradientUnits="userSpaceOnUse" gradientTransform="translate(128.32 22.4968) rotate(179.25) scale(119.919 23.7365)">
<stop stop-color="#009FE3"/>
<stop offset="1" stop-color="#0075BF"/>
</radialGradient>
<radialGradient id="paint5_radial_54_110" cx="0" cy="0" r="1" gradientUnits="userSpaceOnUse" gradientTransform="translate(128.028 22.423) rotate(-0.900972) scale(108.309 25.7781)">
<stop stop-color="#009FE3"/>
<stop offset="1" stop-color="#0075BF"/>
</radialGradient>
<radialGradient id="paint6_radial_54_110" cx="0" cy="0" r="1" gradientUnits="userSpaceOnUse" gradientTransform="translate(127.999 22.4911) rotate(-15.5634) scale(57.1138 45.2478)">
<stop stop-color="#009FE3"/>
<stop offset="1" stop-color="#0075BF"/>
</radialGradient>
<radialGradient id="paint7_radial_54_110" cx="0" cy="0" r="1" gradientUnits="userSpaceOnUse" gradientTransform="translate(127.99 22.4908) rotate(143.454) scale(46.2116 67.7613)">
<stop stop-color="#009FE3"/>
<stop offset="1" stop-color="#0075BF"/>
</radialGradient>
<radialGradient id="paint8_radial_54_110" cx="0" cy="0" r="1" gradientUnits="userSpaceOnUse" gradientTransform="translate(124.043 22.0804) rotate(-0.750234) scale(119.907 23.7339)">
<stop stop-color="#009FE3"/>
<stop offset="1" stop-color="#0075BF"/>
</radialGradient>
<radialGradient id="paint9_radial_54_110" cx="0" cy="0" r="1" gradientUnits="userSpaceOnUse" gradientTransform="translate(128.468 22.4706) rotate(179.099) scale(108.305 25.7821)">
<stop stop-color="#009FE3"/>
<stop offset="1" stop-color="#0075BF"/>
</radialGradient>
<radialGradient id="paint10_radial_54_110" cx="0" cy="0" r="1" gradientUnits="userSpaceOnUse" gradientTransform="translate(127.861 22.4904) rotate(4.21113) scale(150.662 22.0701)">
<stop stop-color="#009FE3"/>
<stop offset="1" stop-color="#0075BF"/>
</radialGradient>
<radialGradient id="paint11_radial_54_110" cx="0" cy="0" r="1" gradientUnits="userSpaceOnUse" gradientTransform="translate(217.714 26.6506) rotate(-135.759) scale(5.35291 5.35175)">
<stop stop-color="#009FE3"/>
<stop offset="1" stop-color="#0075BF"/>
</radialGradient>
</defs>
</svg>
