<svg width="253" height="45" viewBox="0 0 253 45" fill="none" xmlns="http://www.w3.org/2000/svg">
<path d="M0.260742 8.96058H4.43717V32.8995H0.260742V8.96058ZM14.7477 12.4926H7.7V8.96058H25.9719V12.4926H18.9241V32.8995H14.7477V12.4926ZM56.0552 23.6771C56.0552 27.1437 55.7941 33.2266 45.6141 33.2266C35.4341 33.2266 35.173 27.1437 35.173 23.6771V18.183C35.173 14.7164 35.4341 8.63354 45.6141 8.63354C55.7941 8.63354 56.0552 14.7164 56.0552 18.183V23.6117V23.6771ZM39.4147 23.6771C39.4147 28.6481 41.6334 29.6946 45.6141 29.6946C49.5948 29.6946 51.8135 28.2556 51.8135 23.6771V18.2484C51.7482 13.4737 49.921 12.2309 45.6141 12.2309C41.3072 12.2309 39.4147 13.4737 39.4147 18.2484V23.7426V23.6771ZM64.2775 32.7033V39.6365H60.1663V15.6975H63.4292L63.6902 16.5478C65.2563 15.7629 67.5403 15.3705 68.5192 15.3705C73.3482 15.3705 75.5669 17.7251 75.5669 22.5652V26.228C75.5669 31.2644 73.0872 33.2266 68.3887 33.2266C66.4962 33.2266 65.1911 32.9649 64.2775 32.7033ZM64.2775 29.433C65.1258 29.6946 66.3657 29.8254 67.8666 29.8254C70.4769 29.8254 71.521 29.1713 71.521 26.228V22.4344C71.521 19.7527 70.8032 18.7716 67.8666 18.7716C64.9301 18.7716 65.2564 19.0333 64.2775 19.2949V29.433ZM82.8756 25.3777C82.8756 29.6292 85.0944 29.8908 87.8352 29.8908C90.5759 29.8908 91.359 29.6946 92.6641 29.3676V32.5725C91.359 32.8341 89.4013 33.1612 87.5089 33.1612C80.8527 33.1612 78.8297 30.7411 78.8297 24.2658C78.8297 17.7905 81.8315 15.2396 86.791 15.2396C91.7505 15.2396 93.9693 16.8094 93.9693 22.4998C93.9693 28.1902 93.904 24.2004 93.7735 25.2469H82.8756V25.3777ZM89.9886 22.5652C89.9886 22.3036 89.9886 22.042 89.9886 21.8458C89.9886 19.4911 88.6835 18.7716 86.7258 18.7716C84.7681 18.7716 83.1367 19.4911 82.9409 22.5652H89.9886ZM101.213 17.2019C103.301 16.417 105.454 15.4359 107.738 15.3705V19.1641C106.433 19.1641 103.366 19.4257 101.474 20.0798V32.8995H97.3626V15.6321H100.691L101.148 17.2019H101.213ZM110.153 22.4344C110.153 19.949 110.414 15.3705 118.049 15.3705C125.684 15.3705 122.813 15.6975 125.358 16.3516V32.8995H122.095L121.834 32.0492C119.876 33.0303 117.723 33.2266 117.07 33.2266C111.067 33.2266 110.153 29.433 110.153 26.1626V22.4344ZM114.264 26.1626C114.329 28.8443 114.982 29.8254 117.918 29.8254C120.855 29.8254 120.268 29.5638 121.181 29.3021V19.0333C120.202 18.837 118.767 18.7716 117.918 18.7716C114.917 18.7716 114.264 19.8835 114.264 22.5652V26.228V26.1626ZM139.584 32.9649C138.54 33.1612 137.365 33.2266 136.451 33.2266C132.405 33.2266 130.774 30.7411 130.709 27.994V18.837H128.164V15.6975H130.839L131.557 11.1844H134.82V15.6975H139.584V18.837H134.82V27.7324C134.82 29.0405 135.342 30.0216 137.365 30.0216C139.388 30.0216 138.801 30.0216 139.584 29.8908V33.0303V32.9649ZM144.804 13.212C143.303 13.212 142.52 12.885 142.52 11.0536C142.52 9.22221 143.173 8.63354 144.804 8.63354C146.436 8.63354 147.153 9.02599 147.153 11.0536C147.153 12.885 146.37 13.212 144.804 13.212ZM142.781 15.6975H146.892V32.9649H142.781V15.6975ZM166.796 26.228C166.796 28.6481 166.6 33.2266 158.769 33.2266C150.938 33.2266 150.677 28.6481 150.677 26.228V22.369C150.677 19.949 150.873 15.3705 158.769 15.3705C166.665 15.3705 166.796 20.0144 166.796 22.369V26.228ZM162.75 22.369C162.75 19.3603 161.51 18.7716 158.834 18.7716C156.159 18.7716 154.854 19.4257 154.854 22.369V26.228C154.854 29.2367 156.224 29.8908 158.834 29.8908C161.445 29.8908 162.75 29.1713 162.75 26.228V22.369ZM178.933 15.3705C184.154 15.3705 185.72 17.3327 185.72 22.042V32.8995H181.609V22.7615C181.609 20.1452 181.283 18.7062 178.346 18.7062C175.41 18.7062 175.801 18.9678 174.757 19.2949V32.8995H170.646V15.6321H173.909L174.17 16.4824C175.801 15.6975 177.694 15.3051 178.933 15.3051V15.3705ZM189.244 28.6481C191.332 29.4984 193.486 29.8254 194.856 29.8254C197.532 29.8254 198.119 29.4984 198.119 28.1902C198.119 26.8821 197.336 26.8167 196.422 26.3588L193.225 24.8545C190.614 23.6117 189.57 22.4998 189.57 19.949C189.57 17.3981 191.071 15.3705 196.814 15.3705C202.556 15.3705 199.685 15.5013 201.447 16.0899V19.4911C199.62 18.837 196.814 18.7716 196.683 18.7716C194.138 18.7716 193.681 19.2949 193.681 20.0798C193.681 20.8646 194.008 21.0609 194.921 21.5841L198.967 23.5463C201.382 24.7237 202.23 25.8356 202.23 28.2556C202.23 31.853 200.403 33.2266 194.856 33.2266C189.309 33.2266 191.267 32.8995 189.244 32.2455V28.6481Z" fill="#272B49"/>
<path d="M252.739 18.9026L249.867 26.686L235.119 30.0218L237.991 22.2383L252.739 18.9026Z" fill="url(#paint0_radial_4062_301)"/>
<path d="M244.125 42.1874L246.996 34.404L237.991 22.2383L235.119 30.0217L244.125 42.1874Z" fill="url(#paint1_radial_4062_301)"/>
<path d="M235.055 0.392334L240.993 6.21355L237.991 21.0609L232.053 15.2397L235.055 0.392334Z" fill="url(#paint2_radial_4062_301)"/>
<path d="M252.739 17.8559L246.801 12.0347L232.053 15.305L237.991 21.1262L252.739 17.8559Z" fill="url(#paint3_radial_4062_301)"/>
<path d="M218.675 44.6075L226.962 44.0843L234.336 30.8721L226.049 31.3953L218.675 44.6075Z" fill="url(#paint4_radial_4062_301)"/>
<path d="M243.407 42.9723L235.119 43.4956L226.049 31.3299L234.336 30.8066L243.407 42.9723Z" fill="url(#paint5_radial_4062_301)"/>
<path d="M213.911 8.17578L211.823 13.8008L218.349 22.5653L220.437 16.9403L213.911 8.17578Z" fill="url(#paint6_radial_4062_301)"/>
<path d="M207.646 24.9852L209.735 19.3602L220.371 16.9402L218.283 22.5652L207.646 24.9852Z" fill="url(#paint7_radial_4062_301)"/>
<path d="M232.248 6.40967L226.244 6.80211L220.893 16.3515L226.897 15.9591L232.248 6.40967Z" fill="url(#paint8_radial_4062_301)"/>
<path d="M214.368 7.58702L220.372 7.19458L226.897 15.9591L220.894 16.3516L214.368 7.58702Z" fill="url(#paint9_radial_4062_301)"/>
<path d="M220.437 38.3283L216.195 34.1423L218.349 23.4155L222.59 27.6016L220.437 38.3283Z" fill="url(#paint10_radial_4062_301)"/>
<path d="M207.712 25.7702L211.954 29.9562L222.59 27.6016L218.349 23.4155L207.712 25.7702Z" fill="url(#paint11_radial_4062_301)"/>
<defs>
<radialGradient id="paint0_radial_4062_301" cx="0" cy="0" r="1" gradientUnits="userSpaceOnUse" gradientTransform="translate(243.64 24.8139) rotate(-69.643) scale(7.38893 7.37606)">
<stop stop-color="#009FE3"/>
<stop offset="1" stop-color="#0075BF"/>
</radialGradient>
<radialGradient id="paint1_radial_4062_301" cx="0" cy="0" r="1" gradientUnits="userSpaceOnUse" gradientTransform="translate(240.703 32.5484) rotate(110.357) scale(7.38893 7.37606)">
<stop stop-color="#009FE3"/>
<stop offset="1" stop-color="#0075BF"/>
</radialGradient>
<radialGradient id="paint2_radial_4062_301" cx="0" cy="0" r="1" gradientUnits="userSpaceOnUse" gradientTransform="translate(236.498 10.5078) rotate(-135.434) scale(7.38235 7.38262)">
<stop stop-color="#009FE3"/>
<stop offset="1" stop-color="#0075BF"/>
</radialGradient>
<radialGradient id="paint3_radial_4062_301" cx="0" cy="0" r="1" gradientUnits="userSpaceOnUse" gradientTransform="translate(242.446 16.3066) rotate(44.5659) scale(7.38235 7.38263)">
<stop stop-color="#009FE3"/>
<stop offset="1" stop-color="#0075BF"/>
</radialGradient>
<radialGradient id="paint4_radial_4062_301" cx="0" cy="0" r="1" gradientUnits="userSpaceOnUse" gradientTransform="translate(226.523 37.7326) rotate(176.191) scale(7.37408 7.39091)">
<stop stop-color="#009FE3"/>
<stop offset="1" stop-color="#0075BF"/>
</radialGradient>
<radialGradient id="paint5_radial_4062_301" cx="0" cy="0" r="1" gradientUnits="userSpaceOnUse" gradientTransform="translate(234.768 37.1027) rotate(-3.80873) scale(7.37408 7.39091)">
<stop stop-color="#009FE3"/>
<stop offset="1" stop-color="#0075BF"/>
</radialGradient>
<radialGradient id="paint6_radial_4062_301" cx="0" cy="0" r="1" gradientUnits="userSpaceOnUse" gradientTransform="translate(216.004 15.3861) rotate(-69.6431) scale(5.29649 5.28726)">
<stop stop-color="#009FE3"/>
<stop offset="1" stop-color="#0075BF"/>
</radialGradient>
<radialGradient id="paint7_radial_4062_301" cx="0" cy="0" r="1" gradientUnits="userSpaceOnUse" gradientTransform="translate(213.797 20.9094) rotate(110.357) scale(5.29649 5.28726)">
<stop stop-color="#009FE3"/>
<stop offset="1" stop-color="#0075BF"/>
</radialGradient>
<radialGradient id="paint8_radial_4062_301" cx="0" cy="0" r="1" gradientUnits="userSpaceOnUse" gradientTransform="translate(226.426 11.3505) rotate(-3.80873) scale(5.28584 5.29791)">
<stop stop-color="#009FE3"/>
<stop offset="1" stop-color="#0075BF"/>
</radialGradient>
<radialGradient id="paint9_radial_4062_301" cx="0" cy="0" r="1" gradientUnits="userSpaceOnUse" gradientTransform="translate(220.718 11.7591) rotate(176.191) scale(5.28585 5.29791)">
<stop stop-color="#009FE3"/>
<stop offset="1" stop-color="#0075BF"/>
</radialGradient>
<radialGradient id="paint10_radial_4062_301" cx="0" cy="0" r="1" gradientUnits="userSpaceOnUse" gradientTransform="translate(219.76 30.7977) rotate(44.5659) scale(5.29178 5.29198)">
<stop stop-color="#009FE3"/>
<stop offset="1" stop-color="#0075BF"/>
</radialGradient>
<radialGradient id="paint11_radial_4062_301" cx="0" cy="0" r="1" gradientUnits="userSpaceOnUse" gradientTransform="translate(215.461 26.7153) rotate(-135.434) scale(5.29178 5.29197)">
<stop stop-color="#009FE3"/>
<stop offset="1" stop-color="#0075BF"/>
</radialGradient>
</defs>
</svg>
